<svg width="375" height="597" viewBox="0 0 375 597" fill="none" xmlns="http://www.w3.org/2000/svg">
<path d="M309.648 393.563C317.789 402.527 330.381 394.888 334.294 385.861C337.386 378.758 337.954 370.583 339.027 363.007C340.258 354.484 341.362 345.962 342.372 337.439C346.064 306.031 350.356 273.203 343.003 241.985C341.394 235.23 334.609 206 322.397 213.481C320.819 214.459 322.271 216.953 323.848 215.975C335.02 209.156 342.467 253.916 343.098 260.009C344.739 276.012 344.013 292.174 342.625 308.178C341.078 325.633 339.027 343.058 336.566 360.387C335.493 367.994 334.956 376.138 332.243 383.367C329.402 390.974 319.146 399.718 311.731 391.542C310.437 390.154 308.417 392.174 309.648 393.563Z" fill="#FFCE5C"/>
<path d="M-5.7635 314.174C-12.9269 299.717 -11.5384 283.366 -7.43601 268.215C-3.45984 253.537 2.59909 239.111 9.98341 225.822C24.4049 199.907 47.757 177.085 78.3356 173.202C80.1659 172.982 80.1659 170.077 78.3356 170.33C46.6841 174.37 22.4799 197.476 7.4904 224.402C-0.52505 238.796 -7.152 254.673 -11.0335 270.677C-14.6941 285.702 -15.2621 301.517 -8.22493 315.658C-7.43601 317.299 -4.94302 315.816 -5.7635 314.174Z" fill="#FFCE5C"/>
<path d="M567.973 339.018C555.918 338.197 543.264 337.156 534.049 338.229C514.137 340.533 495.518 349.151 476.174 354.359C456.293 359.693 435.654 361.461 415.143 363.166C400.185 364.428 385.227 365.691 370.237 365.691C356.51 365.723 342.783 364.744 329.118 363.513C307.439 361.587 285.349 359.536 263.196 356.789C213.115 350.603 162.877 340.944 117.151 321.625C106.043 316.922 95.0609 311.903 84.2369 306.569C33.2409 281.442 -14.41 249.372 -57.0118 211.461C-73.0427 197.194 -88.3478 182.137 -102.864 166.291L-102.927 166.228C-105.83 163.04 -102.359 158.116 -98.446 159.852L-77.1451 169.29C-73.7685 170.773 -69.7292 170.3 -67.0154 167.775C-63.7334 164.713 -64.8695 160.893 -66.1633 157.547C-70.3919 146.563 -76.2615 136.241 -80.2061 125.161C-82.4151 118.911 -84.0876 109.094 -84.3717 99.7193C-84.5294 94.4479 -77.3976 92.9011 -75.441 97.7622C-71.7489 106.916 -61.7769 123.867 -52.6254 135.673C-51.1107 137.63 -48.1443 135.609 -49.3435 133.431C-57.138 119.479 -65.8477 101.361 -66.4789 91.2597C-66.6682 88.1347 -64.4592 85.2623 -61.3667 84.9782C-57.4221 84.5994 -55.718 88.9554 -54.5819 92.4592C-50.3849 105.243 -43.6632 117.459 -32.997 125.445C-37.9199 117.838 -43.253 107.169 -45.9353 98.4251C-47.4501 93.5009 -41.0125 90.1549 -38.0146 94.29C-34.8589 98.6461 -31.861 105.149 -29.7151 108.905C-17.471 130.243 -1.28233 149.246 17.778 164.587C29.5172 174.056 42.2977 182.105 55.0152 190.155C78.8091 205.148 106.358 219.069 134.381 229.643C150.349 235.609 166.443 240.533 182.063 243.974C203.774 248.74 225.927 251.771 248.27 253.728C282.383 256.727 316.874 257.263 350.766 257.737C398.133 258.4 446.857 258.494 491.068 241.196C500.283 237.598 518.555 231.19 534.996 227.244C539.887 226.076 542.222 233.147 537.615 235.199C524.771 240.975 510.003 247.194 497.822 251.55C496.054 252.181 494.666 253.665 494.35 255.527C493.625 259.852 500.378 258.968 504.701 257.863L557.685 244.353C563.271 242.932 566.963 250.035 562.671 253.917C560.21 256.127 557.149 257.989 554.277 259.283C543.327 264.208 526.097 269.921 511.17 275.35C506.342 277.118 508.235 284.473 513.284 283.557C528.022 280.937 549.512 274.624 567.531 269.7C573.148 268.153 576.461 275.855 571.57 279.043C559.01 287.156 545.82 293.721 532.029 299.34C515.525 306.095 518.807 319.826 530.42 321.815C537.015 322.951 543.201 323.551 547.271 323.582C553.172 323.646 562.261 325.382 570.213 328.507C575.957 330.811 574.032 339.428 567.973 339.018Z" fill="#F6A460"/>
<path d="M142.838 270.109C149.402 290.311 169.851 296.088 185.408 289.364C201.597 282.736 214.22 267.489 223.371 251.075C207.814 249.15 190.994 247.919 175.815 243.973C164.833 241.132 153.599 237.25 142.365 232.609C138.957 244.762 139.619 258.02 142.838 270.109Z" fill="#F6A460"/>
<path d="M265.153 362.945C264.49 360.924 263.827 358.873 263.164 356.789C257.421 338.765 251.993 319.51 250.668 300.887C249.248 280.937 248.522 265.533 248.238 253.728C244.23 253.381 227.316 251.487 223.34 251.045C212.61 267.459 206.646 280.558 187.617 287.156C169.346 293.879 150.98 290.281 143.28 270.079C139.493 257.989 138.704 244.732 142.743 232.61C139.935 231.632 137.158 230.622 134.349 229.58C118.003 243.185 105.254 261.114 95.7866 279.99C91.4317 288.639 87.5818 297.509 84.2052 306.569C69.8153 344.921 63.5039 386.335 61.8629 426.991C59.5908 483.462 62.1154 541.322 72.0874 596.972L421.675 583.525C354.679 520.204 294.185 452.244 265.153 362.945Z" fill="#FFCE5C"/>
<path d="M189.29 200.855C182.631 194.479 183.073 182.484 190.173 176.486C194.055 173.203 199.356 171.688 202.859 168.058C210.969 159.662 205.415 146.278 205.573 134.82C205.699 123.708 212.989 113.955 222.141 107.168C238.771 94.7628 249.721 101.613 263.038 96.9093C294.816 85.7035 289.483 67.9952 302.2 54.6745C314.918 41.3854 334.42 36.398 353.039 36.3665C366.86 36.3665 379.83 43.6897 393.652 43.2793C409.778 42.8059 411.072 24.6556 441.871 22.888C463.298 21.6885 484.063 33.2415 494.035 51.6442C504.038 70.047 498.863 100.508 481.412 112.787C468.695 121.72 442.913 125.476 427.418 123.582C411.198 121.594 401.731 109.315 388.288 118.405C372.856 128.822 372.478 152.307 357.677 163.513C346.096 172.288 329.813 170.615 315.265 168.91C300.749 167.206 284.087 166.543 273.547 176.486C266.383 183.273 262.944 194.321 253.571 197.667C240.444 202.338 225.044 188.323 212.926 195.141C209.676 196.972 207.372 200.066 204.342 202.244C201.313 204.422 196.737 205.495 193.992 203.033L189.29 200.855Z" fill="#4F3422"/>
<path d="M191.972 181.41C200.461 174.845 202.165 163.955 201.376 153.79C200.272 139.333 195.917 124.119 207.403 112.471C225.359 94.2893 254.77 99.3398 274.556 84.3145C285.412 76.0759 288.852 62.408 297.94 52.6543C307.281 42.6164 320.377 36.2402 334.073 35.2616C356.825 33.6518 388.572 46.6884 405.675 24.6871C410.977 17.8374 413.912 2.11775 401.983 0.129117C398.291 -0.47063 393.81 1.01295 392.295 4.70613C390.749 8.494 394.883 10.9561 398.228 9.88288C399.995 9.3147 399.238 6.53693 397.471 7.10511C396.713 6.50537 395.987 5.87405 395.23 5.27431C396.019 4.16951 397.06 3.47507 398.354 3.12785C399.743 2.68593 401.415 2.74906 402.772 3.25411C406.18 4.51673 407.569 8.33617 407.6 11.6821C407.663 17.3324 404.382 22.6038 400.248 26.2339C392.043 33.3992 380.367 35.1985 369.858 34.7881C356.857 34.2831 343.919 31.0634 330.886 32.6732C321.324 33.8727 312.109 37.5659 304.315 43.2161C296.015 49.2452 290.461 56.9787 285.475 65.8487C282.477 71.1517 279.416 76.4231 274.777 80.432C270.202 84.3777 264.742 87.0923 259.094 89.1125C240.854 95.6781 218.448 96.0569 204.5 111.335C196.548 120.078 195.822 131.032 197.147 142.301C198.536 154.327 201.723 170.299 190.552 178.885C189.069 180.021 190.489 182.515 191.972 181.41Z" fill="#4F3422"/>
<path d="M235.268 191.67C244.767 196.341 256.033 195.71 264.648 189.365C269.318 185.925 272.947 181.032 278.059 178.16C285.223 174.151 293.428 175.477 301.033 177.434C313.056 180.495 324.48 183.841 337.039 182.232C347.674 180.874 357.078 176.203 364.273 168.185C371.846 159.725 377.022 148.898 386.394 142.175C397.755 134.031 412.681 134.82 425.714 137.503C448.53 142.143 476.521 154.012 495.739 134.22C500.914 128.886 509.151 113.829 499.368 109.157C496.181 107.642 491.952 107.8 489.806 110.925C487.786 113.892 488.481 117.964 491.605 119.732C493.214 120.647 494.666 118.153 493.057 117.238C488.702 114.776 493.719 110.451 497.033 111.335C499.021 111.872 500.251 113.166 500.662 115.376C501.072 117.712 500.409 120.521 499.652 122.699C497.916 127.907 494.161 132.326 489.806 135.578C480.876 142.238 469.925 143.343 459.133 142.017C438.274 139.429 417.509 128.539 396.177 134.41C377.4 139.586 371.72 158.21 358.34 170.047C350.23 177.213 339.501 179.927 328.866 179.801C318.01 179.643 308.259 175.824 297.751 173.677C287.242 171.531 278.533 173.078 270.517 180.306C266.068 184.283 262.092 188.576 256.285 190.565C249.816 192.774 242.842 192.175 236.751 189.176C235.047 188.355 233.596 190.849 235.268 191.67Z" fill="#4F3422"/>
<path d="M83.7635 320.331C72.687 308.967 54.2262 310.451 38.7002 313.797C23.1742 317.143 5.97573 321.31 -7.71996 313.292C-8.66667 309.536 -5.29008 305.969 -1.72415 304.454C1.87333 302.938 5.91261 302.56 9.22609 300.508C20.0501 293.753 15.3481 275.571 24.1209 266.291C31.1897 258.841 44.917 259.536 50.0607 250.634C56.1512 240.091 45.1378 223.993 53.8791 215.533C56.1196 213.355 59.2122 212.345 61.9892 210.988C76.6632 203.886 84.2369 184.883 78.5251 169.605C85.2151 169.384 91.274 173.93 95.0924 179.422C98.9108 184.915 101.025 191.386 103.771 197.478C109.514 210.136 123.494 220.931 134.349 229.612C135.769 230.748 132.077 232.421 132.708 234.125C133.308 235.767 132.992 237.566 132.645 239.271C129.205 257.01 125.703 274.877 118.886 291.606C112.07 308.336 101.562 324.024 86.6036 334.188L83.7635 320.331Z" fill="#FFCE5C"/>
<path d="M241.043 260.102C262.375 236.239 292.418 219.478 324.89 213.322C313.782 222.35 301.664 233.745 303.368 247.476C303.873 251.485 305.577 255.431 305.104 259.471C303.683 271.624 283.866 277.495 285.16 289.648C286.012 297.729 296.394 303.221 295.826 311.333C295.258 319.288 284.181 324.78 285.728 332.609C286.706 337.564 292.386 340.342 295.132 344.667C299.171 351.011 296.268 359.092 296.836 366.447C297.593 376.611 307.092 391.92 317.569 394.319C286.359 395.266 254.076 372.602 238.929 346.908C223.75 321.213 225.201 287.565 242.526 263.101L241.043 260.102Z" fill="#FFCE5C"/>
<path d="M270.517 376.802C248.711 362.598 227.379 346.941 221.699 319.953C216.334 294.511 227 268.185 247.986 253.034C249.09 252.213 248.017 250.35 246.881 251.171C225.991 266.259 214.851 291.859 219.016 317.427C223.75 346.531 246.187 363.576 269.413 378.665C270.612 379.422 271.685 377.56 270.517 376.802Z" fill="#4F3422"/>
<path d="M80.8602 320.899C92.5363 287.882 110.082 255.937 134.223 230.369C135.17 229.359 133.655 227.812 132.677 228.854C108.283 254.738 90.5798 286.966 78.7775 320.331C78.3041 321.625 80.3869 322.193 80.8602 320.899Z" fill="#4F3422"/>
<path d="M64.5453 300.317C66.8805 300.191 68.9633 300.822 70.8882 302.148C72.0243 302.937 73.1288 301.075 71.9927 300.286C69.8153 298.771 67.2276 298.013 64.5768 298.171C63.1568 298.202 63.1568 300.38 64.5453 300.317Z" fill="#4F3422"/>
<path d="M70.7621 284.188C73.1919 286.555 75.7796 288.702 78.5251 290.659C79.6611 291.48 80.7341 289.586 79.6296 288.797C77.0103 286.934 74.5805 284.882 72.3084 282.641C71.267 281.694 69.7522 283.209 70.7621 284.188Z" fill="#4F3422"/>
<path d="M102.824 239.681C106.043 241.102 109.293 242.49 112.512 243.911C113.774 244.447 114.879 242.585 113.616 242.049C110.398 240.628 107.147 239.239 103.929 237.819C102.666 237.282 101.562 239.144 102.824 239.681Z" fill="#4F3422"/>
<path d="M112.102 233.336C113.017 236.146 114.879 238.482 117.466 239.902C118.697 240.565 119.77 238.703 118.571 238.04C116.488 236.872 114.942 235.041 114.184 232.768C113.774 231.442 111.691 232.011 112.102 233.336Z" fill="#4F3422"/>
<path d="M116.93 222.572C118.287 226.012 120.464 228.822 123.43 231C124.566 231.82 125.639 229.958 124.535 229.137C122.073 227.306 120.149 224.844 119.044 222.003C118.508 220.709 116.393 221.277 116.93 222.572Z" fill="#4F3422"/>
<path d="M238.866 269.068C241.8 268.342 244.735 267.616 247.67 266.89C249.027 266.543 248.459 264.459 247.102 264.806C244.167 265.532 241.232 266.258 238.298 266.984C236.941 267.3 237.509 269.383 238.866 269.068Z" fill="#4F3422"/>
<path d="M234.606 280.716C237.856 280.305 241.012 280.558 244.167 281.536C245.493 281.947 246.061 279.863 244.735 279.453C241.422 278.411 238.045 278.127 234.606 278.538C233.249 278.727 233.217 280.905 234.606 280.716Z" fill="#4F3422"/>
<path d="M227.821 327.623C230.061 329.959 232.302 332.295 234.542 334.662C235.521 335.672 237.035 334.125 236.089 333.147C233.848 330.811 231.608 328.475 229.367 326.108C228.389 325.066 226.874 326.613 227.821 327.623Z" fill="#4F3422"/>
<path d="M228.389 322.13C231.355 322.667 234.322 323.203 237.288 323.771C238.645 324.024 239.244 321.941 237.856 321.688C234.89 321.151 231.923 320.615 228.957 320.047C227.6 319.794 227 321.877 228.389 322.13Z" fill="#4F3422"/>
<path d="M227.221 312.88C229.84 314.3 232.649 315.058 235.584 315.121C236.972 315.153 236.972 313.006 235.584 312.943C232.996 312.88 230.566 312.217 228.294 310.986C227.063 310.355 225.99 312.217 227.221 312.88Z" fill="#4F3422"/>
<path d="M217.47 135.546C219.742 123.772 228.357 114.334 239.939 111.146C241.737 110.64 240.98 107.863 239.181 108.368C226.685 111.808 217.154 122.036 214.693 134.788C214.346 136.619 217.123 137.377 217.47 135.546Z" fill="#251404"/>
<path d="M281.436 103.759C288.094 99.5926 294.974 95.1734 298.918 88.1343C301.127 84.2202 302.611 79.9588 305.104 76.2025C307.881 72.0359 311.32 68.5005 315.202 65.3755C316.653 64.2076 314.602 62.1874 313.151 63.3238C306.713 68.4689 301.979 74.7821 298.54 82.2631C294.469 91.1646 288.094 96.1835 279.953 101.266C278.406 102.244 279.858 104.738 281.436 103.759Z" fill="#251404"/>
<path d="M333.095 56.0953C344.928 46.9413 360.234 51.613 372.983 55.8744C374.75 56.4741 375.507 53.6648 373.74 53.0966C359.729 48.4564 343.824 44.1635 331.043 54.0751C329.56 55.1799 331.643 57.2001 333.095 56.0953Z" fill="#251404"/>
<path d="M193.802 254.894L207.056 167.994C207.056 167.994 164.076 176.959 156.502 209.156L174.395 210.797L155.618 241.005C148.739 252.085 153.946 266.731 166.285 270.961C166.506 271.024 166.695 271.119 166.916 271.182C179.002 275.254 191.877 267.489 193.802 254.894Z" fill="#F6A460"/>
<path d="M214.03 207.483C209.581 210.008 203.932 208.43 201.408 203.979C198.883 199.528 200.461 193.878 204.91 191.353C209.36 188.827 215.009 190.406 217.533 194.856C220.026 199.307 218.48 204.957 214.03 207.483Z" fill="#F6A460"/>
<path d="M205.447 201.075C208.792 200.443 212.137 199.844 215.482 199.276C216.839 199.055 216.271 196.971 214.914 197.192C211.569 197.76 208.224 198.36 204.879 198.991C203.522 199.244 204.09 201.327 205.447 201.075Z" fill="#4F3422"/>
<path d="M174.363 210.797L156.691 239.301L187.649 211.081L174.363 210.797Z" fill="#4F3422"/>
<path d="M168.935 192.553C168.935 192.553 180.517 195.583 190.268 196.341C190.268 196.341 172.091 206.284 162.277 202.654L168.935 192.553Z" fill="white"/>
<path d="M185.945 175.223C180.233 177.212 174.426 179.706 169.219 182.767C168.557 183.146 168.462 184.283 169.219 184.63C171.365 185.671 173.48 186.682 175.625 187.723C176.888 188.323 177.961 186.461 176.73 185.861C174.584 184.819 172.47 183.809 170.324 182.767C170.324 183.399 170.324 183.998 170.324 184.63C175.373 181.663 180.99 179.264 186.513 177.307C187.838 176.865 187.27 174.781 185.945 175.223Z" fill="#4F3422"/>
<path d="M189.732 187.564C192.225 185.891 196.737 188.101 197.968 190.5C198.599 191.731 200.461 190.658 199.83 189.395C198.063 185.986 192.067 183.334 188.627 185.67C187.491 186.459 188.596 188.353 189.732 187.564Z" fill="#4F3422"/>
</svg>
