<svg width="375" height="587" viewBox="0 0 375 587" fill="none" xmlns="http://www.w3.org/2000/svg">
<mask id="mask0_22_2792" style="mask-type:luminance" maskUnits="userSpaceOnUse" x="-106" y="44" width="729" height="498">
<path d="M307.087 73.4395C205.222 27.0901 64.6584 34.5846 29.7095 102.988C7.48609 146.419 35.98 203.119 5.24222 240.715C-14.6759 265.072 -25.096 268.021 -49.5018 287.863C-70.4035 304.849 -88.5695 321.466 -98.4056 347.666C-112.084 384.033 -106.336 425.959 -84.9424 457.964C-66.5305 485.516 -34.5325 499.768 -4.68608 511.194C37.7321 527.412 84.1461 534.292 129.361 532.295C191.79 529.562 253.665 508.122 315.602 516.416C345.663 520.439 374.403 531.374 404.157 537.302C461.514 548.697 532.426 539.329 566.76 485.27C581.207 462.51 586.371 435.604 583.143 408.912C579.578 379.487 571.125 349.201 577.149 319.5C583.85 286.511 607.887 259.697 618.092 227.661C635.551 172.896 604.291 107.134 550.93 86.3706C529.967 78.2004 507.067 76.4803 484.567 76.3574C424.444 75.9888 361.893 98.3803 307.087 73.4395Z" fill="white"/>
</mask>
<g mask="url(#mask0_22_2792)">
<path d="M678 0H-149V562.458H678V0Z" fill="#F5F5F5"/>
</g>
<mask id="mask1_22_2792" style="mask-type:luminance" maskUnits="userSpaceOnUse" x="-106" y="44" width="729" height="498">
<path d="M307.087 73.4395C205.222 27.0901 64.6584 34.5846 29.7095 102.988C7.48609 146.419 35.98 203.119 5.24222 240.715C-14.6759 265.072 -25.096 268.021 -49.5018 287.863C-70.4035 304.849 -88.5695 321.466 -98.4056 347.666C-112.084 384.033 -106.336 425.959 -84.9424 457.964C-66.5305 485.516 -34.5325 499.768 -4.68608 511.194C37.7321 527.412 84.1461 534.292 129.361 532.295C191.79 529.562 253.665 508.122 315.602 516.416C345.663 520.439 374.403 531.374 404.157 537.302C461.514 548.697 532.426 539.329 566.76 485.27C581.207 462.51 586.371 435.604 583.143 408.912C579.578 379.487 571.125 349.201 577.149 319.5C583.85 286.511 607.887 259.697 618.092 227.661C635.551 172.896 604.291 107.134 550.93 86.3706C529.967 78.2004 507.067 76.4803 484.567 76.3574C424.444 75.9888 361.893 98.3803 307.087 73.4395Z" fill="white"/>
</mask>
<g mask="url(#mask1_22_2792)">
<path d="M80.4575 439.751C65.2423 478.145 54.5762 525.631 45.2627 562.458L549.362 570.966C561.995 528.272 566.575 467.824 558.368 423.84C555.909 410.694 551.36 397.794 546.719 385.6C494.495 427.956 420.54 457.996 351.811 466.903C260.796 478.913 164.433 475.872 80.4575 439.751Z" fill="#736B66"/>
</g>
<path d="M88.1728 128.544L78.306 133.919C72.3121 138.403 73.1113 139.847 71.7281 147.219L68.2547 169.119C68.1318 169.856 67.056 169.856 66.933 169.119L63.5211 147.341C62.1687 140.001 62.2916 138.403 56.3592 133.919L47.0149 128.544C46.6461 128.267 46.6461 127.745 47.0149 127.469L57.5887 122.431C63.4904 117.947 63.1522 114.968 64.5047 107.657L66.933 86.9552C67.056 86.2181 68.1318 86.2181 68.2547 86.9552L71.1133 108.394C72.4351 115.643 73.1728 118.684 79.0437 123.169L88.2035 127.438C88.5417 127.745 88.5417 128.298 88.1728 128.544Z" fill="#C9C7C5"/>
<path d="M127.333 180.912L120.478 184.66C116.298 187.762 116.882 188.776 115.898 193.905L113.501 209.109C113.408 209.631 112.671 209.601 112.578 209.109L110.212 193.997C109.259 188.898 109.382 187.793 105.232 184.66L98.7772 180.912C98.5313 180.728 98.5313 180.36 98.7772 180.175L106.124 176.674C110.212 173.541 109.996 171.483 110.919 166.415L112.609 152.04C112.701 151.518 113.439 151.518 113.531 152.04L115.499 166.937C116.421 171.974 116.943 174.063 121.001 177.196L127.363 180.175C127.579 180.36 127.579 180.728 127.333 180.912Z" fill="#C9C7C5"/>
<path d="M223.388 200.48C202.855 187.426 196.185 158 209.034 137.022C221.882 116.043 252.251 106.675 274.597 116.842C283.511 120.896 291.626 127.684 301.616 127.746C311.452 127.807 319.997 121.265 328.942 117.026C346.093 108.917 368.225 109.685 381.841 121.818C388.542 127.777 392.968 136.07 400.53 141.015C410.243 147.373 423.276 147.035 435.11 144.977C446.944 142.919 458.778 139.387 470.674 140.216C482.538 141.046 493.85 146.39 501.596 154.867C512.139 166.386 516.903 183.74 531.596 189.914C537.528 192.402 544.26 192.617 550.776 193.354C576.657 196.241 602.446 209.602 612.344 232.485C622.58 256.136 621.166 298.492 595.069 304.697C536.76 318.519 591.504 350.401 528.245 374.052C515.766 378.721 497.262 349.449 486.104 342.968C479.065 338.883 474.608 331.788 468.399 326.627C459.362 319.041 446.452 315.846 434.403 318.181C404.403 324.047 384.792 360.414 354.423 359.216C347.446 358.94 339.546 355.131 339.3 348.435C339.177 345.364 340.714 342.446 342.251 339.712C349.444 326.904 357.774 313.881 358.542 299.536C359.28 285.407 336.565 290.537 324.362 282.981C311.698 275.149 282.835 299.69 273.398 288.418C268.019 281.998 260.212 260.682 256.032 253.464C247.364 238.444 260.304 198.084 242.599 202.568L223.388 200.48Z" fill="#3F3C36"/>
<path d="M206.329 171.022C200.98 167.367 192.989 169.64 187.548 172.159C180.939 175.23 178.019 180.912 179.648 188.069C180.693 192.646 183.275 197.13 182.353 201.952C181.093 208.618 174.822 206.56 170.15 208.679C167.691 209.785 166.062 211.843 165.109 214.3C164.341 216.266 162.988 221.426 163.88 223.115C163.019 221.518 160.591 222.931 161.452 224.528C162.159 225.88 163.726 226.832 165.263 226.064C167.384 225.02 166.523 222.071 166.708 220.136C166.923 217.924 167.353 215.436 168.613 213.563C170.488 210.798 173.439 210.798 176.39 210.338C179.249 209.877 181.831 209.14 183.552 206.683C187.948 200.355 183.306 193.045 182.169 186.595C181.093 180.421 184.566 176.428 189.976 174.247C194.402 172.466 200.704 170.623 204.915 173.51C206.421 174.462 207.835 172.036 206.329 171.022Z" fill="#3F3C36"/>
<path d="M205.007 167.829C197.569 165.095 189.792 160.365 181.616 163.129C179.003 164.02 176.544 165.678 175.13 168.074C174.269 169.549 173.9 171.207 173.655 172.866C173.47 173.972 173.624 176.122 172.948 177.074C171.288 178.087 169.597 179.07 167.937 180.084C167.476 179.777 166.984 179.593 166.462 179.531C159.976 179.316 156.995 183.923 155.273 189.667C154.136 193.507 153.583 197.715 151.093 200.97C147.773 205.301 142.025 206.561 137.015 204.748C136.247 204.472 135.57 205.086 135.294 205.731C134.648 207.298 134.802 208.373 135.786 209.755C136.831 211.199 139.29 209.816 138.214 208.342C138.152 207.728 138.091 207.113 138.029 206.499C137.445 206.837 136.861 207.144 136.308 207.482C142.271 209.601 149.279 207.943 153.275 202.875C157.456 197.561 156.318 186.012 162.804 183.033C166.4 181.374 169.689 184.845 173.193 181.958C175.898 179.715 175.898 176.245 176.544 173.112C179.495 158.983 196.062 167.583 204.3 170.593C205.991 171.146 206.698 168.443 205.007 167.829Z" fill="#3F3C36"/>
<path d="M279.515 341C282.989 361.918 303.46 367.293 322.026 366.402C345.54 365.296 368.225 357.341 387.62 344.164C396.903 337.867 405.417 330.496 413.286 322.51C415.868 319.899 433.85 295.88 435.479 296.187C409.844 291.303 383.163 290.566 357.805 290.597C333.03 290.627 310.591 290.289 289.567 291.18C280.776 306.169 276.565 323.063 279.515 341Z" fill="#C9C7C5"/>
<path d="M481.34 310.869C466.831 303.835 451.34 299.228 435.479 296.218C433.819 295.91 414.331 321.558 411.503 324.322C402.559 333.168 392.784 341.185 382.057 347.789C361.155 360.658 332.2 367.416 308.409 365.112C273.214 361.672 274.72 316.52 289.567 291.211C252.681 292.777 220.222 298.153 187.579 316.09C148.419 337.622 117.712 374.05 95.7649 414.809C91.6461 422.488 87.8038 430.873 84.2075 439.75C169.904 475.871 268.204 478.912 361.063 466.902C431.206 457.995 493.42 427.955 546.719 385.599C534.393 353.839 513.86 326.595 481.34 310.869Z" fill="#736B66"/>
<path d="M377.2 294.313L254.71 183.124C239.095 189.298 221.636 185.458 209.157 174.77C201.073 204.993 194.372 256.134 226.032 292.624L252.036 262.83C252.036 262.83 265.714 296.617 279.239 329.82C291.903 360.904 331.831 369.566 356.268 346.591C356.575 346.284 356.913 345.977 357.221 345.669C377.446 326.534 397.825 313.019 377.2 294.313Z" fill="#C9C7C5"/>
<path d="M254.71 183.124L217.702 149.521C217.702 149.521 213.276 159.473 209.188 174.769C221.636 185.458 239.095 189.298 254.71 183.124Z" fill="#C9C7C5"/>
<path d="M297.19 187.884C295.96 199.065 285.878 207.143 274.69 205.914C263.501 204.686 255.417 194.611 256.647 183.431C257.876 172.25 267.958 164.172 279.147 165.401C290.335 166.629 298.419 176.704 297.19 187.884Z" fill="#C9C7C5"/>
<path d="M273.706 194.797C276.903 188.039 280.13 181.282 283.45 174.617C284.249 172.989 281.821 171.576 281.022 173.204C277.702 179.9 274.474 186.657 271.278 193.384C270.478 195.012 272.907 196.425 273.706 194.797Z" fill="#3F3C36"/>
<path d="M252.036 262.86L280.161 331.079L269.649 239.578L252.036 262.86Z" fill="#3F3C36"/>
<path d="M204.362 196.885C200.581 209.509 197.599 223.024 196.37 236.17C196.278 237.276 197.63 237.859 198.491 237.368C203.071 234.88 207.65 232.423 212.23 229.935C213.829 229.075 212.415 226.648 210.816 227.508C206.237 229.996 201.657 232.453 197.077 234.941C197.784 235.34 198.491 235.74 199.198 236.17C200.396 223.3 203.378 210 207.097 197.653C207.589 195.902 204.884 195.134 204.362 196.885Z" fill="#3F3C36"/>
<path d="M227.507 207.728C231.964 202.629 238.142 199.957 244.935 200.264C246.749 200.356 246.749 197.53 244.935 197.469C237.466 197.131 230.458 200.141 225.54 205.762C224.341 207.083 226.308 209.079 227.507 207.728Z" fill="#3F3C36"/>
<path d="M220.899 247.412C227.907 251.62 236.544 244.586 233.347 236.876C232.671 235.218 229.935 235.955 230.642 237.613C232.825 242.927 227.384 248.026 222.313 244.954C220.776 244.033 219.362 246.46 220.899 247.412Z" fill="#3F3C36"/>
<path d="M225.724 199.525C226.401 201.123 227.077 202.72 227.784 204.317C228.091 205.023 229.105 205.177 229.72 204.808C230.458 204.409 230.519 203.58 230.212 202.873C229.536 201.276 228.86 199.679 228.153 198.082C227.845 197.375 226.831 197.222 226.216 197.59C225.478 197.99 225.417 198.819 225.724 199.525Z" fill="#3F3C36"/>
<path d="M237.435 198.696C236.821 196.792 236.175 194.887 235.56 192.983C235.007 191.263 232.271 192 232.855 193.72C233.47 195.624 234.116 197.529 234.73 199.433C235.284 201.153 237.989 200.416 237.435 198.696Z" fill="#3F3C36"/>
<path d="M243.952 198.297C243.706 197.007 244.044 195.625 244.905 194.611C246.073 193.229 244.075 191.233 242.907 192.615C241.37 194.458 240.786 196.669 241.247 199.035C241.585 200.816 244.29 200.079 243.952 198.297Z" fill="#3F3C36"/>
<path d="M223.942 174.678C228.306 172.989 233.009 174.125 236.052 177.688C237.22 179.071 239.218 177.074 238.05 175.692C234.392 171.453 228.429 169.917 223.204 171.945C221.544 172.62 222.251 175.323 223.942 174.678Z" fill="#3F3C36"/>
<path d="M245.673 400.345C230.151 413.921 203.163 429.678 185.181 440.213C191.052 440.674 203.562 444.605 200.888 449.52C198.214 454.434 192.527 457.199 187.241 459.625C178.019 463.833 168.798 468.072 159.577 472.28C155.488 474.154 151.216 476.058 146.667 476.15C142.118 476.242 137.199 473.939 136.001 469.853C135.232 467.304 143.531 457.874 141.257 456.308C139.074 454.803 128.285 462.205 125.888 463.434C101.083 476.365 76.2464 489.327 51.441 502.258C48.8898 503.579 46.1234 504.961 43.2648 504.592C40.191 504.193 37.8549 501.951 35.7648 499.801C-1.70458 461.315 -39.1739 422.798 -76.6125 384.311C-56.049 367.019 -31.9813 353.381 -6.10008 344.412C9.51471 338.976 26.0209 335.136 40.0373 326.689L245.673 400.345Z" fill="#ACA9A5"/>
<path d="M248.409 396.26C220.96 406.181 195.571 421.385 174.239 440.736C179.341 440.214 184.597 441.196 189.116 443.531C181.523 449.182 173.47 454.22 165.017 458.581C159.577 461.407 153.183 463.987 147.374 461.991C141.564 459.994 138.859 451.056 144.269 448.169C111.503 460.086 78.7671 472.004 46.0006 483.952C44.0334 484.659 41.9125 485.396 39.8531 484.904C37.7936 484.382 36.2875 482.723 34.935 481.157C-3.08762 436.773 -36.9299 387.015 -87.4014 356.084C-78.303 352.583 -69.1739 349.112 -60.0755 345.61C-73.8153 335.382 -45.9668 331.389 -61.6124 324.079C-19.1635 318.55 24.853 313.728 71.5437 329.208C71.5437 329.208 101.575 270.143 144.454 261.973L248.409 396.26Z" fill="white"/>
<path d="M125.734 242.621C99.1769 260.989 55.4678 291.52 39.0538 317.198C-5.48521 311.055 -51.4689 311.208 -96.5305 317.72C-43.139 355.899 4.2894 400.221 44.2793 449.243C45.3551 450.564 46.5231 451.946 48.2444 452.622C50.7342 453.604 53.7158 452.806 56.3899 452.069C91.2773 442.363 127.763 439.291 163.911 436.281C188.778 409.497 220.345 387.321 255.632 371.871L125.734 242.621Z" fill="white"/>
<mask id="mask2_22_2792" style="mask-type:luminance" maskUnits="userSpaceOnUse" x="-97" y="242" width="353" height="212">
<path d="M125.734 242.621C99.1769 260.989 55.4678 291.52 39.0538 317.198C-5.48521 311.055 -51.4689 311.208 -96.5305 317.72C-43.139 355.899 4.2894 400.221 44.2793 449.243C45.3551 450.564 46.5231 451.946 48.2444 452.622C50.7342 453.604 53.7158 452.806 56.3899 452.069C91.2773 442.363 127.763 439.291 163.911 436.281C188.778 409.497 220.345 387.321 255.632 371.871L125.734 242.621Z" fill="white"/>
</mask>
<g mask="url(#mask2_22_2792)">
<path d="M-31.305 350.861C-7.14515 342.415 18.3057 338.913 43.8488 340.51C45.6624 340.633 45.6624 337.807 43.8488 337.685C18.0906 336.057 -7.66769 339.62 -32.0427 348.128C-33.7641 348.742 -33.0264 351.445 -31.305 350.861Z" fill="#C9C7C5"/>
</g>
<mask id="mask3_22_2792" style="mask-type:luminance" maskUnits="userSpaceOnUse" x="-97" y="242" width="353" height="212">
<path d="M125.734 242.621C99.1769 260.989 55.4678 291.52 39.0538 317.198C-5.48521 311.055 -51.4689 311.208 -96.5305 317.72C-43.139 355.899 4.2894 400.221 44.2793 449.243C45.3551 450.564 46.5231 451.946 48.2444 452.622C50.7342 453.604 53.7158 452.806 56.3899 452.069C91.2773 442.363 127.763 439.291 163.911 436.281C188.778 409.497 220.345 387.321 255.632 371.871L125.734 242.621Z" fill="white"/>
</mask>
<g mask="url(#mask3_22_2792)">
<path d="M-20.6081 361.49C2.35301 352.582 27.1584 349.756 51.6257 348.866C53.4392 348.804 53.4392 345.978 51.6257 346.071C26.9432 346.992 1.83047 349.818 -21.3458 358.817C-23.0364 359.432 -22.2987 362.135 -20.6081 361.49Z" fill="#C9C7C5"/>
</g>
<mask id="mask4_22_2792" style="mask-type:luminance" maskUnits="userSpaceOnUse" x="-97" y="242" width="353" height="212">
<path d="M125.734 242.621C99.1769 260.989 55.4678 291.52 39.0538 317.198C-5.48521 311.055 -51.4689 311.208 -96.5305 317.72C-43.139 355.899 4.2894 400.221 44.2793 449.243C45.3551 450.564 46.5231 451.946 48.2444 452.622C50.7342 453.604 53.7158 452.806 56.3899 452.069C91.2773 442.363 127.763 439.291 163.911 436.281C188.778 409.497 220.345 387.321 255.632 371.871L125.734 242.621Z" fill="white"/>
</mask>
<g mask="url(#mask4_22_2792)">
<path d="M-3.85622 371.472C18.0598 362.104 41.9738 360.015 65.4575 358.111C67.2403 357.957 67.271 355.162 65.4575 355.285C41.4205 357.251 17.1377 359.432 -5.27016 369.046C-6.93 369.752 -5.48533 372.179 -3.85622 371.472Z" fill="#C9C7C5"/>
</g>
<mask id="mask5_22_2792" style="mask-type:luminance" maskUnits="userSpaceOnUse" x="-97" y="242" width="353" height="212">
<path d="M125.734 242.621C99.1769 260.989 55.4678 291.52 39.0538 317.198C-5.48521 311.055 -51.4689 311.208 -96.5305 317.72C-43.139 355.899 4.2894 400.221 44.2793 449.243C45.3551 450.564 46.5231 451.946 48.2444 452.622C50.7342 453.604 53.7158 452.806 56.3899 452.069C91.2773 442.363 127.763 439.291 163.911 436.281C188.778 409.497 220.345 387.321 255.632 371.871L125.734 242.621Z" fill="white"/>
</mask>
<g mask="url(#mask5_22_2792)">
<path d="M10.314 386.737C32.8755 378.351 56.3899 373.038 80.3654 370.949C82.1482 370.795 82.1789 367.97 80.3654 368.123C56.144 370.243 32.353 375.526 9.54556 384.003C7.88572 384.648 8.62343 387.351 10.314 386.737Z" fill="#C9C7C5"/>
</g>
<mask id="mask6_22_2792" style="mask-type:luminance" maskUnits="userSpaceOnUse" x="-97" y="242" width="353" height="212">
<path d="M125.734 242.621C99.1769 260.989 55.4678 291.52 39.0538 317.198C-5.48521 311.055 -51.4689 311.208 -96.5305 317.72C-43.139 355.899 4.2894 400.221 44.2793 449.243C45.3551 450.564 46.5231 451.946 48.2444 452.622C50.7342 453.604 53.7158 452.806 56.3899 452.069C91.2773 442.363 127.763 439.291 163.911 436.281C188.778 409.497 220.345 387.321 255.632 371.871L125.734 242.621Z" fill="white"/>
</mask>
<g mask="url(#mask6_22_2792)">
<path d="M26.2976 400.252C45.9083 393.033 65.8264 385.846 86.974 385.201C88.7876 385.14 88.7876 382.345 86.974 382.375C65.5805 383.02 45.4166 390.208 25.5599 397.518C23.8694 398.163 24.6071 400.897 26.2976 400.252Z" fill="#C9C7C5"/>
</g>
<mask id="mask7_22_2792" style="mask-type:luminance" maskUnits="userSpaceOnUse" x="-97" y="242" width="353" height="212">
<path d="M125.734 242.621C99.1769 260.989 55.4678 291.52 39.0538 317.198C-5.48521 311.055 -51.4689 311.208 -96.5305 317.72C-43.139 355.899 4.2894 400.221 44.2793 449.243C45.3551 450.564 46.5231 451.946 48.2444 452.622C50.7342 453.604 53.7158 452.806 56.3899 452.069C91.2773 442.363 127.763 439.291 163.911 436.281C188.778 409.497 220.345 387.321 255.632 371.871L125.734 242.621Z" fill="white"/>
</mask>
<g mask="url(#mask7_22_2792)">
<path d="M40.2218 413.398C47.5066 407.808 58.9718 407.285 67.7014 405.473C78.3366 403.262 89.1871 400.375 100.068 402.31C101.851 402.617 102.589 399.914 100.806 399.607C89.9555 397.672 79.351 400.19 68.7465 402.402C63.06 403.569 57.3427 404.736 51.6562 405.934C47.0148 406.917 42.6193 408.023 38.8079 410.971C37.3939 412.077 38.7771 414.504 40.2218 413.398Z" fill="#C9C7C5"/>
</g>
<mask id="mask8_22_2792" style="mask-type:luminance" maskUnits="userSpaceOnUse" x="-97" y="242" width="353" height="212">
<path d="M125.734 242.621C99.1769 260.989 55.4678 291.52 39.0538 317.198C-5.48521 311.055 -51.4689 311.208 -96.5305 317.72C-43.139 355.899 4.2894 400.221 44.2793 449.243C45.3551 450.564 46.5231 451.946 48.2444 452.622C50.7342 453.604 53.7158 452.806 56.3899 452.069C91.2773 442.363 127.763 439.291 163.911 436.281C188.778 409.497 220.345 387.321 255.632 371.871L125.734 242.621Z" fill="white"/>
</mask>
<g mask="url(#mask8_22_2792)">
<path d="M50.765 428.357C72.0048 417.299 95.8881 414.074 119.31 411.064C121.093 410.849 121.093 408.023 119.31 408.238C95.3348 411.31 71.0212 414.627 49.3204 425.93C47.7527 426.76 49.1667 429.186 50.765 428.357Z" fill="#C9C7C5"/>
</g>
<mask id="mask9_22_2792" style="mask-type:luminance" maskUnits="userSpaceOnUse" x="-97" y="242" width="353" height="212">
<path d="M125.734 242.621C99.1769 260.989 55.4678 291.52 39.0538 317.198C-5.48521 311.055 -51.4689 311.208 -96.5305 317.72C-43.139 355.899 4.2894 400.221 44.2793 449.243C45.3551 450.564 46.5231 451.946 48.2444 452.622C50.7342 453.604 53.7158 452.806 56.3899 452.069C91.2773 442.363 127.763 439.291 163.911 436.281C188.778 409.497 220.345 387.321 255.632 371.871L125.734 242.621Z" fill="white"/>
</mask>
<g mask="url(#mask9_22_2792)">
<path d="M74.4638 325.184C92.2917 306.201 111.257 286.39 136.892 278.619C138.614 278.097 137.876 275.394 136.155 275.916C110.027 283.841 90.6626 303.867 72.4658 323.218C71.2363 324.508 73.2035 326.504 74.4638 325.184Z" fill="#C9C7C5"/>
</g>
<mask id="mask10_22_2792" style="mask-type:luminance" maskUnits="userSpaceOnUse" x="-97" y="242" width="353" height="212">
<path d="M125.734 242.621C99.1769 260.989 55.4678 291.52 39.0538 317.198C-5.48521 311.055 -51.4689 311.208 -96.5305 317.72C-43.139 355.899 4.2894 400.221 44.2793 449.243C45.3551 450.564 46.5231 451.946 48.2444 452.622C50.7342 453.604 53.7158 452.806 56.3899 452.069C91.2773 442.363 127.763 439.291 163.911 436.281C188.778 409.497 220.345 387.321 255.632 371.871L125.734 242.621Z" fill="white"/>
</mask>
<g mask="url(#mask10_22_2792)">
<path d="M87.2506 333.846C101.421 313.727 124.167 302.7 145.806 292.411C147.435 291.643 146.021 289.216 144.392 289.984C122.23 300.52 99.3306 311.854 84.8224 332.402C83.7773 333.907 86.2056 335.32 87.2506 333.846Z" fill="#C9C7C5"/>
</g>
<mask id="mask11_22_2792" style="mask-type:luminance" maskUnits="userSpaceOnUse" x="-97" y="242" width="353" height="212">
<path d="M125.734 242.621C99.1769 260.989 55.4678 291.52 39.0538 317.198C-5.48521 311.055 -51.4689 311.208 -96.5305 317.72C-43.139 355.899 4.2894 400.221 44.2793 449.243C45.3551 450.564 46.5231 451.946 48.2444 452.622C50.7342 453.604 53.7158 452.806 56.3899 452.069C91.2773 442.363 127.763 439.291 163.911 436.281C188.778 409.497 220.345 387.321 255.632 371.871L125.734 242.621Z" fill="white"/>
</mask>
<g mask="url(#mask11_22_2792)">
<path d="M100.868 343.921C106.892 334.092 116.114 327.211 125.734 321.16C135.847 314.833 146.359 309.212 157.21 304.206C158.839 303.438 157.425 301.011 155.796 301.779C144.054 307.216 132.589 313.359 121.708 320.393C112.609 326.29 104.157 333.139 98.4393 342.508C97.4864 344.074 99.9147 345.487 100.868 343.921Z" fill="#C9C7C5"/>
</g>
<mask id="mask12_22_2792" style="mask-type:luminance" maskUnits="userSpaceOnUse" x="-97" y="242" width="353" height="212">
<path d="M125.734 242.621C99.1769 260.989 55.4678 291.52 39.0538 317.198C-5.48521 311.055 -51.4689 311.208 -96.5305 317.72C-43.139 355.899 4.2894 400.221 44.2793 449.243C45.3551 450.564 46.5231 451.946 48.2444 452.622C50.7342 453.604 53.7158 452.806 56.3899 452.069C91.2773 442.363 127.763 439.291 163.911 436.281C188.778 409.497 220.345 387.321 255.632 371.871L125.734 242.621Z" fill="white"/>
</mask>
<g mask="url(#mask12_22_2792)">
<path d="M111.134 354.486C130.437 339.036 151.769 326.35 174.546 316.675C176.206 315.969 174.761 313.542 173.132 314.249C150.11 324.016 128.655 336.886 109.136 352.489C107.722 353.626 109.72 355.622 111.134 354.486Z" fill="#C9C7C5"/>
</g>
<mask id="mask13_22_2792" style="mask-type:luminance" maskUnits="userSpaceOnUse" x="-97" y="242" width="353" height="212">
<path d="M125.734 242.621C99.1769 260.989 55.4678 291.52 39.0538 317.198C-5.48521 311.055 -51.4689 311.208 -96.5305 317.72C-43.139 355.899 4.2894 400.221 44.2793 449.243C45.3551 450.564 46.5231 451.946 48.2444 452.622C50.7342 453.604 53.7158 452.806 56.3899 452.069C91.2773 442.363 127.763 439.291 163.911 436.281C188.778 409.497 220.345 387.321 255.632 371.871L125.734 242.621Z" fill="white"/>
</mask>
<g mask="url(#mask13_22_2792)">
<path d="M123.429 367.448C141.503 354.579 160.13 341.555 182.138 336.61C183.89 336.211 183.153 333.508 181.401 333.907C159.146 338.914 140.304 352.029 122.015 365.022C120.54 366.066 121.923 368.493 123.429 367.448Z" fill="#C9C7C5"/>
</g>
<mask id="mask14_22_2792" style="mask-type:luminance" maskUnits="userSpaceOnUse" x="-97" y="242" width="353" height="212">
<path d="M125.734 242.621C99.1769 260.989 55.4678 291.52 39.0538 317.198C-5.48521 311.055 -51.4689 311.208 -96.5305 317.72C-43.139 355.899 4.2894 400.221 44.2793 449.243C45.3551 450.564 46.5231 451.946 48.2444 452.622C50.7342 453.604 53.7158 452.806 56.3899 452.069C91.2773 442.363 127.763 439.291 163.911 436.281C188.778 409.497 220.345 387.321 255.632 371.871L125.734 242.621Z" fill="white"/>
</mask>
<g mask="url(#mask14_22_2792)">
<path d="M142.21 380.409C160.437 366.557 180.909 356.114 202.825 349.51C204.546 348.988 203.808 346.285 202.087 346.807C179.925 353.472 159.208 363.977 140.796 377.983C139.351 379.058 140.765 381.515 142.21 380.409Z" fill="#C9C7C5"/>
</g>
<mask id="mask15_22_2792" style="mask-type:luminance" maskUnits="userSpaceOnUse" x="-97" y="242" width="353" height="212">
<path d="M125.734 242.621C99.1769 260.989 55.4678 291.52 39.0538 317.198C-5.48521 311.055 -51.4689 311.208 -96.5305 317.72C-43.139 355.899 4.2894 400.221 44.2793 449.243C45.3551 450.564 46.5231 451.946 48.2444 452.622C50.7342 453.604 53.7158 452.806 56.3899 452.069C91.2773 442.363 127.763 439.291 163.911 436.281C188.778 409.497 220.345 387.321 255.632 371.871L125.734 242.621Z" fill="white"/>
</mask>
<g mask="url(#mask15_22_2792)">
<path d="M-53.4362 334.183C-33.5795 331.296 -13.5693 329.484 6.47178 328.746C15.6316 328.409 24.8222 328.316 34.0128 328.439C40.8059 328.531 49.0129 330.651 54.2998 325.337C60.4473 319.163 66.0416 312.375 72.1891 306.201C78.0601 300.304 84.1154 294.622 90.3552 289.093C103.972 277.053 118.419 265.995 133.542 255.89C135.048 254.876 133.634 252.45 132.128 253.463C103.911 272.322 78.0293 294.622 55.3756 319.931C54.1153 321.344 52.9166 323.095 51.4104 324.262C48.8284 326.289 46.185 325.921 43.2034 325.829C38.9309 325.706 34.6276 325.614 30.355 325.583C20.5804 325.521 10.7751 325.706 1.00046 326.136C-17.4729 326.996 -35.8541 328.777 -54.1739 331.449C-55.9566 331.726 -55.1882 334.429 -53.4362 334.183Z" fill="#ACA9A5"/>
</g>
<path d="M173.193 445.834C168.859 447.094 164.525 448.476 160.161 449.643C159.7 449.766 157.702 450.595 157.271 450.319C156.042 449.428 157.548 447.984 158.04 447.493C159.638 445.834 163.48 445.435 165.663 445.312C167.015 445.22 167.015 443.131 165.663 443.193C162.927 443.346 150.632 446.141 153.675 451.056C154.689 452.714 157.21 452.53 158.839 452.223C163.849 451.209 168.829 449.336 173.747 447.892C175.038 447.493 174.484 445.466 173.193 445.834Z" fill="#3F3C36"/>
<path d="M125.95 446.878C99.2078 451.578 73.2958 459.871 48.7978 471.573C49.3511 471.635 49.9351 471.727 50.4884 471.788C14.9863 434.5 -22.2987 398.963 -61.2434 365.299C-62.5959 364.131 -64.5938 366.097 -63.2414 367.295C-24.2966 400.959 12.9883 436.497 48.4904 473.785C48.9515 474.276 49.6277 474.276 50.181 474C74.4639 462.39 100.161 454.25 126.657 449.581C128.501 449.274 127.732 446.571 125.95 446.878Z" fill="#3F3C36"/>
<path d="M153.152 424.794C122.261 385.325 84.9453 351.262 43.1726 323.587C42.0353 322.85 40.9902 324.662 42.0968 325.399C83.7157 352.982 120.878 386.953 151.677 426.268C152.476 427.374 153.982 425.869 153.152 424.794Z" fill="#3F3C36"/>
<path d="M-63.4569 345.823C-23.6514 378.259 14.6786 412.414 51.5024 448.197C52.7934 449.457 54.7914 447.46 53.5004 446.201C16.7073 410.417 -21.6535 376.262 -61.4589 343.827C-62.8421 342.69 -64.8708 344.687 -63.4569 345.823Z" fill="#3F3C36"/>
<path d="M54.2383 448.781C65.5498 447.122 76.892 445.863 88.2957 444.972C90.0785 444.819 90.1093 442.024 88.2957 442.147C76.6461 443.037 65.058 444.358 53.4698 446.047C51.7178 446.354 52.4555 449.057 54.2383 448.781Z" fill="#3F3C36"/>
<path d="M212.2 141.505C206.667 133.519 216.749 122.769 222.251 117.517C228.306 111.742 235.591 107.258 243.398 104.278C258.091 98.6574 274.72 98.2274 289.413 104.125C298.081 107.596 305.827 111.865 315.417 109.316C323.563 107.135 331.032 102.282 338.163 97.951C353.009 88.9207 368.163 80.4432 386.083 84.9277C413.747 91.8693 433.389 118.561 462.774 120.527C480.909 121.755 500.766 108.609 517.795 118.991C530.182 126.516 535.776 141.29 547.241 149.952C560.059 159.597 580.438 158.184 590.459 144.976C594.239 140 596.698 131.646 591.104 126.946C587.078 123.568 580.254 123.506 577.641 128.543C576.811 130.141 579.239 131.584 580.069 129.956C582.19 125.871 588.369 126.946 590.551 130.478C593.809 135.669 589.444 142.611 585.602 146.082C579.086 152.01 569.68 154.529 561.043 153.023C545.704 150.321 538.297 135.454 528.799 124.888C524.711 120.312 519.915 116.227 514.075 114.046C506.299 111.159 497.969 112.141 490.038 113.739C481.032 115.551 472.057 118.315 462.743 117.67C455.458 117.179 448.45 114.814 441.903 111.681C418.819 100.654 397.21 77.4024 369.516 81.0575C353.378 83.1769 340.376 93.9887 326.483 101.452C322.241 103.725 317.815 105.968 313.05 106.951C306.933 108.21 301.37 106.244 295.837 103.848C289.198 100.961 282.681 98.5346 275.427 97.5824C259.782 95.5245 243.46 99.3331 230.15 107.78C220.96 113.616 201.011 130.356 209.71 142.918C210.816 144.392 213.245 142.98 212.2 141.505Z" fill="#3F3C36"/>
<path d="M372.897 274.718C389.495 281.568 400.223 296.342 403.327 313.727C404.587 320.791 405.755 328.716 411.841 333.415C417.067 337.469 423.921 337.623 430.223 337.715C439.598 337.869 448.112 338.79 454.721 346.254C460.899 353.196 462.743 361.827 463.266 370.826C463.665 377.891 464.126 385.908 469.813 390.945C473.87 394.539 479.588 395.951 484.905 395.276C491.206 394.477 497.2 390.484 499.014 384.157C500.827 377.829 496.432 370.826 489.362 372.546C487.61 372.976 488.348 375.679 490.1 375.249C498.614 373.161 496.954 384.648 493.358 388.334C490.868 390.883 487.364 392.296 483.829 392.573C477.067 393.156 470.674 389.839 468.092 383.45C465.233 376.386 466.585 368.4 465.049 361.059C463.85 355.315 461.329 349.786 457.579 345.24C453.768 340.602 448.665 337.162 442.764 335.842C436.432 334.429 429.915 335.227 423.522 334.613C414.762 333.722 409.598 328.808 407.507 320.361C405.848 313.665 405.294 306.938 402.62 300.55C397.18 287.557 386.667 277.36 373.696 271.984C371.975 271.309 371.237 274.012 372.897 274.718Z" fill="#3F3C36"/>
<path d="M-8.25167 310.194C-14.7681 304.451 -11.7558 292.502 -4.47092 288.11C2.84467 283.718 12.189 284.977 20.3345 287.649C12.8037 283.81 10.6828 272.323 15.7238 265.534C20.7648 258.746 31.1542 257.487 38.2853 262.094C33.2136 259.115 32.1378 250.914 36.2566 246.798C40.0681 242.959 46.2157 243.235 51.5333 244.218C67.5477 247.228 82.7936 254.723 95.181 265.688C96.2568 266.64 97.3941 267.93 97.0252 269.312C96.7486 270.295 95.765 270.879 94.8736 271.309C82.1174 277.391 66.3797 276.531 54.1153 269.097C61.2464 271.616 68.3161 274.288 75.3551 277.053C80.8264 279.203 87.435 284.148 85.099 289.585C83.8387 292.533 80.4268 293.67 77.3838 294.438C60.8469 298.492 43.5415 299.413 26.605 297.171C39.5763 299.383 52.3018 303.437 64.228 309.242C66.1645 310.194 68.3161 311.485 68.685 313.635C69.1461 316.338 66.5641 318.457 64.1665 319.593C52.855 324.876 39.6378 322.757 27.3119 320.515C15.9697 318.457 1.33852 312.652 -8.25167 310.194Z" fill="#C9C7C5"/>
<path d="M12.4655 287.986C18.5516 291.764 24.8835 295.051 31.4614 297.877C33.1213 298.583 34.5352 296.157 32.8754 295.45C26.2975 292.655 19.9655 289.338 13.8794 285.56C12.3425 284.577 10.9286 287.004 12.4655 287.986Z" fill="#3F3C36"/>
<path d="M31.7689 259.973C47.7218 268.574 64.7813 274.747 82.5785 278.249C84.3613 278.587 85.099 275.884 83.3162 275.546C65.7649 272.075 48.9514 266.055 33.1829 257.547C31.5845 256.687 30.1706 259.113 31.7689 259.973Z" fill="#3F3C36"/>
<path d="M66.2566 275.731C67.4247 283.655 75.6931 288.908 83.3776 287.003C85.1296 286.573 84.3919 283.87 82.6399 284.3C76.3079 285.867 69.9452 281.352 68.9923 274.993C68.6849 273.181 65.98 273.949 66.2566 275.731Z" fill="#3F3C36"/>
<path d="M78.7055 257.978C81.6563 264.828 89.0027 269.005 96.4105 268.022C98.1933 267.777 98.1933 264.982 96.4105 265.227C89.8633 266.087 83.7465 262.647 81.1338 256.566C80.4268 254.876 77.9985 256.32 78.7055 257.978Z" fill="#3F3C36"/>
<path d="M48.3979 308.013C53.2852 313.757 60.693 316.214 68.0701 314.77C69.8529 314.432 69.0844 311.699 67.3324 312.067C60.8775 313.327 54.6377 311.023 50.3959 306.047C49.1971 304.665 47.2299 306.661 48.3979 308.013Z" fill="#3F3C36"/>
<path d="M409.659 546.21C404.649 540.129 335.489 456 330.448 449.887C305.489 419.602 276.319 393.648 246.564 368.062C216.441 342.169 172.333 335.073 136.462 351.015C134.833 351.721 130.99 355.683 130.068 357.188C128.132 360.321 130.652 364.683 134.126 365.942C137.599 367.202 141.441 366.28 144.945 365.205C150.847 363.424 156.749 361.243 162.896 361.335C169.044 361.427 175.652 364.407 177.927 370.12C176.144 376.57 167.107 376.662 160.499 375.495C136.615 371.225 112.056 365.973 87.8039 365.113C82.0866 364.929 74.6173 369.536 74.9862 375.249C75.2321 378.843 78.8899 381.085 82.1481 382.651C101.82 392.05 123.091 396.197 144.208 401.572C127.117 396.412 109.382 394.538 92.2916 389.378C87.6809 387.996 81.6256 385.354 76.8919 385.999C72.1276 386.644 67.394 389.962 66.687 394.723C66.0722 398.931 68.8079 403.046 72.3735 405.381C75.9391 407.715 81.5026 409.896 85.6522 410.848C104.648 415.24 123.275 421.322 141.226 428.939C126.411 423.994 111.103 420.523 95.6112 418.558C90.5088 417.913 84.6379 417.698 81.0723 421.414C76.8612 425.837 78.6747 433.547 83.1624 437.693C87.6502 441.84 93.8284 443.406 99.6994 445.096C145.468 458.242 179.894 463.279 260.95 586.97L409.659 546.21Z" fill="#C9C7C5"/>
<path d="M67.5784 396.442C75.0169 397.025 81.5333 401.848 84.2075 408.82C84.853 410.479 87.5579 409.772 86.9125 408.083C83.7465 399.851 76.3694 394.322 67.5784 393.647C65.7649 393.493 65.7956 396.288 67.5784 396.442Z" fill="#3F3C36"/>
<path d="M77.5991 375.31C84.3921 374.419 90.97 378.351 93.1216 384.924C93.6749 386.644 96.4106 385.907 95.8266 384.187C93.3061 376.539 85.6524 371.471 77.5991 372.515C75.8163 372.73 75.8163 375.556 77.5991 375.31Z" fill="#3F3C36"/>
<path d="M79.5354 426.851C85.2834 427.312 90.5703 430.322 93.9514 435.021C95.3654 436.987 96.4719 439.198 97.056 441.533C97.4863 443.222 97.2096 445.096 98.4392 446.386C98.9002 446.877 99.5765 446.847 100.13 446.601C100.744 446.324 101.021 445.925 101.144 445.28C101.267 444.666 101.052 443.99 100.499 443.683C100.437 443.652 100.345 443.591 100.283 443.56C98.6851 442.669 97.2711 445.096 98.8695 445.987C98.931 446.017 99.0232 446.079 99.0846 446.109C98.8695 445.587 98.6543 445.065 98.4392 444.512C98.5314 444.389 98.6236 444.266 98.7158 444.144C99.2691 444.205 99.8531 444.297 100.406 444.359C99.9146 443.836 99.9146 441.41 99.7301 440.734C99.4228 439.567 99.0232 438.431 98.5314 437.325C97.3633 434.714 95.6728 432.349 93.6441 430.383C89.7711 426.605 84.8838 424.424 79.5047 423.994C77.7219 423.902 77.7526 426.728 79.5354 426.851Z" fill="#3F3C36"/>
<path d="M132.189 357.865C136.646 357.865 140.95 357.619 144.546 354.67C147.497 352.274 149.126 348.804 148.081 345.087C147.589 343.336 144.884 344.073 145.376 345.824C146.298 349.049 144.177 351.844 141.472 353.411C138.644 355.069 135.386 355.039 132.189 355.039C130.376 355.039 130.376 357.865 132.189 357.865Z" fill="#3F3C36"/>
<path d="M111.902 421.905C122.599 425.561 132.958 429.984 143.04 435.082C144.638 435.912 146.083 433.485 144.454 432.656C134.187 427.403 123.583 422.919 112.64 419.172C110.949 418.619 110.212 421.322 111.902 421.905Z" fill="#3F3C36"/>
<path d="M103.818 392.235C121.984 397.119 140.181 402.003 158.347 406.886C160.099 407.347 160.837 404.644 159.085 404.183C140.919 399.3 122.722 394.416 104.556 389.532C102.804 389.041 102.066 391.744 103.818 392.235Z" fill="#3F3C36"/>
<path d="M154.505 458.734C155.857 455.324 157.763 452.191 160.161 449.427C161.329 448.075 159.361 446.079 158.163 447.43C155.427 450.594 153.306 454.096 151.769 457.966C151.124 459.686 153.859 460.392 154.505 458.734Z" fill="white"/>
<path d="M167.569 434.683C169.843 430.935 171.626 426.942 172.948 422.765C173.501 421.045 170.765 420.308 170.243 422.028C169.013 425.99 167.292 429.737 165.14 433.27C164.218 434.805 166.646 436.218 167.569 434.683Z" fill="white"/>
<path d="M177.65 406.794C179.648 402.401 181.646 398.009 183.614 393.617C184.351 391.989 181.923 390.545 181.185 392.204C179.187 396.596 177.189 400.988 175.222 405.35C174.485 407.009 176.882 408.422 177.65 406.794Z" fill="white"/>
<path d="M204.7 364.315C207.681 361.366 209.925 357.926 211.462 354.056C212.138 352.366 209.402 351.66 208.757 353.319C207.405 356.759 205.345 359.769 202.702 362.349C201.441 363.578 203.409 365.574 204.7 364.315Z" fill="white"/>
<path d="M222.435 296.863C220.499 294.467 216.933 294.098 214.505 296.033L123.46 369.75C123.368 369.812 123.306 369.904 123.245 369.965C127.732 371.409 132.251 372.514 136.769 373.467L221.606 304.787C224.003 302.852 224.403 299.289 222.435 296.863Z" fill="#3F3C36"/>
<path d="M192.989 336.64C203.286 328.378 213.583 320.085 223.849 311.822C224.618 311.208 224.218 310.071 223.573 309.611C221.144 307.891 219.362 306.048 217.702 303.59C216.687 302.116 214.259 303.498 215.274 305.003C217.179 307.798 219.392 310.071 222.159 312.037C222.067 311.3 221.974 310.563 221.882 309.826C211.585 318.088 201.288 326.381 191.021 334.644C189.577 335.811 191.575 337.777 192.989 336.64Z" fill="#3F3C36"/>
</svg>
