<svg width="375" height="511" viewBox="0 0 375 511" fill="none" xmlns="http://www.w3.org/2000/svg">
<path d="M207.5 70.0825C214.3 56.4064 224.628 44.9672 237.545 36.8581C238.813 36.0701 237.646 34.0619 236.377 34.8499C223.131 43.1624 212.473 54.8811 205.495 68.9132C204.81 70.2605 206.814 71.4298 207.5 70.0825Z" fill="white"/>
<path d="M285.454 248.152C287.89 214.496 265.255 181.271 236.631 167.163C233.611 165.689 230.414 168.815 231.505 172.171C232.342 174.713 233.915 177.179 235.59 179.212C237.823 181.932 242.112 185.974 244.573 189.914C245.842 191.948 244.066 194.566 241.858 193.905C223.613 188.364 206.966 178.501 206.966 178.501C198.719 172.578 188.594 167.341 181.134 165.841C177.429 165.104 174.815 169.527 177.023 172.806C180.296 177.687 184.534 183.28 187.376 184.424C182.834 183.712 178.418 178.78 173.521 180.433C171.491 181.119 169.968 183.076 169.943 185.389C169.867 192.202 181.666 192.99 184.204 199.193C181.108 198.379 174.536 197.185 171.465 196.32C171.389 196.295 171.313 196.269 171.212 196.244C164.715 194.49 161.746 204.506 167.938 207.276L198.389 220.927C201.967 222.529 200.495 228.274 196.664 227.638L178.063 224.562C175.779 224.232 173.495 225.503 172.683 227.816C171.11 232.214 176.287 234.756 180.118 236.256C190.497 240.323 198.719 250.339 201.13 261.905C201.587 264.091 212.904 433.037 213.031 435.198C215.721 476.887 274.289 501.164 297 456.5L285.454 248.152Z" fill="#F6A460"/>
<path d="M229.323 224.537C235.236 228.808 242.975 232.85 246.731 239.306C250.309 245.458 250.918 252.906 251.502 259.821C251.628 261.295 253.938 261.321 253.811 259.821C253.202 252.474 252.491 244.645 248.71 238.137C244.726 231.274 236.707 227.054 230.465 222.529C229.298 221.639 228.13 223.648 229.323 224.537Z" fill="#4F3422"/>
<path d="M243.94 172.223C240.946 171.841 238.485 169.884 237.038 167.266C236.302 165.969 234.298 167.139 235.033 168.435C236.911 171.816 240.109 174.053 243.94 174.536C245.438 174.739 245.412 172.401 243.94 172.223Z" fill="#4F3422"/>
<path d="M212.118 197.184C202.83 191.591 193.543 185.999 184.255 180.406C182.961 179.644 181.794 181.652 183.088 182.414C192.376 188.007 201.663 193.599 210.951 199.192C212.219 199.954 213.412 197.946 212.118 197.184Z" fill="#4F3422"/>
<path d="M208.007 209.081C198.923 205.573 190.117 201.48 181.565 196.828C180.246 196.116 179.079 198.125 180.398 198.836C189.127 203.59 198.136 207.759 207.398 211.318C208.794 211.852 209.377 209.615 208.007 209.081Z" fill="#4F3422"/>
<path d="M232.165 197.139C230.11 199.248 228.587 201.689 227.496 204.409C226.938 205.807 229.196 206.392 229.729 205.019C230.668 202.68 232.038 200.57 233.815 198.765C234.855 197.723 233.206 196.071 232.165 197.139Z" fill="white"/>
<path d="M221.584 209.437C219.858 211.42 218.158 213.402 216.433 215.36C215.468 216.478 217.093 218.131 218.082 217.012C219.808 215.029 221.508 213.047 223.233 211.089C224.198 209.945 222.548 208.293 221.584 209.437Z" fill="white"/>
<path d="M204.912 233.078C204.303 235.137 203.364 237.018 202.095 238.772C201.207 239.992 203.237 241.136 204.1 239.941C205.47 238.035 206.485 235.925 207.145 233.688C207.576 232.264 205.343 231.654 204.912 233.078Z" fill="white"/>
<path d="M173.927 257.912C188.898 230.077 182.275 192.988 163.218 169.932C161.213 167.492 157.255 168.966 156.925 172.245C156.671 174.736 157.077 177.456 157.711 179.846C158.574 183.023 160.68 188.133 161.289 192.454C161.594 194.691 159.082 196.242 157.458 194.819C143.983 183.074 133.528 168.229 133.528 168.229C128.732 159.993 122.084 151.629 116.298 147.486C113.43 145.427 109.472 148.198 110.106 151.858C111.045 157.298 112.517 163.704 114.522 165.763C110.918 163.424 109.04 157.501 104.219 157.018C102.214 156.815 100.159 157.934 99.2706 159.866C96.5807 165.661 106.376 170.873 106.173 177.151C103.838 175.27 98.687 171.737 96.3778 169.805C96.327 169.754 96.2509 169.703 96.2001 169.652C91.3279 165.661 84.9332 173.084 89.171 177.838L109.954 201.224C112.39 203.97 108.939 208.317 105.919 206.309L91.2011 196.547C89.374 195.378 86.9379 195.607 85.3646 197.259C82.3449 200.411 85.796 204.58 88.4858 207.325C95.8195 214.799 98.9915 226.518 96.6061 237.321C96.1494 239.381 -6.22928 463.419 -6.93981 465.3C-20.6174 501.956 33.484 526.462 69.9999 497L173.927 257.912Z" fill="#4F3422"/>
<path d="M134.874 216.097C138.325 222.096 143.502 228.655 144.162 235.696C144.796 242.28 142.436 248.864 140.305 254.965C139.797 256.388 142.056 256.999 142.538 255.575C144.898 248.839 147.334 241.645 146.344 234.425C145.355 227.358 140.355 220.978 136.879 214.928C136.143 213.631 134.138 214.801 134.874 216.097Z" fill="#4F3422"/>
<path d="M167.685 177.049C165.3 175.575 163.854 173.083 163.6 170.287C163.473 168.813 161.138 168.787 161.291 170.287C161.595 173.897 163.397 177.125 166.518 179.057C167.787 179.845 168.954 177.837 167.685 177.049Z" fill="#4F3422"/>
<path d="M130.891 186.198C125.08 177.86 119.295 169.497 113.484 161.159C112.646 159.939 110.616 161.108 111.479 162.328C117.29 170.666 123.076 179.029 128.887 187.367C129.724 188.587 131.729 187.443 130.891 186.198Z" fill="#4F3422"/>
<path d="M122.821 194.744C116.4 188.261 110.437 181.398 104.905 174.128C104.017 172.958 101.987 174.102 102.901 175.297C108.534 182.72 114.624 189.761 121.171 196.371C122.237 197.464 123.886 195.811 122.821 194.744Z" fill="#4F3422"/>
<path d="M147.993 193.731C145.43 194.748 143.146 196.197 141.141 198.128C140.076 199.171 141.7 200.823 142.791 199.781C144.466 198.154 146.42 196.832 148.602 195.993C149.998 195.434 149.389 193.171 147.993 193.731Z" fill="white"/>
<path d="M133.96 200.285C131.727 201.327 129.519 202.344 127.286 203.386C125.941 204.022 127.109 206.03 128.454 205.394C130.687 204.352 132.894 203.335 135.127 202.293C136.472 201.658 135.305 199.649 133.96 200.285Z" fill="white"/>
<path d="M110.868 213.937C109.548 215.462 108.051 216.733 106.3 217.75C105.006 218.487 106.173 220.495 107.467 219.758C109.371 218.665 111.071 217.267 112.492 215.589C113.481 214.445 111.832 212.793 110.868 213.937Z" fill="white"/>
<path d="M89.857 248.432C85.3401 247.288 81.1785 249.931 79.2499 254.075C77.1437 258.651 78.7424 263.76 81.1024 267.904C87.0657 278.402 96.5817 287.681 106.098 294.926C115.867 302.399 127.007 308.119 138.934 311.169C143.806 312.415 149.846 313.61 154.134 310.178C158.067 307.051 158.474 301.687 158.677 297.035C158.753 295.536 156.418 295.536 156.367 297.035C156.114 302.73 155.124 309.288 148.222 310.025C143.629 310.508 138.604 308.78 134.29 307.382C125.688 304.56 117.593 300.315 110.234 295.078C102.799 289.816 96.1249 283.512 90.2884 276.521C87.0403 272.632 83.4116 268.361 81.5845 263.557C79.5798 258.269 81.6606 248.711 89.248 250.643C90.6944 251.05 91.3035 248.813 89.857 248.432Z" fill="#ED7E1C"/>
<path d="M88.2081 257.125C80.773 257.1 69.1762 260.837 72.0944 270.7C73.2617 274.589 76.6875 277.36 79.9102 279.52C84.554 282.622 89.5784 285.291 94.679 287.579C114.32 296.4 137.031 299.933 158.347 296.273C162.433 295.586 167.127 294.112 168.98 289.994C170.477 286.689 169.665 282.723 166.442 280.868C165.148 280.131 163.981 282.139 165.275 282.876C168.447 284.706 167.685 289.028 165.249 291.138C163.346 292.815 160.707 293.451 158.271 293.908C153.17 294.849 147.867 295.179 142.69 295.256C132.591 295.383 122.491 294.112 112.747 291.519C102.977 288.926 93.5878 285.011 84.8839 279.851C80.9252 277.487 75.2918 274.462 74.1753 269.556C72.3482 261.472 82.5239 259.413 88.2081 259.438C89.7053 259.464 89.7053 257.125 88.2081 257.125Z" fill="#ED7E1C"/>
<path d="M303.573 30.1222C301.289 26.7159 298.929 23.7163 296.544 21.098C256.932 -30.3529 200.978 23.6654 184.738 62.457C182.149 58.3643 179.13 54.2208 178.419 53.0768C172.253 43.0612 165.579 33.6302 157.027 25.8516C148.983 18.5305 139.619 12.4296 129.621 8.81995C115.538 1.93102 99.8299 -0.458494 84.6805 5.41362C64.4812 13.2431 52.7576 33.7065 55.9549 56.7374C60.3703 88.64 79.5038 117.848 96.7086 143.37C117.618 174.434 175.831 221.741 175.831 221.741C176.719 221.284 177.582 220.826 178.47 220.343C179.459 221.182 179.992 221.639 179.992 221.639C211.839 205.726 242.848 178.959 266.727 148.378C288.068 121.051 326.158 63.7534 303.573 30.1222Z" fill="#C2B1FF"/>
<path d="M364.805 355.605C362.217 351.359 300.96 250.059 298.397 245.814C285.582 224.715 276.218 202.015 267.159 179.035C257.998 155.775 262.947 128.067 279.847 110.044C280.608 109.23 283.755 107.756 284.846 107.502C287.104 106.993 289.185 109.408 289.211 111.721C289.236 114.035 287.891 116.145 286.521 118C284.237 121.127 281.725 124.203 280.507 127.889C279.289 131.575 279.695 136.1 282.613 138.642C286.825 138.921 288.754 133.557 289.414 129.389C291.824 114.314 293.804 98.6044 298.321 84.0131C299.386 80.5814 303.7 77.0734 306.999 78.4715C309.08 79.3612 309.664 82.0049 309.917 84.2673C311.415 97.8927 309.486 111.416 308.293 125.092C308.775 113.882 311.338 102.926 311.821 91.7155C311.947 88.6905 311.643 84.547 313.013 81.8524C314.384 79.1578 317.352 77.0225 320.296 77.5818C322.935 78.0902 324.813 80.5814 325.447 83.1743C326.107 85.7672 326.234 89.5294 325.955 92.1985C324.635 104.4 324.382 116.729 325.194 128.982C325.346 119.144 326.437 109.332 328.493 99.7229C329.178 96.5708 330.269 93.012 333.187 91.6647C336.689 90.0632 340.901 92.7578 342.424 96.2658C343.972 99.7738 343.591 103.79 343.388 107.629C341.713 137.574 343.769 186.076 456.286 333.184L364.805 355.605Z" fill="#4F3422"/>
<path d="M319.154 77.8637C317.784 83.2274 319.458 88.8453 323.696 92.455C324.838 93.4209 326.488 91.794 325.346 90.8026C321.742 87.7014 320.22 83.1003 321.412 78.4738C321.768 77.0248 319.535 76.4147 319.154 77.8637Z" fill="white"/>
<path d="M304.638 79.185C302.227 84.0403 303.598 89.7091 307.886 93.0137C309.079 93.9289 310.221 91.8952 309.053 91.0055C305.831 88.5143 304.866 83.9895 306.643 80.3544C307.302 79.0071 305.298 77.8378 304.638 79.185Z" fill="white"/>
<path d="M334.734 91.2575C333.871 94.613 334.176 98.0448 335.673 101.197C336.434 102.798 337.5 104.298 338.794 105.518C339.657 106.357 342.169 107.247 342.601 108.111C342.728 107.577 342.88 107.044 343.007 106.51C342.931 106.561 342.829 106.611 342.753 106.662C343.286 106.789 343.819 106.942 344.352 107.069C344.301 107.018 344.275 106.942 344.225 106.891C343.387 105.671 341.357 106.84 342.22 108.06C342.271 108.111 342.296 108.188 342.347 108.238C342.702 108.747 343.362 109.001 343.946 108.645C344.022 108.594 344.123 108.543 344.199 108.493C344.758 108.162 344.91 107.476 344.605 106.891C344.225 106.128 343.641 106.001 342.931 105.595C341.256 104.603 339.835 103.434 338.743 101.807C336.739 98.8582 336.13 95.274 336.993 91.8168C337.348 90.4187 335.115 89.8086 334.734 91.2575Z" fill="white"/>
<path d="M325.016 110.02C324.991 117.316 325.473 124.561 326.463 131.805C326.666 133.28 328.899 132.644 328.696 131.195C327.757 124.179 327.3 117.138 327.326 110.046C327.351 108.52 325.016 108.52 325.016 110.02Z" fill="white"/>
<path d="M309.054 99.0589C308.191 110.879 307.328 122.7 306.44 134.52C306.339 136.02 308.648 135.995 308.775 134.52C309.638 122.7 310.5 110.879 311.389 99.0589C311.49 97.5845 309.155 97.5845 309.054 99.0589Z" fill="white"/>
<path d="M340.165 140.978C337.576 141.08 335.115 141.588 332.704 142.554C331.334 143.088 331.943 145.351 333.313 144.791C335.521 143.902 337.779 143.393 340.139 143.292C341.662 143.241 341.662 140.902 340.165 140.978Z" fill="white"/>
<path d="M322.631 143.825C320.094 144.359 317.556 144.588 314.968 144.512C313.47 144.461 313.47 146.8 314.968 146.825C317.759 146.901 320.525 146.647 323.24 146.062C324.687 145.757 324.078 143.52 322.631 143.825Z" fill="white"/>
<path d="M304.283 144.007C301.264 144.287 298.244 144.566 295.224 144.846C293.752 144.973 293.727 147.312 295.224 147.159C298.244 146.88 301.264 146.6 304.283 146.32C305.755 146.193 305.755 143.88 304.283 144.007Z" fill="white"/>
<path d="M272.614 151.556C270.584 152.547 268.402 153.106 266.144 153.208C264.646 153.284 264.646 155.597 266.144 155.521C268.833 155.394 271.371 154.733 273.782 153.538C275.127 152.903 273.959 150.895 272.614 151.556Z" fill="white"/>
<path d="M276.066 116.628C281.395 118.992 287.155 114.29 285.404 108.545C284.973 107.121 282.715 107.731 283.171 109.155C284.262 112.764 280.837 116.222 277.259 114.62C275.888 114.035 274.696 116.018 276.066 116.628Z" fill="white"/>
<path d="M409.232 436L308.851 274.588L391.145 225.934L503.448 392.4L409.232 436Z" fill="#C2B1FF"/>
<path d="M292.078 217.927C292.687 221.587 290.2 225.07 286.546 225.68C282.892 226.29 279.416 223.799 278.807 220.138C278.198 216.478 280.684 212.995 284.339 212.385C287.993 211.775 291.469 214.266 292.078 217.927Z" fill="white"/>
<path d="M305.781 215.082C306.39 218.742 303.903 222.225 300.249 222.835C296.595 223.445 293.118 220.954 292.509 217.293C291.9 213.633 294.387 210.15 298.041 209.54C301.721 208.93 305.172 211.396 305.781 215.082Z" fill="white"/>
<path d="M328.162 205.93C328.771 209.591 326.284 213.074 322.63 213.684C318.976 214.294 315.499 211.803 314.89 208.142C314.281 204.481 316.768 200.999 320.422 200.389C324.102 199.779 327.553 202.27 328.162 205.93Z" fill="white"/>
<path d="M347.398 197.818C348.007 201.478 345.52 204.961 341.866 205.571C338.212 206.181 334.735 203.69 334.126 200.029C333.517 196.369 336.004 192.886 339.658 192.276C343.338 191.666 346.789 194.132 347.398 197.818Z" fill="white"/>
<path d="M363.917 186.585C364.526 190.245 362.04 193.728 358.385 194.338C354.731 194.948 351.255 192.457 350.646 188.796C350.037 185.136 352.524 181.653 356.178 181.043C359.832 180.433 363.308 182.924 363.917 186.585Z" fill="white"/>
<path d="M1.37152 355.605C3.95986 351.359 65.2173 250.059 67.7803 245.814C80.5951 224.715 89.9588 202.015 99.018 179.035C108.179 155.775 103.23 128.067 86.3301 110.044C85.5688 109.23 82.4222 107.756 81.331 107.502C79.0726 106.993 76.9917 109.408 76.9664 111.721C76.941 114.035 78.2859 116.145 79.6562 118C81.94 121.127 84.4523 124.203 85.6703 127.889C86.8884 131.575 86.4823 136.1 83.5641 138.642C79.3517 138.921 77.4231 133.557 76.7634 129.389C74.3526 114.314 72.3733 98.6044 67.8564 84.0131C66.7906 80.5814 62.4767 77.0734 59.1778 78.4715C57.097 79.3612 56.5134 82.0049 56.2596 84.2673C54.7624 97.8927 56.691 111.416 57.8837 125.092C57.4015 113.882 54.8386 102.926 54.3564 91.7155C54.2295 88.6905 54.5341 84.547 53.1638 81.8524C51.7935 79.1578 48.8245 77.0225 45.8809 77.5818C43.2418 78.0902 41.364 80.5814 40.7296 83.1743C40.0698 85.7672 39.9429 89.5294 40.222 92.1985C41.5416 104.4 41.7953 116.729 40.9833 128.982C40.8311 119.144 39.7399 109.332 37.6845 99.7229C36.9993 96.5708 35.9081 93.012 32.9899 91.6647C29.488 90.0632 25.2756 92.7578 23.7531 96.2658C22.2051 99.7738 22.5858 103.79 22.7888 107.629C24.4636 137.574 22.4081 186.076 -90.1086 333.184L1.37152 355.605Z" fill="#C0A091"/>
<path d="M44.7892 78.4738C45.9819 83.1003 44.4593 87.7014 40.8559 90.8026C39.714 91.7686 41.3634 93.4209 42.5054 92.455C46.7431 88.8453 48.4179 83.2274 47.0476 77.8637C46.667 76.4147 44.4085 77.0248 44.7892 78.4738Z" fill="#4F3422"/>
<path d="M59.5322 80.3544C61.3338 83.9641 60.3442 88.5143 57.1214 91.0055C55.9542 91.8952 57.1214 93.9289 58.2887 93.0137C62.5519 89.7091 63.9222 84.0403 61.5369 79.185C60.8771 77.8378 58.8724 79.0071 59.5322 80.3544Z" fill="#4F3422"/>
<path d="M29.1837 91.8691C30.0718 95.3263 29.4374 98.8852 27.4327 101.859C26.4431 103.334 25.1235 104.528 23.601 105.444C22.7889 105.927 22.0023 106.079 21.5455 106.943C21.2664 107.503 21.3932 108.189 21.9515 108.545C22.0276 108.596 22.1291 108.647 22.2053 108.697C22.7635 109.053 23.4487 108.799 23.804 108.291C23.8547 108.24 23.8801 108.164 23.9308 108.113C24.7936 106.893 22.7635 105.723 21.9261 106.943C21.8754 106.994 21.85 107.071 21.7993 107.121C22.3322 106.994 22.8651 106.842 23.3979 106.715C23.3218 106.664 23.2203 106.613 23.1442 106.562C23.2711 107.096 23.4233 107.63 23.5502 108.164C23.9816 107.299 26.4684 106.41 27.3566 105.571C28.6508 104.351 29.7165 102.851 30.4778 101.249C31.975 98.0971 32.2795 94.6654 31.4167 91.3099C31.0615 89.8101 28.8284 90.4202 29.1837 91.8691Z" fill="#4F3422"/>
<path d="M38.8521 110.019C38.8775 117.111 38.4461 124.152 37.4818 131.168C37.2788 132.643 39.5119 133.253 39.7149 131.779C40.6792 124.559 41.1867 117.314 41.1613 109.993C41.1613 108.519 38.8267 108.519 38.8521 110.019Z" fill="#4F3422"/>
<path d="M54.8126 99.0589C55.6754 110.879 56.5381 122.7 57.4263 134.52C57.5278 135.995 59.8624 136.02 59.7355 134.52C58.8727 122.7 58.0099 110.879 57.1218 99.0589C57.0203 97.5845 54.7111 97.5845 54.8126 99.0589Z" fill="#4F3422"/>
<path d="M26.0111 143.292C28.371 143.393 30.6549 143.902 32.8626 144.791C34.2582 145.351 34.8419 143.088 33.4716 142.554C31.0609 141.588 28.5994 141.08 26.0111 140.978C24.5139 140.902 24.5139 143.241 26.0111 143.292Z" fill="white"/>
<path d="M42.9362 146.062C45.6768 146.647 48.4174 146.901 51.2087 146.825C52.7059 146.774 52.7059 144.461 51.2087 144.512C48.6204 144.588 46.0828 144.385 43.5452 143.825C42.0988 143.52 41.4898 145.757 42.9362 146.062Z" fill="white"/>
<path d="M61.8919 146.344C64.9117 146.624 67.9314 146.903 70.9511 147.183C72.4483 147.31 72.4229 144.997 70.9511 144.87C67.9314 144.59 64.9117 144.31 61.8919 144.031C60.4201 143.878 60.4201 146.191 61.8919 146.344Z" fill="white"/>
<path d="M92.3701 153.565C94.7808 154.76 97.3184 155.421 100.008 155.548C101.505 155.624 101.505 153.286 100.008 153.235C97.7498 153.133 95.5674 152.574 93.5374 151.582C92.2178 150.896 91.0251 152.904 92.3701 153.565Z" fill="white"/>
<path d="M88.9428 114.617C85.3394 116.219 81.9136 112.762 83.0302 109.152C83.4615 107.728 81.2285 107.093 80.7971 108.542C79.0461 114.287 84.8065 118.99 90.1354 116.626C91.4803 116.016 90.2877 114.033 88.9428 114.617Z" fill="#4F3422"/>
<path d="M57.3249 274.588L-24.9692 225.934L-40.3977 247.973C-12.7633 264.801 14.4142 282.316 42.2009 298.661L57.3249 274.588Z" fill="white"/>
<path d="M-40.3722 248L-128 370.85L-40.3722 427.48L42.2265 298.688C14.4398 282.343 -12.7632 264.828 -40.3722 248Z" fill="#C2B1FF"/>
<path d="M25.4284 302.654C25.4284 305.247 23.3222 307.357 20.7338 307.357C18.1455 307.357 16.0393 305.247 16.0393 302.654C16.0393 300.061 18.1455 297.951 20.7338 297.951C23.3222 297.951 25.4284 300.061 25.4284 302.654Z" fill="#4F3422"/>
<path d="M16.0387 320.297C16.0387 322.889 13.9325 324.999 11.3442 324.999C8.75586 324.999 6.64966 322.889 6.64966 320.297C6.64966 317.704 8.75586 315.594 11.3442 315.594C13.9325 315.594 16.0387 317.704 16.0387 320.297Z" fill="#4F3422"/>
<path d="M207.422 62.8365C213.614 48.8807 223.003 36.7552 234.981 27.2988C236.148 26.3837 234.499 24.7314 233.331 25.6465C221.227 35.2046 211.66 47.5334 205.418 61.6418C204.809 63.0145 206.813 64.2092 207.422 62.8365Z" fill="white"/>
<path d="M247.214 20.0293C251.35 18.1736 255.664 16.928 260.13 16.2417C261.602 16.0129 260.967 13.7759 259.521 14.0047C254.826 14.7165 250.36 16.0892 246.046 18.0465C244.676 18.6312 245.843 20.6394 247.214 20.0293Z" fill="white"/>
<path d="M83.0818 28.3677C92.7247 18.7334 105.971 13.9035 119.547 15.022C121.044 15.1491 121.019 12.8104 119.547 12.7087C105.413 11.5394 91.4813 16.6743 81.4324 26.7154C80.392 27.783 82.0414 29.4099 83.0818 28.3677Z" fill="white"/>
</svg>
