<svg width="375" height="401" viewBox="0 0 375 401" fill="none" xmlns="http://www.w3.org/2000/svg">
<path opacity="0.48" d="M135.806 392.935C73.8496 389.523 12.3987 378.433 -46.6303 360.067C-63.0243 354.949 -79.4715 349.164 -93.3638 339.354C-107.256 329.544 -118.487 315.096 -120.669 298.542C-121.601 291.398 -120.696 283.668 -116.252 277.857C-107.496 266.367 -89.7976 266.981 -75.3464 269.62C-39.8971 276.071 -5.45902 287.746 26.3709 304.14C-24.6208 282.442 -74.202 246.961 -89.5581 195.06C-91.5275 188.422 -92.8848 181.438 -91.9533 174.587C-89.3718 155.874 -69.518 142.759 -50.0635 141.533C-30.6355 140.307 -11.8995 148.33 4.97351 157.714C34.0356 173.894 60.3565 194.713 82.499 219.078C33.4501 194.9 4.46786 143.425 -8.22684 91.4976C-9.77043 85.2332 -11.1011 78.6222 -9.47769 72.3578C-6.04453 59.2426 9.79058 52.0719 23.6297 53.5647C37.4688 55.0575 49.5779 63.0279 60.596 71.2383C99.9309 100.534 134.875 137.534 151.854 182.771C115.952 145.265 104.695 87.2591 124.043 39.4365C129.312 26.4012 137.11 13.6858 149.246 6.08857C161.408 -1.50868 178.627 -2.62827 189.645 6.35513C198.322 13.4459 201.489 24.9084 203.804 35.7045C214.157 84.3002 216.073 134.629 209.473 183.917C208.541 141.319 223.658 98.4817 251.336 65.2404C265.627 48.0733 283.246 33.5453 302.86 22.376C331.603 6.03525 364.87 35.2247 350.685 64.4407C350.578 64.654 350.498 64.8406 350.392 65.0538C329.394 107.945 298.069 146.064 259.639 175.494C283.246 139.107 316.885 108.878 356.087 88.8319C371.204 81.1013 389.328 74.8103 404.95 81.4212C425.229 90.0048 430.632 117.248 422.062 137.108C413.493 156.967 395.183 171.069 377.618 184.237C348.422 206.149 319.254 228.061 290.059 249.973C332.933 217.345 378.336 183.571 432.096 175.201C442.794 173.521 454.957 173.308 463.074 180.212C472.708 188.422 472.309 203.857 465.709 214.6C459.108 225.342 447.878 232.486 437.019 239.257C401.277 261.569 365.535 283.881 329.819 306.193C369.5 280.496 415.143 253.572 461.663 263.355C476.461 266.474 491.79 275.004 495.276 289.292C499.322 305.9 485.722 321.707 471.484 331.837C439.042 354.949 399.175 365.398 360.319 375.395C287.69 394.081 210.511 412.741 138.76 391.682L135.806 392.935Z" fill="#FFEEE2"/>
</svg>
