<svg width="105" height="56" viewBox="0 0 105 56" fill="none" xmlns="http://www.w3.org/2000/svg">
<path d="M-17.7751 55.5665C-23.7055 53.1283 -27.2316 45.9221 -25.6021 39.664C-23.9459 33.4059 -17.3209 28.9629 -10.9899 29.857C-7.73081 30.3175 -4.79233 31.9701 -1.93399 33.5955C1.69904 35.6545 5.33207 37.7405 8.96511 39.7994C-0.0907589 36.5756 -4.47176 25.2514 -2.49497 15.7153C-1.05244 8.86124 3.56899 2.30516 10.2474 0.517139C15.6969 -0.945787 21.4937 0.896418 26.4891 3.52427C42.0097 11.5975 52.882 26.4705 62.1249 41.4791C59.2398 37.4425 62.4455 31.2386 67.1203 29.6131C71.7952 28.0147 76.9242 29.6944 81.3319 31.9159C91.1624 36.9007 99.3367 46.4368 105 56L-17.7751 55.5665Z" fill="#F2F5EB"/>
</svg>
