<svg width="115" height="67" viewBox="0 0 115 67" fill="none" xmlns="http://www.w3.org/2000/svg">
<path d="M-34.0657 66.2109C-41.2164 63.3262 -45.5027 54.7129 -43.5119 47.2576C-41.5211 39.8022 -33.4969 34.5002 -25.8587 35.5565C-21.9381 36.105 -18.3627 38.0755 -14.9093 40.0257C-10.5214 42.4837 -6.13351 44.9418 -1.74561 47.3998C-12.6747 43.5401 -17.9768 30.0717 -15.5797 18.716C-13.853 10.5496 -8.2462 2.74888 -0.181404 0.615871C6.40044 -1.13116 13.3886 1.08311 19.4626 4.1912C38.2127 13.8202 51.3561 31.514 62.5086 49.3906C59.0146 44.5761 62.8946 37.1817 68.542 35.2721C74.1691 33.3626 80.3853 35.3534 85.7076 38.0146C97.5712 43.9667 107.464 55.3021 114.29 66.6984L-34.0657 66.2109Z" fill="#F2F5EB"/>
</svg>
