<svg width="87" height="112" viewBox="0 0 87 112" fill="none" xmlns="http://www.w3.org/2000/svg">
<rect x="3.19995" width="80" height="80" rx="40" fill="white"/>
<g filter="url(#filter0_ddddd_22_2786)">
<rect x="11.2" y="8" width="64" height="64" rx="32" fill="#C2B1FF"/>
<path fill-rule="evenodd" clip-rule="evenodd" d="M51.981 24.781C53.0224 23.7397 54.7108 23.7397 55.7522 24.781L63.7522 32.781C64.7936 33.8224 64.7936 35.5109 63.7522 36.5523C62.7108 37.5937 61.0224 37.5937 59.981 36.5523L51.981 28.5523C50.9396 27.5109 50.9396 25.8224 51.981 24.781Z" fill="#3C357C"/>
<path fill-rule="evenodd" clip-rule="evenodd" d="M63.7522 24.781C64.7936 25.8224 64.7936 27.5109 63.7522 28.5523L55.7522 36.5523C54.7108 37.5937 53.0223 37.5937 51.9809 36.5523C50.9395 35.5109 50.9395 33.8224 51.9809 32.781L59.9809 24.781C61.0223 23.7397 62.7108 23.7397 63.7522 24.781Z" fill="#3C357C"/>
<path fill-rule="evenodd" clip-rule="evenodd" d="M22.6476 24.781C23.689 23.7397 25.3775 23.7397 26.4189 24.781L34.4189 32.781C35.4603 33.8224 35.4603 35.5109 34.4189 36.5523C33.3775 37.5937 31.689 37.5937 30.6476 36.5523L22.6476 28.5523C21.6062 27.5109 21.6062 25.8224 22.6476 24.781Z" fill="#3C357C"/>
<path fill-rule="evenodd" clip-rule="evenodd" d="M34.4189 24.781C35.4603 25.8224 35.4603 27.5109 34.4189 28.5523L26.4189 36.5523C25.3775 37.5937 23.6891 37.5937 22.6477 36.5523C21.6063 35.5109 21.6063 33.8224 22.6477 32.781L30.6477 24.781C31.6891 23.7397 33.3775 23.7397 34.4189 24.781Z" fill="#3C357C"/>
<path fill-rule="evenodd" clip-rule="evenodd" d="M33.4592 45.9724C36.2535 43.8282 39.6773 42.666 43.1994 42.666C46.7216 42.666 50.1453 43.8282 52.9396 45.9724C55.7339 48.1165 57.7426 51.1228 58.6542 54.5249C59.0354 55.9475 58.1912 57.4097 56.7686 57.7909C55.346 58.1721 53.8838 57.3279 53.5026 55.9053C52.8949 53.6372 51.5557 51.633 49.6929 50.2036C47.83 48.7741 45.5475 47.9993 43.1994 47.9993C40.8513 47.9993 38.5688 48.7741 36.706 50.2036C34.8431 51.633 33.5039 53.6372 32.8962 55.9053C32.515 57.3279 31.0528 58.1721 29.6302 57.7909C28.2076 57.4097 27.3634 55.9475 27.7446 54.5249C28.6562 51.1228 30.6649 48.1165 33.4592 45.9724Z" fill="#3C357C"/>
</g>
<defs>
<filter id="filter0_ddddd_22_2786" x="-4.95911e-05" y="5.86667" width="86.4" height="105.6" filterUnits="userSpaceOnUse" color-interpolation-filters="sRGB">
<feFlood flood-opacity="0" result="BackgroundImageFix"/>
<feColorMatrix in="SourceAlpha" type="matrix" values="0 0 0 0 0 0 0 0 0 0 0 0 0 0 0 0 0 0 127 0" result="hardAlpha"/>
<feOffset/>
<feColorMatrix type="matrix" values="0 0 0 0 1 0 0 0 0 0.807843 0 0 0 0 0.360784 0 0 0 0.1 0"/>
<feBlend mode="normal" in2="BackgroundImageFix" result="effect1_dropShadow_22_2786"/>
<feColorMatrix in="SourceAlpha" type="matrix" values="0 0 0 0 0 0 0 0 0 0 0 0 0 0 0 0 0 0 127 0" result="hardAlpha"/>
<feOffset dy="1.6"/>
<feGaussianBlur stdDeviation="1.86667"/>
<feColorMatrix type="matrix" values="0 0 0 0 1 0 0 0 0 0.807843 0 0 0 0 0.360784 0 0 0 0.1 0"/>
<feBlend mode="normal" in2="effect1_dropShadow_22_2786" result="effect2_dropShadow_22_2786"/>
<feColorMatrix in="SourceAlpha" type="matrix" values="0 0 0 0 0 0 0 0 0 0 0 0 0 0 0 0 0 0 127 0" result="hardAlpha"/>
<feOffset dy="6.93333"/>
<feGaussianBlur stdDeviation="3.46667"/>
<feColorMatrix type="matrix" values="0 0 0 0 1 0 0 0 0 0.807843 0 0 0 0 0.360784 0 0 0 0.09 0"/>
<feBlend mode="normal" in2="effect2_dropShadow_22_2786" result="effect3_dropShadow_22_2786"/>
<feColorMatrix in="SourceAlpha" type="matrix" values="0 0 0 0 0 0 0 0 0 0 0 0 0 0 0 0 0 0 127 0" result="hardAlpha"/>
<feOffset dy="16"/>
<feGaussianBlur stdDeviation="4.8"/>
<feColorMatrix type="matrix" values="0 0 0 0 1 0 0 0 0 0.807843 0 0 0 0 0.360784 0 0 0 0.05 0"/>
<feBlend mode="normal" in2="effect3_dropShadow_22_2786" result="effect4_dropShadow_22_2786"/>
<feColorMatrix in="SourceAlpha" type="matrix" values="0 0 0 0 0 0 0 0 0 0 0 0 0 0 0 0 0 0 127 0" result="hardAlpha"/>
<feOffset dy="28.2667"/>
<feGaussianBlur stdDeviation="5.6"/>
<feColorMatrix type="matrix" values="0 0 0 0 1 0 0 0 0 0.807843 0 0 0 0 0.360784 0 0 0 0.01 0"/>
<feBlend mode="normal" in2="effect4_dropShadow_22_2786" result="effect5_dropShadow_22_2786"/>
<feBlend mode="normal" in="SourceGraphic" in2="effect5_dropShadow_22_2786" result="shape"/>
</filter>
</defs>
</svg>
