<svg width="234" height="155" viewBox="0 0 234 155" fill="none" xmlns="http://www.w3.org/2000/svg">
<path d="M222.126 -31.462C199.228 -34.243 174.885 -39.0828 151.462 -37.7826C128.401 -36.5004 101.693 -19.8683 87.8956 0.953495C81.6112 10.4163 78.3786 21.7211 72.6721 31.527C68.049 39.4909 61.7826 46.0824 55.1009 52.0056C42.1708 63.4729 28.1933 72.701 18.0985 87.4911C-3.89709 119.726 -8.93548 176.575 20.5003 206.3C33.3943 219.32 51.2905 224.954 68.8256 226.562C93.5841 228.819 118.433 223.979 143.174 226.796C154.117 228.042 164.609 230.968 174.65 235.916C189.205 243.085 203.49 246.95 219.761 246.751C237.115 246.535 254.127 244.657 270.416 238.643C287.012 232.521 304.799 234.381 322.353 232.521C340.845 230.571 363.978 232.431 380.953 223.907C406.886 210.905 420.719 181.505 423.554 153.731C426.678 123.193 413.802 93.5769 390.073 73.9831C378.588 64.5203 369.053 55.2562 367.59 39.0756C366.235 24.141 362.443 15.1657 357.856 0.520088C345.883 -37.8187 302.759 -40.0399 270.018 -33.9722C250.334 -30.3243 240.944 -30.9202 224.438 -31.1911C222.072 -31.2272 224.438 -31.1911 222.126 -31.462Z" fill="#F5F5F5"/>
<path d="M34.2614 57.0075C40.2208 54.714 46.108 50.1451 49.7378 47.2016C60.1938 38.7139 69.765 28.0954 70.9207 14.0276C70.993 13.1788 71.0291 12.294 70.7221 11.4994C70.3429 10.4881 69.476 9.72961 68.537 9.20591C64.3112 6.85827 58.8575 8.71833 55.1735 11.8606C51.4895 15.0028 48.9432 19.2466 45.5662 22.7139C38.5594 29.9193 28.3382 33.4408 21.6745 40.9532C18.2975 44.7636 16.0943 50.8855 19.4352 54.7682C23.3359 59.3371 28.8258 59.1023 34.2614 57.0075Z" fill="#F5F5F5"/>
<path d="M238.668 264.186C253.501 231.766 259.1 197.655 257.571 160.799C256.578 136.792 248.358 114.854 232.87 101.607C183.191 59.1623 139.31 105.008 139.31 105.008C124.498 87.9031 99.9759 76.188 62.7265 92.1396C50.8131 97.2513 39.4754 108.966 33.0819 122.114C26.1324 136.375 25.9338 153.699 25.914 170.167C25.8941 187.412 31.3544 223.353 37.3509 239.086C41.2029 249.17 48.49 266.454 51.7463 268.304L238.668 264.186Z" fill="#ED7E1C"/>
<path d="M162.303 139.934C128.985 151.292 89.6314 142.659 66.4994 113.6C61.8929 107.952 58.4182 101.826 55.9362 95.3813C58.16 93.989 60.4236 92.8155 62.7268 91.8608C99.9762 76.4462 124.498 87.7635 139.31 104.272C139.31 104.272 176.044 67.2372 220.342 92.2984C216.013 99.4985 211.685 106.699 205.827 113.143C194.231 126.33 178.506 134.047 162.303 139.934Z" fill="#F6A460"/>
<path d="M133.513 40.6256C129.601 25.4696 136.69 19.1446 143.083 17.0761C149.496 15.0075 156.744 18.0904 161.112 23.2618C163.574 26.1856 165.48 29.8851 168.955 31.4763C171.179 32.4907 173.701 32.4708 176.143 32.3713C184.264 32.0332 192.425 31.0188 200.486 32.0332C208.548 33.0476 216.768 36.4288 221.454 43.1317C225.484 48.8799 226.596 56.5374 231.58 61.4701C240.376 70.1619 256.142 65.8657 266.089 73.1852C269.664 75.8106 272.185 79.8682 272.979 84.2439C274.687 93.7115 268.631 103.736 271.887 112.806C274.508 120.085 282.669 124.958 283.324 132.676C283.721 137.449 280.882 142.103 276.931 144.729C272.96 147.354 268.055 148.21 263.31 148.09C251.873 147.832 240.674 142.103 233.705 132.974C230.409 128.658 228.046 123.685 224.79 119.369C221.533 115.033 217.006 111.214 211.625 110.677C209.54 110.479 207.436 110.777 205.331 110.817C196.654 110.976 188.037 106.262 183.43 98.843C178.724 91.265 177.692 88.3213 171.219 82.2351C159.742 71.4548 151.76 85.7953 138.179 73.7819C132.877 69.0879 139.191 53.733 135.578 47.6268C133.81 44.6234 140.283 42.8532 136.928 42.0577L133.513 40.6256Z" fill="#3F3C36"/>
<path d="M135.637 26.0065C133.711 18.7069 139.588 11.666 146.796 10.8306C151.184 10.3135 155.652 11.8052 159.226 14.3113C163.237 17.0959 165.718 21.77 169.948 24.1965C175.09 27.1402 181.166 25.8275 186.627 24.6938C191.213 23.759 195.78 22.844 200.486 23.4606C208.547 24.4949 216.152 29.0496 220.739 35.8122C226.477 44.3051 225.266 56.2191 234.836 62.0667C244.268 67.8348 255.943 66.2038 265.95 70.2215C273.178 73.1255 279.73 79.6692 278.757 88.0229C277.705 97.212 269.227 105.208 275.223 114.397C277.784 118.335 281.557 121.438 283.483 125.794C285.171 129.632 284.813 133.849 282.649 137.429C277.109 146.579 265.454 146.161 256.936 141.904C255.883 141.387 256.817 139.816 257.849 140.333C266.347 144.59 280.127 144.391 282.57 132.835C284.337 124.441 275.044 119.429 272.145 112.567C269.107 105.367 273.694 98.7236 275.938 92.0606C277.367 87.8041 277.467 83.4681 274.985 79.5697C272.483 75.5918 268.254 72.9464 263.885 71.4547C255.189 68.4911 245.678 69.0679 237.179 65.3883C229.495 62.0468 226.04 56.0401 223.777 48.2632C222.526 43.967 221.295 39.7305 218.614 36.0708C216.053 32.5701 212.558 29.7657 208.686 27.8563C204.795 25.9468 200.446 24.9523 196.098 25.1115C191.531 25.2706 187.103 26.6231 182.616 27.3391C178.486 27.9955 174.157 28.2342 170.265 26.464C166.056 24.5347 163.634 20.5567 160.298 17.5533C156.208 13.8737 150.231 11.3875 144.751 13.1378C139.628 14.7688 135.915 20.2186 137.325 25.5689C137.682 26.6629 135.935 27.1402 135.637 26.0065Z" fill="#3F3C36"/>
<path d="M137.047 27.04C129.005 25.2301 120.785 29.4467 117.906 37.3032C115.245 44.5629 118.521 51.0271 121.738 57.4118C124.18 62.2848 126.523 67.5755 125.272 73.1247C124.041 78.6143 119.792 82.4928 114.53 84.0641C108.196 85.9536 97.1365 85.8343 97.1365 95.0433C97.1365 101.865 102.835 107.534 101.664 114.555C100.85 119.369 96.938 121.517 92.4307 121.914C89.8495 122.153 87.2484 121.934 84.6671 122.233C80.1996 122.75 77.9956 125.316 76.7447 129.552C75.5136 133.709 72.7934 141.824 66.6778 139C63.2626 137.428 63.9377 131.74 67.8692 131.561C69.0406 131.501 69.0406 133.331 67.8692 133.391C65.3475 133.51 66.3998 135.778 67.0749 136.573C68.2067 137.926 69.4576 137.886 70.9865 136.971C72.5551 136.036 73.389 134.266 73.9847 132.595C74.9179 129.95 75.2754 127.086 76.8241 124.679C79.2465 120.88 83.6346 120.363 87.7845 120.264C90.2069 120.204 92.7683 120.363 95.1112 119.627C98.9633 118.434 100.353 114.953 99.8965 111.174C99.2015 105.267 94.8928 100.175 95.3694 94.0687C95.7466 89.2156 99.5192 86.1923 103.828 84.6807C110.023 82.5127 117.37 83.2287 121.539 77.1623C128.965 66.3821 116.258 55.6416 115.146 44.9409C113.855 32.3904 125.431 22.5847 137.523 25.2897C138.675 25.5284 138.198 27.2986 137.047 27.04Z" fill="#3F3C36"/>
<path d="M199.93 107.673C210.315 107.156 218.872 115.549 218.892 125.952C218.892 132.436 215.715 138.84 219.269 144.986C220.957 147.91 223.995 150.635 227.49 150.854C229.594 150.993 232.295 150.018 232.871 147.691C233.685 144.41 228.741 141.605 227.788 145.663C227.51 146.796 225.762 146.319 226.04 145.185C227.39 139.497 235.273 141.705 234.797 147.234C234.221 153.996 225.643 153.4 221.672 150.396C218.932 148.348 216.966 145.324 216.132 142.003C215.139 138.025 216.132 134.007 216.728 130.049C218.356 119.309 211.585 108.926 199.97 109.503C198.758 109.543 198.758 107.733 199.93 107.673Z" fill="#3F3C36"/>
<path d="M150.688 48.9604C149.496 49.8356 148.285 49.5173 148.285 49.5173C148.206 48.7218 146.637 48.0057 146.637 48.0057C146.835 47.7273 147.769 46.8919 147.491 46.7129L150.688 48.9604Z" fill="#3F3C36"/>
<path d="M151.144 49.7356C150.25 50.3323 149.119 50.6307 148.046 50.392C147.749 50.3324 147.471 50.0539 147.411 49.7555C147.312 49.2981 146.577 48.9798 146.18 48.8008C145.584 48.5224 145.684 47.7865 146.001 47.3688C146.12 47.2295 146.24 47.0903 146.359 46.9511C146.517 46.7721 146.617 46.4737 146.617 46.7721C146.696 46.9909 146.795 47.2097 146.875 47.4085C146.855 47.3887 146.835 47.3688 146.835 47.3489C146.101 46.4538 147.371 45.161 148.126 46.056C148.96 47.0704 147.868 47.866 147.272 48.6218C147.212 48.1445 147.153 47.6671 147.093 47.1898C147.947 47.5876 148.96 48.2638 149.158 49.2384C148.94 49.0196 148.741 48.8207 148.523 48.6019C148.999 48.7014 149.714 48.4627 150.231 48.1246C151.203 47.508 152.117 49.0992 151.144 49.7356Z" fill="#3F3C36"/>
<path d="M161.31 93.2136L144.194 26.7617C144.194 26.7617 114.51 45.8361 118.044 72.2298L131.943 68.3314C131.943 68.3314 129.342 81.4189 126.82 94.2876C124.457 106.341 134.901 117.002 146.974 114.874C147.133 114.854 147.291 114.814 147.45 114.794C157.458 112.984 163.851 103.079 161.31 93.2136Z" fill="#F6A460"/>
<path d="M160.774 54.448C158.153 57.6303 153.467 58.0679 150.29 55.4424C147.113 52.817 146.677 48.123 149.298 44.9406C151.918 41.7583 156.604 41.3207 159.781 43.9461C162.938 46.5716 163.395 51.2855 160.774 54.448Z" fill="#F6A460"/>
<path d="M151.521 50.6093C153.844 49.1772 156.187 47.7651 158.55 46.3927C159.563 45.796 160.476 47.3673 159.463 47.964C157.101 49.3364 154.777 50.7684 152.434 52.1806C151.442 52.7972 150.528 51.2259 151.521 50.6093Z" fill="#3F3C36"/>
<path d="M131.963 68.3321L126.86 94.8651L142.01 64.752L131.963 68.3321Z" fill="#3F3C36"/>
<path d="M126.027 53.9311C126.027 53.9311 130.753 55.025 137.266 53.2946C138.516 52.9565 139.688 54.0504 139.43 55.3034C138.854 57.909 136.173 61.6881 125.809 63.1002L126.027 53.9311Z" fill="white"/>
<path d="M126.305 52.9162C129.422 53.5925 132.897 53.1947 135.955 52.5383C138.635 51.9615 141.216 53.0754 140.243 56.2577C138.556 61.8468 130.931 63.4181 126.066 64.1341C124.736 64.333 124.16 62.2844 125.511 62.0855C129.045 61.5683 136.967 60.4346 138.099 55.9594C138.595 54.0301 135.836 54.7461 134.604 54.945C133.155 55.1837 131.686 55.3229 130.216 55.3428C128.727 55.3627 127.198 55.2831 125.749 54.9649C124.399 54.6666 124.974 52.6179 126.305 52.9162Z" fill="#ED7E1C"/>
<path d="M131.626 39.61C127.972 42.6929 124.379 46.1935 121.4 49.9129C121.182 49.3958 120.963 48.8786 120.765 48.3615C122.651 48.5206 124.557 48.6797 126.463 48.8389C127.615 48.9383 127.635 50.7483 126.463 50.6687C124.557 50.5096 122.671 50.3505 120.765 50.1914C119.931 50.1118 119.613 49.2565 120.129 48.64C123.108 44.9007 126.702 41.42 130.355 38.337C131.229 37.5613 132.519 38.8542 131.626 39.61Z" fill="#3F3C36"/>
<path d="M142.507 54.9655C140.998 56.6562 138.893 57.591 136.63 57.6109C135.458 57.6308 135.458 55.8009 136.63 55.8009C138.437 55.781 140.025 55.0451 141.216 53.6926C142.011 52.8174 143.281 54.0904 142.507 54.9655Z" fill="#3F3C36"/>
<path d="M143.143 43.0715C140.78 41.5997 137.96 41.3809 135.419 42.5743C134.366 43.0715 133.453 41.5002 134.505 41.003C137.623 39.5311 141.117 39.6704 144.056 41.5002C145.049 42.1168 144.136 43.6881 143.143 43.0715Z" fill="#3F3C36"/>
<path d="M141.554 42.1761C141.614 42.8325 141.554 43.4888 141.336 44.1054C141.157 44.6226 140.522 45.0005 140.006 44.6424C139.708 44.4435 139.43 44.2844 139.072 44.2446C138.755 44.2049 138.437 44.3043 138.119 44.3043C137.166 44.3242 136.988 43.5286 136.908 42.7728C136.829 42.017 136.829 41.2015 137.722 40.923C138.477 40.7043 139.47 41.1418 140.184 41.3407C140.82 41.5198 141.098 42.3949 140.581 42.8524C139.887 43.4689 138.874 43.5087 138.199 42.8126C137.385 41.9573 138.675 40.6844 139.489 41.5197C139.45 41.48 139.331 41.5396 139.291 41.5595C139.43 42.0568 139.549 42.5739 139.688 43.0711C139.39 42.9916 139.092 42.912 138.814 42.8325C138.675 42.7927 138.516 42.7529 138.377 42.7131C138.1 42.6932 138.08 42.6535 138.318 42.6137C138.417 42.5142 138.536 42.3949 138.636 42.2955C138.675 42.1164 138.675 42.1164 138.675 42.2557C138.675 42.3551 138.695 42.4546 138.695 42.554C138.695 42.6336 138.814 43.1109 138.675 42.8524C138.576 42.7529 138.457 42.6336 138.358 42.5341C138.397 42.554 138.417 42.5739 138.457 42.5938C138.298 42.554 138.159 42.5142 138 42.4745C138.437 42.4943 138.953 42.3949 139.45 42.4745C139.966 42.554 140.462 42.7728 140.899 43.0711C140.462 43.2502 140.006 43.4292 139.569 43.6082C139.728 43.1109 139.787 42.6734 139.728 42.1562C139.668 41.659 140.184 41.2413 140.641 41.2413C141.177 41.2612 141.495 41.6789 141.554 42.1761Z" fill="#3F3C36"/>
<path d="M141.158 45.5383C139.648 45.2997 138.139 45.3593 136.67 45.7173C135.538 45.9759 135.042 44.2256 136.194 43.967C138.02 43.5493 139.807 43.4897 141.654 43.788C142.786 43.9869 142.309 45.7372 141.158 45.5383Z" fill="#3F3C36"/>
<path d="M142.924 33.4651C141.554 32.928 140.164 32.7888 138.735 33.1269C137.603 33.3855 137.107 31.6352 138.258 31.3766C139.986 30.9788 141.753 31.0584 143.401 31.7148C144.493 32.1324 144.016 33.8827 142.924 33.4651Z" fill="#3F3C36"/>
<path d="M163.177 101.567C161.946 98.0465 160.735 94.526 159.504 91.0254C159.127 89.9115 160.874 89.4342 161.251 90.548C162.482 94.0685 163.694 97.589 164.925 101.09C165.322 102.184 163.555 102.661 163.177 101.567Z" fill="#3F3C36"/>
<path d="M110.762 33.0211L106.544 35.3304C103.975 37.2392 104.328 37.8754 103.739 41.0331L102.255 50.4118C102.208 50.7182 101.736 50.7182 101.689 50.4118L100.228 41.1038C99.6391 37.9697 99.7098 37.2863 97.1648 35.354L93.1588 33.0447C93.0174 32.9268 93.0174 32.6912 93.1588 32.5969L97.6832 30.429C100.205 28.4967 100.063 27.2242 100.629 24.1136L101.689 15.2298C101.736 14.9234 102.208 14.9234 102.255 15.2298L103.48 24.3964C104.046 27.507 104.352 28.803 106.873 30.7118L110.785 32.5498C110.927 32.6912 110.927 32.9033 110.762 33.0211Z" fill="#FFBD1A"/>
<path d="M86.7324 53.0504L82.5143 55.3597C79.9458 57.2685 80.2993 57.9047 79.7101 61.0624L78.202 70.4176C78.1549 70.7239 77.6836 70.7239 77.6365 70.4176L76.1754 61.1095C75.5863 57.9754 75.657 57.292 73.112 55.3597L69.106 53.0504C68.9647 52.9326 68.9647 52.6969 69.106 52.6027L73.6305 50.4347C76.1519 48.5024 76.0105 47.2299 76.576 44.1194L77.6129 35.2591C77.66 34.9527 78.1313 34.9527 78.1784 35.2591L79.4038 44.4257C79.9694 47.5363 80.2993 48.8323 82.7971 50.7411L86.7089 52.5791C86.8738 52.7205 86.8738 52.9561 86.7324 53.0504Z" fill="#FFBD1A"/>
</svg>
