<svg width="319" height="318" viewBox="0 0 319 318" fill="none" xmlns="http://www.w3.org/2000/svg">
<rect x="9" width="300" height="300" rx="150" fill="white"/>
<path fill-rule="evenodd" clip-rule="evenodd" d="M294.402 198.45C282.379 212.781 251.015 206.265 224.357 183.898C197.699 161.516 198.274 142.207 210.312 127.862C222.336 113.532 241.249 109.602 267.921 131.969C294.564 154.351 306.425 184.12 294.402 198.45Z" fill="#7D944D"/>
<path d="M285.285 169.818C280.785 169.818 276.463 167.913 273.409 164.5L254.423 143.27C251.797 140.33 250.351 136.548 250.351 132.604V122.336C250.351 121.228 251.251 120.342 252.342 120.342C253.449 120.342 254.334 121.243 254.334 122.336V132.604C254.334 135.559 255.411 138.395 257.388 140.596L276.374 161.826C279.03 164.781 282.954 166.243 286.878 165.711L294.254 164.721C295.346 164.588 296.349 165.342 296.497 166.435C296.644 167.528 295.877 168.533 294.785 168.681L287.409 169.671C286.716 169.759 285.993 169.818 285.285 169.818Z" fill="white"/>
<path fill-rule="evenodd" clip-rule="evenodd" d="M152.52 255.704C241.492 255.704 260.951 199.786 249.282 141.062C237.612 82.337 197.294 28 152.52 28C107.746 28 66.8959 78.6288 55.7725 141.062C44.6491 203.509 63.5471 255.704 152.52 255.704Z" fill="#9BB168"/>
<path fill-rule="evenodd" clip-rule="evenodd" d="M150.764 60.0137H173.114C196.409 60.0137 215.292 78.9238 215.292 102.251C215.292 125.579 196.409 144.489 173.114 144.489H150.764C127.47 144.489 108.587 125.579 108.587 102.251C108.587 78.909 127.47 60.0137 150.764 60.0137Z" fill="#7D944D"/>
<path fill-rule="evenodd" clip-rule="evenodd" d="M156.001 56.3359H178.351C201.646 56.3359 220.529 75.246 220.529 98.5734C220.529 121.901 201.646 140.811 178.351 140.811H156.001C132.707 140.811 113.824 121.901 113.824 98.5734C113.824 75.246 132.707 56.3359 156.001 56.3359Z" fill="white"/>
<path d="M137.206 256.133C136.1 256.133 135.215 255.232 135.215 254.138V231.934C135.215 223.129 142.37 215.949 151.177 215.949H182.025C188.619 215.949 193.989 210.571 193.989 203.968V197.91C193.989 196.802 194.889 195.916 195.981 195.916C197.087 195.916 197.972 196.817 197.972 197.91V203.968C197.972 212.773 190.817 219.953 182.01 219.953H151.177C144.583 219.953 139.213 225.33 139.213 231.934V254.124C139.213 255.232 138.313 256.133 137.206 256.133Z" fill="#7D944D"/>
<path d="M195.981 155.657C194.874 155.657 193.989 154.756 193.989 153.663V152.274C193.989 146.763 198.459 142.287 203.962 142.287H248.278C249.385 142.287 250.27 143.188 250.27 144.282C250.27 145.39 249.37 146.276 248.278 146.276H203.962C200.657 146.276 197.972 148.965 197.972 152.274V153.663C197.972 154.771 197.087 155.657 195.981 155.657Z" fill="#7D944D"/>
<path fill-rule="evenodd" clip-rule="evenodd" d="M176.439 154.977L202.756 154.518C214.48 154.312 224.15 163.654 224.365 175.388C224.365 175.388 224.365 175.388 224.362 175.403C224.562 187.134 215.232 196.82 203.509 197.026L177.192 197.485C165.468 197.691 155.798 188.349 155.583 176.615C155.583 176.615 155.583 176.615 155.586 176.6C155.388 164.854 164.718 155.168 176.439 154.977Z" fill="#926247"/>
<path fill-rule="evenodd" clip-rule="evenodd" d="M182.711 154.494L208.516 154.049C220.376 153.837 230.173 163.307 230.379 175.174L230.377 175.189C230.58 187.071 221.126 196.87 209.254 197.065L183.449 197.509C171.59 197.721 161.804 188.268 161.583 176.399L161.586 176.384C161.382 164.502 170.837 154.703 182.711 154.494Z" fill="white"/>
<path d="M183.336 186.579C177.972 186.576 173.547 182.254 173.448 176.853C173.344 171.391 177.705 166.868 183.163 166.768L183.328 166.768C183.388 166.763 183.446 166.774 183.507 166.769C188.871 166.773 193.296 171.095 193.395 176.496C193.499 181.958 189.138 186.481 183.681 186.58L183.516 186.581C183.457 186.571 183.397 186.575 183.336 186.579ZM183.241 170.756C179.98 170.809 177.376 173.513 177.434 176.763C177.49 180.027 180.181 182.617 183.443 182.564L183.608 182.563C186.854 182.508 189.457 179.804 189.399 176.554C189.344 173.29 186.628 170.666 183.391 170.753L183.241 170.756Z" fill="#926247"/>
<path d="M199.804 173.346C198.742 173.338 197.854 172.506 197.818 171.435C197.772 170.333 198.624 169.404 199.726 169.359L214.867 168.708C215.969 168.663 216.898 169.517 216.943 170.619C216.989 171.722 216.137 172.651 215.035 172.696L199.894 173.347C199.865 173.341 199.836 173.336 199.804 173.346Z" fill="#926247"/>
<path d="M200.38 181.474C199.318 181.466 198.43 180.634 198.394 179.563C198.348 178.461 199.201 177.532 200.302 177.487L209.043 177.113C210.144 177.068 211.073 177.922 211.119 179.025C211.165 180.127 210.312 181.056 209.211 181.101L200.47 181.475C200.438 181.484 200.409 181.479 200.38 181.474Z" fill="#926247"/>
<path fill-rule="evenodd" clip-rule="evenodd" d="M165.596 82.0371C168.193 82.0371 170.302 84.1497 170.302 86.7499V88.3454C170.302 90.9455 168.193 93.0581 165.596 93.0581C163 93.0581 160.89 90.9455 160.89 88.3454V86.7499C160.89 84.1497 163 82.0371 165.596 82.0371Z" fill="#926247"/>
<path fill-rule="evenodd" clip-rule="evenodd" d="M198.967 82.0371C201.563 82.0371 203.673 84.1497 203.673 86.7499V88.3454C203.673 90.9455 201.563 93.0581 198.967 93.0581C196.37 93.0581 194.26 90.9455 194.26 88.3454V86.7499C194.26 84.1497 196.37 82.0371 198.967 82.0371Z" fill="#926247"/>
<path d="M178.446 113.992C173.076 113.992 168.709 109.619 168.709 104.241C168.709 103.133 169.609 102.247 170.701 102.247C171.807 102.247 172.692 103.148 172.692 104.241C172.692 107.418 175.274 110.003 178.446 110.003L187.371 109.929C190.558 109.9 193.125 107.373 193.213 104.182C193.243 103.074 194.172 102.217 195.264 102.247C196.37 102.276 197.226 103.192 197.196 104.3C197.049 109.648 192.741 113.874 187.401 113.933L178.446 113.992Z" fill="#4F3422"/>
<path fill-rule="evenodd" clip-rule="evenodd" d="M43.5358 217.736C59.7194 227.087 86.9083 210.245 104.287 180.108C121.665 149.97 114.525 132.035 98.3415 122.668C82.158 113.331 63.0682 116.109 45.6897 146.247C28.3112 176.385 27.3523 208.384 43.5358 217.736Z" fill="#7D944D"/>
<path d="M82.0548 208.428C81.2582 208.428 80.491 207.941 80.196 207.143L74.4573 192.222C73.2918 189.193 73.5573 185.854 75.1949 183.047L87.1297 162.468C89.0328 159.203 92.5586 157.164 96.3353 157.164H112.076C113.183 157.164 114.068 158.065 114.068 159.158C114.068 160.252 113.168 161.153 112.076 161.153H96.3205C93.9601 161.153 91.762 162.423 90.567 164.462L78.6322 185.042C77.6143 186.8 77.452 188.883 78.1749 190.774L83.9136 205.725C84.312 206.759 83.7956 207.911 82.7629 208.31C82.5269 208.384 82.2909 208.428 82.0548 208.428Z" fill="white"/>
<path d="M232.746 317.931C249.824 317.931 263.668 304.067 263.668 286.965C263.668 269.864 249.824 256 232.746 256C215.669 256 201.825 269.864 201.825 286.965C201.825 304.067 215.669 317.931 232.746 317.931Z" fill="#ED7E1C"/>
<path fill-rule="evenodd" clip-rule="evenodd" d="M218.639 270H246.755C248.31 270 249.569 271.257 249.569 272.809V276.08C249.569 277.632 248.31 278.889 246.755 278.889H218.639C217.084 278.889 215.825 277.632 215.825 276.08V272.809C215.825 271.257 217.084 270 218.639 270Z" fill="#4F3422"/>
<path fill-rule="evenodd" clip-rule="evenodd" d="M219.873 278.889H245.869V301.81C245.869 303.362 244.609 304.619 243.054 304.619H222.687C221.132 304.619 219.873 303.362 219.873 301.81V278.889Z" fill="white"/>
<path fill-rule="evenodd" clip-rule="evenodd" d="M224.73 283.096H242.065C242.836 283.096 243.466 283.724 243.466 284.494V293.383C243.466 294.152 242.836 294.781 242.065 294.781H224.73C223.959 294.781 223.329 294.152 223.329 293.383V284.494C223.329 283.724 223.959 283.096 224.73 283.096Z" fill="white"/>
<path d="M240.15 289.958H228.701C227.93 289.958 227.3 289.33 227.3 288.56C227.3 287.791 227.93 287.162 228.701 287.162H240.15C240.921 287.162 241.551 287.791 241.551 288.56C241.564 289.33 240.934 289.958 240.15 289.958Z" fill="#4F3422"/>
<path d="M65.5931 74.6867C77.6685 62.5941 77.6685 42.9882 65.5931 30.8956C53.5177 18.803 33.9396 18.803 21.8642 30.8956C9.78876 42.9882 9.78876 62.5941 21.8642 74.6867C33.9396 86.7793 53.5177 86.7793 65.5931 74.6867Z" fill="#ED7E1C"/>
<path d="M46.989 58.5703H41.5453V68.7049H46.989V58.5703Z" fill="#4F3422"/>
<path fill-rule="evenodd" clip-rule="evenodd" d="M27.9876 34.9629H60.5612C61.6677 34.9629 62.5528 35.8641 62.5528 36.9573V57.8914C62.5528 58.9994 61.6529 59.8858 60.5612 59.8858H27.9876C26.8812 59.8858 25.996 58.9846 25.996 57.8914V36.9573C25.996 35.8641 26.8812 34.9629 27.9876 34.9629Z" fill="white"/>
<path d="M54.203 70.9068H34.9657C33.8592 70.9068 32.9741 70.0056 32.9741 68.9124C32.9741 67.8192 33.874 66.918 34.9657 66.918H54.203C55.3094 66.918 56.1946 67.8192 56.1946 68.9124C56.1946 70.0056 55.3094 70.9068 54.203 70.9068Z" fill="#4F3422"/>
<path d="M34.1837 54.3596C33.6673 54.3596 33.1658 54.1676 32.7674 53.7687C31.9856 52.9857 31.9856 51.7299 32.7674 50.9469L40.1732 43.5306C40.9551 42.7476 42.2091 42.7476 42.991 43.5306L46.6201 47.1649L52.7866 40.9896C53.5685 40.2066 54.8225 40.2066 55.6044 40.9896C56.3863 41.7726 56.3863 43.0283 55.6044 43.8113L48.0216 51.4049C47.2397 52.1879 45.9857 52.1879 45.2038 51.4049L41.5895 47.7854L35.5999 53.7834C35.2164 54.1676 34.7 54.3596 34.1837 54.3596Z" fill="#4F3422"/>
<path d="M309.593 102.687C321.669 90.5941 321.669 70.9882 309.593 58.8956C297.518 46.803 277.94 46.803 265.864 58.8956C253.789 70.9882 253.789 90.5941 265.864 102.687C277.94 114.779 297.518 114.779 309.593 102.687Z" fill="#ED7E1C"/>
<path fill-rule="evenodd" clip-rule="evenodd" d="M279.343 90.9753C275.241 86.9421 273.648 82.1851 274.533 76.7337C275.861 68.5491 284.476 64.9887 290.982 67.0422C297.488 69.0957 300.217 72.8334 300.999 78.4917C301.516 82.2737 299.908 86.4251 296.146 90.9753L294.774 93.2652V97.6234C294.774 101.479 291.661 104.596 287.81 104.596C283.96 104.596 280.847 101.479 280.847 97.6234V93.7675L279.343 90.9753Z" fill="white"/>
<path fill-rule="evenodd" clip-rule="evenodd" d="M285.848 82.45H282.854C282.485 82.45 282.19 82.1545 282.19 81.7852C282.19 81.6522 282.234 81.5192 282.308 81.4158L287.574 73.7041C287.781 73.3938 288.194 73.3199 288.504 73.5268C288.681 73.645 288.799 73.8518 288.799 74.0734V77.6634C288.799 78.0327 289.094 78.3282 289.463 78.3282H291.971C292.339 78.3282 292.634 78.6236 292.634 78.993C292.634 79.1259 292.605 79.2441 292.531 79.3475L287.751 86.9264C287.56 87.2366 287.147 87.3252 286.837 87.1332C286.645 87.015 286.527 86.7934 286.527 86.5718V83.1296C286.512 82.7602 286.217 82.45 285.848 82.45Z" fill="#4F3422"/>
<path fill-rule="evenodd" clip-rule="evenodd" d="M304.127 76.6877L307.107 76.1706C307.918 76.0229 308.7 76.5695 308.833 77.382C308.98 78.1946 308.434 78.9628 307.623 79.1105L304.643 79.6276C303.832 79.7753 303.05 79.2287 302.917 78.4162C302.77 77.6036 303.315 76.8354 304.127 76.6877Z" fill="#4F3422"/>
<path fill-rule="evenodd" clip-rule="evenodd" d="M299.258 66.007L301.029 63.5989C301.516 62.9341 302.46 62.7716 303.138 63.2591C303.802 63.7467 303.95 64.6774 303.478 65.3422C303.478 65.3422 303.478 65.3422 303.478 65.357L301.707 67.7651C301.22 68.4299 300.276 68.5924 299.598 68.1048C298.934 67.6173 298.772 66.6866 299.258 66.007C299.258 66.0218 299.258 66.0218 299.258 66.007Z" fill="#4F3422"/>
<path fill-rule="evenodd" clip-rule="evenodd" d="M286.468 62.2252V59.8319C286.468 58.8273 287.279 58 288.297 58C289.315 58 290.127 58.8125 290.127 59.8319V62.2252C290.127 63.2298 289.315 64.0571 288.297 64.0571C287.279 64.0571 286.468 63.2298 286.468 62.2252Z" fill="#4F3422"/>
<path fill-rule="evenodd" clip-rule="evenodd" d="M273.279 67.3082L271.155 65.1956C270.565 64.6194 270.565 63.6739 271.14 63.083C271.14 63.083 271.14 63.083 271.155 63.0682C271.745 62.4773 272.689 62.4773 273.279 63.0682L275.404 65.1808C275.994 65.757 275.994 66.7025 275.418 67.2934C275.418 67.2934 275.418 67.2934 275.404 67.3082C274.813 67.8844 273.869 67.8844 273.279 67.3082Z" fill="#4F3422"/>
<path fill-rule="evenodd" clip-rule="evenodd" d="M270.388 78.2688L267.363 78.0029C266.537 77.929 265.932 77.2051 266.006 76.3926C266.08 75.5653 266.803 74.9596 267.629 75.0334L270.653 75.2994C271.479 75.3732 272.084 76.0971 272.011 76.9097C271.937 77.737 271.214 78.3427 270.388 78.2688Z" fill="#4F3422"/>
<path d="M293.166 95.3468C293.151 95.3468 293.151 95.3468 293.166 95.3468L282.499 95.2877C281.393 95.2877 280.508 94.3865 280.523 93.2785C280.523 92.1852 281.423 91.2988 282.514 91.2988C282.514 91.2988 282.514 91.2988 282.529 91.2988L293.18 91.3579C294.287 91.3579 295.172 92.2591 295.157 93.3671C295.142 94.4604 294.257 95.3468 293.166 95.3468Z" fill="#4F3422"/>
<path d="M290.731 102.542H284.875C283.768 102.542 282.883 101.64 282.883 100.547C282.883 99.4539 283.783 98.5527 284.875 98.5527H290.731C291.838 98.5527 292.723 99.4539 292.723 100.547C292.723 101.64 291.823 102.542 290.731 102.542Z" fill="#4F3422"/>
<path d="M244.035 24.7791C241.122 26.4609 237.335 26.1567 234.718 23.7781C234.536 23.6103 234.328 23.4572 234.123 23.3371C233.258 22.8129 232.237 22.6684 231.254 22.9122C230.27 23.1559 229.448 23.7672 228.925 24.632L228.751 24.9203C228.618 25.1333 228.486 25.3463 228.333 25.5539C226.961 27.455 224.933 28.6938 222.616 29.0764C220.304 29.4388 217.977 28.889 216.088 27.506L215.14 26.808C214.967 26.6859 214.789 26.584 214.611 26.4822C213.669 26.0022 212.6 25.9202 211.602 26.2574C210.597 26.5818 209.793 27.2847 209.315 28.2262C209.114 28.6153 208.885 28.9862 208.641 29.3315C207.396 31.0399 205.566 32.1478 203.483 32.4636C201.399 32.7793 199.319 32.2744 197.61 31.0262L194.546 28.7867C193.66 28.138 193.465 26.8858 194.112 26.0003C194.76 25.1149 196.011 24.9215 196.896 25.5702L199.961 27.8097C200.799 28.4348 201.832 28.6909 202.86 28.5239C203.896 28.3698 204.801 27.8131 205.424 26.9754C205.546 26.8027 205.66 26.6173 205.755 26.4264C206.704 24.5305 208.345 23.1229 210.355 22.474C212.37 21.805 214.517 21.9818 216.412 22.9344C216.774 23.118 217.145 23.3474 217.49 23.5915L218.451 24.2821C219.482 25.0346 220.743 25.3302 222.007 25.1294C223.27 24.9285 224.373 24.241 225.123 23.2105C225.196 23.1003 225.281 22.9827 225.354 22.8725L225.528 22.5843C226.597 20.807 228.286 19.5421 230.312 19.0379C232.325 18.541 234.426 18.8462 236.203 19.9183C236.642 20.1767 237.057 20.4829 237.429 20.8313C239.045 22.3034 241.55 22.1875 243.019 20.5717C243.161 20.4045 243.303 20.2373 243.43 20.0444L245.321 17.0935C245.913 16.1716 247.153 15.8994 248.075 16.493C248.997 17.0867 249.283 18.3202 248.678 19.2494L246.788 22.2004C246.546 22.5787 246.277 22.9387 245.973 23.2678C245.368 23.8728 244.725 24.3808 244.035 24.7791Z" fill="#FFCE5C"/>
<path d="M9.63341 132.294C4.3225 132.294 0 127.966 0 122.647C0 117.329 4.3225 113 9.63341 113C14.9443 113 19.2668 117.329 19.2668 122.647C19.2816 127.951 14.9443 132.294 9.63341 132.294ZM9.63341 116.974C6.52063 116.974 3.98319 119.515 3.98319 122.632C3.98319 125.75 6.52063 128.291 9.63341 128.291C12.7462 128.291 15.2836 125.75 15.2836 122.632C15.2836 119.515 12.7462 116.974 9.63341 116.974Z" fill="#C2B1FF"/>
<path d="M31.1736 285.965C30.5983 285.965 30.0377 285.728 29.6394 285.256C28.9313 284.413 29.0345 283.143 29.8902 282.449L61.0918 256.226C62.6261 254.94 63.5555 253.138 63.7325 251.144C63.9095 249.149 63.2899 247.214 62.0065 245.677C60.723 244.141 58.9232 243.21 56.9316 243.033C54.94 242.856 53.0074 243.476 51.4731 244.761L20.2715 270.984C19.4306 271.694 18.1766 271.59 17.4685 270.733C16.7604 269.891 16.8637 268.621 17.7193 267.926L48.921 241.688C51.2666 239.724 54.2319 238.778 57.2856 239.044C60.3394 239.31 63.0982 240.758 65.0602 243.092C67.0223 245.441 67.9665 248.41 67.7009 251.469C67.4354 254.527 65.9897 257.289 63.644 259.254L32.4424 285.492C32.0735 285.817 31.6162 285.965 31.1736 285.965Z" fill="#7D944D"/>
<path d="M155.964 311.642C149.37 311.642 144 306.117 144 299.321C144 292.525 149.37 287 155.964 287C157.071 287 157.956 287.901 157.956 288.994C157.956 290.102 157.056 290.989 155.964 290.989C151.568 290.989 147.983 294.727 147.983 299.306C147.983 303.901 151.568 307.624 155.964 307.624C157.071 307.624 157.956 308.525 157.956 309.618C157.956 310.711 157.071 311.642 155.964 311.642Z" fill="#FFCE5C"/>
</svg>
