<svg width="64" height="64" viewBox="0 0 64 64" fill="none" xmlns="http://www.w3.org/2000/svg">
<rect width="64" height="64" rx="32" fill="#4F3422"/>
<path d="M31.9999 35.5547C35.4364 35.5547 38.2222 38.3405 38.2222 41.7769C38.2222 45.2134 35.4364 47.9991 31.9999 47.9991C28.5635 47.9991 25.7777 45.2134 25.7777 41.7769C25.7777 38.3405 28.5635 35.5547 31.9999 35.5547Z" fill="white"/>
<path d="M22.2222 25.7773C25.6587 25.7773 28.4445 28.5631 28.4445 31.9996C28.4445 35.436 25.6587 38.2218 22.2222 38.2218C18.7858 38.2218 16 35.436 16 31.9996C16 28.5631 18.7858 25.7773 22.2222 25.7773Z" fill="white"/>
<path d="M31.9999 16C35.4364 16 38.2222 18.7858 38.2222 22.2222C38.2222 25.6587 35.4364 28.4444 31.9999 28.4444C28.5635 28.4444 25.7777 25.6587 25.7777 22.2222C25.7777 18.7858 28.5635 16 31.9999 16Z" fill="white"/>
<path d="M41.7778 25.7773C45.2142 25.7773 48 28.5631 48 31.9996C48 35.436 45.2142 38.2218 41.7778 38.2218C38.3413 38.2218 35.5556 35.436 35.5556 31.9996C35.5556 28.5631 38.3413 25.7773 41.7778 25.7773Z" fill="white"/>
</svg>
