<svg width="238" height="155" viewBox="0 0 238 155" fill="none" xmlns="http://www.w3.org/2000/svg">
<path d="M166.168 42.9826C233.496 65.9739 256.704 44.2128 307.141 57.6784C324.68 62.3664 366.955 74.0699 356.565 150.092C355.052 161.197 364.578 177.106 370.712 186.35C376.514 195.077 404.725 272.313 307.125 291.348C230.737 306.243 155.379 318.844 79.3071 290.866C52.7749 281.107 22.2862 271.033 7.24133 246.28C-6.42374 223.804 -0.106537 181.312 20.79 162.394C83.1972 105.889 38.9104 84.1773 86.9875 49.7653C105.789 36.3164 131.391 31.113 166.168 42.9826Z" fill="#F5F5F5"/>
<path d="M23.9491 133.751C25.6282 126.436 28.1218 118.989 30.283 111.624C30.7152 110.128 31.1806 108.582 32.1282 107.152C34.0566 104.243 37.4314 103.212 39.925 103.778C47.6885 105.54 49.7831 114.001 46.7242 122.347C44.4135 128.681 39.2766 136.427 32.7599 140.45C30.4991 141.847 27.8226 142.911 25.9274 142.279C22.8686 141.282 23.2177 136.943 23.9491 133.751Z" fill="#F5F5F5"/>
<path d="M249.197 154.409C251.514 157.549 252.012 158.679 255.019 160.25C259.194 162.433 263.158 159.752 265.973 155.941C280.355 136.426 291.942 95.0987 294.01 95.2327C349.26 99.2544 354.756 115.226 310.212 204.335C287.575 249.339 235.753 229.786 226.886 219.885C225.929 218.813 211.91 219.77 229.165 211.038C230.123 210.559 222.731 207.533 222.06 206.671C217.79 201.079 224.55 194.319 220.835 188.363C232.383 178.807 242.628 167.565 249.197 154.409Z" fill="#CFD9B5"/>
<path d="M201.53 164.941C201.703 164.424 202.182 164.099 202.641 163.812C212.063 157.702 222.616 153.374 233.608 151.115L245.807 150.1C247.722 152.34 249.599 154.6 251.438 156.917C244.371 172.564 232.957 186.141 219.896 197.823C213.193 187.942 207.161 177.581 201.875 166.876C201.607 166.244 201.301 165.554 201.53 164.941Z" fill="#3F3C36"/>
<path d="M196.321 100.555C217.406 114.65 236.002 132.997 253.774 150.558C244.447 162.642 232.899 174.248 219.398 181.391C240.675 213.124 269.133 286.51 267.198 314.7C266.796 320.732 267.505 327.09 264.709 332.452C261.894 337.853 256.857 341.377 251.227 343.962C247.301 323.739 241.824 303.784 235.37 284.231C213.653 216.36 196.474 147.475 165.067 84.1621C176.136 88.3561 186.497 93.9865 196.321 100.555Z" fill="#9BB168"/>
<path d="M157.867 81.6538C160.299 82.4199 162.712 83.2434 165.068 84.1435C196.475 147.475 213.653 216.342 235.37 284.212C241.824 303.765 247.301 323.72 251.227 343.943C248.45 345.227 245.52 346.261 242.647 347.18C219.169 354.649 194.732 358 170.066 358.9C168.744 265.674 147.085 172.295 126.613 76.6172C137.031 76.7321 147.621 78.4557 157.867 81.6538Z" fill="white"/>
<path d="M52.1743 120.587C61.3283 101.072 76.4766 88.4518 94.1911 81.9405C104.379 78.2061 115.41 76.4826 126.652 76.6166C147.124 172.313 168.764 265.673 170.105 358.9C151.088 359.589 131.937 358.804 112.997 357.329C110.546 357.138 107.807 356.793 106.237 354.897C104.188 352.427 105.184 348.75 106.084 345.666C111.58 326.822 109.531 306.695 106.907 287.237C102.637 255.524 97.0255 223.982 90.0737 192.728C89.5375 190.334 89.0013 187.902 88.6566 185.451C85.5541 186.983 82.4708 188.534 79.3876 190.066C68.4333 195.562 42.4265 181.908 39.0368 193.686C36.9685 167.526 40.5497 145.368 52.1743 120.587Z" fill="#9BB168"/>
<path d="M39.5337 200.198C44.6852 209.237 67.0151 206.211 89.4215 193.437C111.828 180.664 125.808 162.987 120.657 153.948C115.505 144.909 93.1751 147.935 70.7686 160.709C48.3622 173.482 34.3821 191.177 39.5337 200.198Z" fill="#3F3C36"/>
<path d="M104.762 151.095C109.55 156.305 117.401 166.32 122.189 171.51C130.998 160.939 143.6 153.604 157.139 151.172C179.22 147.208 193.219 171.932 193.794 173.234C193.794 173.234 189.638 187.425 184.602 180.147C183.51 178.577 181.116 180.013 181.978 181.718C186.9 191.465 178.703 197.134 175.294 191.389C176.271 200.792 172.307 212.876 167.193 220.804C157.561 235.742 145.821 247.826 127.819 251.867C86.1281 261.251 58.3019 225.401 46.0454 192.117C50.2969 182.254 82.815 152.436 104.762 151.095Z" fill="#CFD9B5"/>
<path d="M119.507 155.366C114.643 146.748 110.564 137.69 105.699 129.072C105.144 128.095 106.657 127.214 107.212 128.191C112.077 136.809 116.156 145.867 121.02 154.485C121.575 155.462 120.063 156.343 119.507 155.366Z" fill="#3F3C36"/>
<path d="M133.544 160.843C133.544 160.843 145.782 147.743 152.561 143.071C164.185 135.085 165.258 130.297 170.927 123.269C172.42 121.43 175.427 122.579 175.504 125.031C175.657 130.316 173.129 137.019 170.505 140.753C168.054 144.239 171.252 149.18 175.35 148.222C190.556 144.66 208.941 140.026 220.853 139.758C224.089 139.681 228.896 141.749 227.862 144.967C227.498 146.077 226.483 146.709 225.506 147.226C216.352 152.148 202.2 155.806 191.226 157.817C196.225 158.832 208.117 155.653 210.281 162.126C212.12 167.641 207.658 172.467 202.468 172.467C205.781 171.433 222.27 184.379 173.186 197.842L133.544 160.843Z" fill="#CFD9B5"/>
<path d="M132.913 160.211C139.137 153.565 145.61 146.939 153.04 141.654C158.575 137.709 162.788 133.151 166.638 127.616C168.361 125.146 172 118.596 175.543 122.771C177.228 124.744 176.309 128.267 175.792 130.546C175.006 134.127 173.532 137.421 171.693 140.562C170.736 142.19 170.066 143.569 171.081 145.407C172.421 147.801 174.738 147.437 177.017 146.901C181.25 145.905 185.482 144.89 189.714 143.933C197.087 142.247 204.48 140.639 211.968 139.624C216.659 138.992 224.492 137.211 227.978 141.692C232.344 147.284 220.356 150.655 216.985 151.899C208.731 154.944 200.094 157.032 191.457 158.64C191.457 158.085 191.457 157.511 191.457 156.955C197.049 157.913 205.341 154.906 209.803 159.636C215.127 165.267 208.75 173.042 202.469 173.329C201.473 173.367 201.301 171.855 202.239 171.606C204.958 170.878 207.85 173.961 208.463 176.317C210.091 182.387 202.564 187.079 198.236 189.435C190.499 193.667 181.882 196.329 173.417 198.666C172.325 198.972 171.866 197.268 172.957 196.98C181.365 194.644 189.963 192.039 197.624 187.788C200.879 185.969 204.939 183.556 206.471 179.936C207.448 177.638 205.744 172.486 202.718 173.31C202.641 172.735 202.564 172.161 202.488 171.586C210.187 171.223 212.887 160.498 204.48 159.043C200.017 158.277 195.46 159.426 191.017 158.66C190.174 158.506 190.193 157.128 191.017 156.974C197.815 155.71 204.556 154.121 211.163 152.053C214.476 151.018 217.77 149.85 220.949 148.471C222.29 147.878 223.898 147.322 225.105 146.461C228.437 144.067 226.292 141.749 223.439 140.964C220.873 140.256 218.019 140.715 215.415 140.983C211.738 141.366 208.08 141.96 204.422 142.65C197.336 143.971 190.289 145.599 183.28 147.246C179.047 148.242 172.421 151.363 169.587 146.307C168.687 144.718 168.591 142.822 169.319 141.137C170.64 138.111 172.517 135.602 173.513 132.346C174.068 130.527 174.528 128.631 174.623 126.735C174.643 126.237 174.815 125.05 174.585 124.571C173.053 121.277 171.061 124.514 170.41 125.375C169.031 127.214 167.767 129.148 166.427 131.006C163.401 135.238 159.82 138.819 155.664 141.922C147.87 147.782 140.861 154.312 134.196 161.456C133.392 162.279 132.147 161.034 132.913 160.211Z" fill="#3F3C36"/>
<path d="M171.694 124.533C172.479 128.593 169.472 132.844 165.163 132.749C164.033 132.729 164.033 130.968 165.163 131.006C168.266 131.082 170.583 127.98 170.008 124.992C169.798 123.901 171.483 123.422 171.694 124.533Z" fill="#3F3C36"/>
<path d="M224.358 141.616C223.075 141.577 221.791 141.616 220.547 141.999C219.934 142.19 219.34 142.324 218.995 142.918C218.478 143.243 218.459 143.588 218.957 143.971C219.11 144.526 219.474 144.775 220.068 144.68C222.289 144.929 224.626 144.814 226.866 144.871C227.996 144.909 227.996 146.652 226.866 146.614C224.473 146.556 221.945 146.71 219.57 146.365C218.344 146.193 217.157 145.541 216.87 144.239C216.046 140.294 221.791 139.758 224.339 139.854C225.488 139.892 225.488 141.654 224.358 141.616Z" fill="#3F3C36"/>
<path d="M174.03 152.55C174.413 154.025 174.777 155.499 175.16 156.974C175.447 158.065 173.743 158.525 173.475 157.433C173.092 155.959 172.728 154.484 172.345 153.01C172.057 151.918 173.762 151.458 174.03 152.55Z" fill="white"/>
<path d="M219.934 -1.44122L223.113 0.282349C225.047 1.71866 224.779 2.19743 225.22 4.55298L226.331 11.6005C226.369 11.8303 226.714 11.8303 226.752 11.6005L227.843 4.59128C228.284 2.23573 228.226 1.71866 230.142 0.2632L233.148 -1.46037C233.263 -1.53698 233.263 -1.70933 233.148 -1.80509L229.758 -3.43291C227.863 -4.86922 227.977 -5.82676 227.537 -8.18231L226.752 -14.8276C226.714 -15.0575 226.369 -15.0575 226.331 -14.8276L225.411 -7.93335C224.99 -5.59695 224.741 -4.62026 222.864 -3.18395L219.915 -1.80509C219.819 -1.69018 219.819 -1.51783 219.934 -1.44122Z" fill="white"/>
<path d="M158.02 35.884C160.644 33.6051 160.892 29.7174 160.395 26.2894C159.916 22.8615 158.882 19.3569 159.648 16.0055C160.414 12.6732 163.861 9.60909 167.365 10.6815C168.189 10.9305 168.955 11.3901 169.817 11.5242C173.111 12.0412 174.585 8.03872 176.711 5.70232C179.162 3.02121 183.778 2.40838 187.072 4.32347C190.385 6.23855 191.993 10.4709 190.71 13.8223C189.906 15.9097 188.412 18.7249 190.461 19.9122C191.074 20.2761 191.802 20.2952 192.51 20.3335C194.675 20.4485 196.915 20.7932 198.773 21.9039C200.65 23.0147 202.067 25.0063 201.875 27.0555C201.607 29.8515 198.658 31.4985 196.092 32.8582C193.525 34.2179 190.729 36.267 191.036 39.0822C191.247 40.8824 192.721 42.4144 193.047 44.1955C193.621 47.317 190.615 49.845 187.665 51.1664C184.276 52.6793 180.541 53.5411 176.749 53.656C174.624 53.7326 172.421 53.5602 170.41 54.1539C168.4 54.7476 166.542 56.3562 166.561 58.3862L158.02 35.884Z" fill="#3F3C36"/>
<path d="M146.204 62.6945L130.826 61.6604C134.694 43.2181 152.16 33.2406 163.459 28.6061C169.166 26.2697 173.321 25.293 173.321 25.293L171.617 44.7119L166.906 98.2959C165.948 109.097 156.009 116.642 145.304 114.88C145.131 114.861 144.959 114.823 144.787 114.804C131.879 112.64 125.157 98.2001 131.841 86.9394C138.926 74.9127 146.204 62.6945 146.204 62.6945Z" fill="#CFD9B5"/>
<path d="M180.119 59.0185C176.347 61.2783 171.482 60.0526 169.222 56.2799C166.963 52.5072 168.188 47.6429 171.961 45.3831C175.734 43.1233 180.598 44.349 182.858 48.1217C185.098 51.8944 183.892 56.7779 180.119 59.0185Z" fill="#CFD9B5"/>
<path d="M172.134 51.9699C174.987 51.3762 177.841 50.7825 180.694 50.2272C181.805 50.0165 182.265 51.7018 181.154 51.9124C178.301 52.4678 175.447 53.0615 172.594 53.6552C171.502 53.9041 171.023 52.1997 172.134 51.9699Z" fill="#3F3C36"/>
<path d="M146.185 62.6949L131.631 87.5335L157.58 62.6758L146.185 62.6949Z" fill="#3F3C36"/>
<path d="M155.875 33.6999C151.183 35.481 146.395 37.6833 142.125 40.3261C142.125 39.8282 142.125 39.3111 142.125 38.8132C143.982 39.6558 145.821 40.4793 147.678 41.322C148.713 41.7816 147.813 43.2945 146.798 42.8349C144.94 41.9922 143.101 41.1688 141.244 40.3261C140.612 40.0389 140.727 39.1196 141.244 38.8132C145.648 36.0938 150.57 33.834 155.415 32.0147C156.469 31.6125 156.928 33.2978 155.875 33.6999Z" fill="#3F3C36"/>
<path d="M144.978 44.1758L143.829 46.8186C148.291 49.6529 153.327 51.4914 158.537 52.3532C159.456 51.7978 160.337 51.185 161.16 50.4956C155.377 49.7104 149.765 47.5272 144.978 44.1758Z" fill="white"/>
<path d="M144.557 55.2071C147.506 55.5901 150.532 55.3603 153.386 54.5368C152.543 54.0772 151.662 53.6942 150.705 53.4452C148.483 52.9664 146.089 53.5984 144.557 55.2071Z" fill="#ED7E1C"/>
<path d="M143.848 46.8008L140.611 54.2888C141.894 54.7292 143.235 55.0165 144.576 55.1888C146.088 53.5802 148.501 52.9673 150.723 53.427C151.681 53.6951 152.561 54.0589 153.404 54.5186C155.204 54.0015 156.947 53.2738 158.556 52.3162C153.327 51.4927 148.291 49.6543 143.848 46.8008Z" fill="#3F3C36"/>
<path d="M158.383 38.4108C162.194 37.549 165.948 38.9662 168.323 42.0495C169.012 42.9496 167.48 43.8114 166.81 42.9304C164.933 40.4983 161.831 39.4258 158.862 40.0961C157.751 40.3642 157.292 38.6598 158.383 38.4108Z" fill="#3F3C36"/>
<path d="M162.463 40.2871C162.329 41.034 162.885 41.8384 163.632 41.9724C164.378 42.1065 165.183 41.5702 165.336 40.8425C164.742 41.3979 163.574 40.9766 163.497 40.1722C164.053 40.1148 164.627 40.3637 164.972 40.8042L162.463 40.2871Z" fill="#3F3C36"/>
<path d="M163.324 40.2879C163.228 41.0923 164.243 41.4561 164.473 40.5944C164.952 40.8816 165.45 41.1689 165.929 41.4561C164.818 42.3562 162.903 41.9349 162.635 40.4029C162.539 39.8283 162.865 39.3113 163.477 39.2921C164.282 39.2538 165.048 39.5794 165.565 40.173C166.312 41.0157 165.086 42.2605 164.32 41.4178C164.071 41.1306 163.841 41.0348 163.458 41.0348C163.746 40.671 164.014 40.2879 164.301 39.9241C164.32 40.039 164.512 40.3454 164.684 40.2113C165.335 39.6751 166.388 40.1539 166.139 41.0731C165.833 42.2222 164.684 43.0457 163.477 42.835C162.309 42.6435 161.428 41.4753 161.562 40.2879C161.62 39.8092 161.926 39.407 162.443 39.407C162.884 39.407 163.382 39.8092 163.324 40.2879Z" fill="#3F3C36"/>
<path d="M161.754 41.3044C163.42 41.2661 164.952 41.879 166.158 43.0088C166.982 43.7749 165.737 45.0197 164.914 44.2537C164.033 43.4302 162.941 43.0472 161.735 43.0663C160.624 43.0855 160.624 41.3236 161.754 41.3044Z" fill="#3F3C36"/>
<path d="M196.418 31.2877C193.469 32.1878 192.052 35.7498 194.35 38.1628C195.211 39.0629 196.552 39.3693 197.337 40.3652C198.505 41.8589 198.295 43.9272 197.567 45.5551C195.307 50.6683 189.141 51.4152 184.257 51.7599C183.127 51.8365 183.127 50.0938 184.257 50.0172C187.953 49.7682 192.128 49.4618 194.809 46.5892C196.514 44.7507 196.897 42.4143 194.848 40.6524C194.005 39.9247 193.22 39.6758 192.511 38.6991C189.964 35.1753 192.052 30.7898 195.939 29.6024C197.031 29.2577 197.51 30.9621 196.418 31.2877Z" fill="#3F3C36"/>
<path d="M191.744 25.5417C188.182 24.6799 188.469 20.7349 190.021 18.2261C191.629 15.6024 194.272 13.0745 193.621 9.66569C192.817 5.41421 187.684 4.51412 184.831 7.23354C184.007 8.01872 182.782 6.77392 183.586 5.98874C186.727 3.00121 191.802 3.09696 194.31 6.86967C195.574 8.76561 195.727 11.0446 195.038 13.1894C194.368 15.3152 187.876 22.8223 192.223 23.8564C193.295 24.1054 192.836 25.7907 191.744 25.5417Z" fill="#3F3C36"/>
<path d="M159.532 28.1274C158.939 24.9101 157.062 21.9992 156.832 18.7052C156.641 16.0624 157.502 13.3622 159.092 11.2556C160.413 9.51284 162.577 7.55946 164.895 7.55946C166.235 7.55946 167.04 8.22974 168.131 8.90002C170.506 10.3363 173.244 10.3555 175.064 7.90418C175.734 7.00409 177.247 7.88503 176.577 8.78511C175.447 10.298 174.01 11.313 172.095 11.6194C169.223 12.0791 167.48 9.89586 164.856 9.85756C160.988 9.80011 158.575 14.3005 158.537 17.8818C158.498 21.2906 160.586 24.3547 161.199 27.6678C161.428 28.7594 159.743 29.2382 159.532 28.1274Z" fill="#3F3C36"/>
<path d="M134.043 115.093C141.512 121.145 152.619 122.083 160.835 116.931C168.802 111.933 172.843 101.975 171.062 92.8398C170.851 91.729 172.536 91.2694 172.747 92.3801C174.662 102.319 170.372 113.025 161.716 118.464C152.792 124.056 140.88 122.887 132.798 116.357C131.917 115.629 133.162 114.384 134.043 115.093Z" fill="#3F3C36"/>
<path d="M139.558 47.5092C143.407 43.3918 148.961 41.5342 154.266 44.0621C159.494 46.5517 162.232 51.9714 162.673 57.5443C162.883 60.1679 158.785 60.1488 158.575 57.5443C157.904 48.9072 149.057 43.3343 142.43 50.401C140.649 52.3352 137.758 49.4435 139.558 47.5092Z" fill="#3F3C36"/>
<path d="M167.939 28.6264C170.889 28.952 173.168 31.2692 173.436 34.2376C173.531 35.3675 171.789 35.3483 171.674 34.2376C171.501 32.3034 169.874 30.5989 167.939 30.3883C166.829 30.2542 166.829 28.4924 167.939 28.6264Z" fill="#3F3C36"/>
<path d="M173.839 42.9886C168.304 39.9245 162.769 36.8604 157.235 33.7962C157.637 33.7005 158.039 33.5856 158.441 33.4898C156.718 36.9753 156.814 41.5332 159.859 44.2526C164.053 47.987 170.545 46.206 173.513 41.8013C174.145 40.8629 175.658 41.7438 175.026 42.6822C171.598 47.738 164.512 49.8638 159.399 46.1294C155.09 42.9695 154.669 37.1668 156.909 32.6089C157.12 32.1684 157.714 32.0727 158.116 32.3025C163.65 35.3666 169.185 38.4307 174.72 41.4949C175.715 42.0311 174.815 43.544 173.839 42.9886Z" fill="#3F3C36"/>
<path d="M151.145 30.0804C145.611 27.0163 140.076 23.9522 134.542 20.888C134.944 20.7923 135.346 20.6774 135.748 20.5816C134.024 24.0671 134.12 28.625 137.165 31.3444C141.359 35.0788 147.851 33.2978 150.82 28.8931C151.452 27.9547 152.965 28.8356 152.333 29.774C148.905 34.8298 141.819 36.9556 136.706 33.2212C132.397 30.0613 131.975 24.2586 134.216 19.7007C134.427 19.2602 135.02 19.1645 135.422 19.3943C140.957 22.4584 146.492 25.5225 152.026 28.5867C153.022 29.1037 152.141 30.6166 151.145 30.0804Z" fill="#3F3C36"/>
<path d="M156.143 36.2656C153.845 35.04 151.528 33.7952 149.23 32.5695C148.234 32.0333 149.115 30.5204 150.11 31.0566C152.409 32.2823 154.726 33.5271 157.024 34.7527C158.02 35.2889 157.139 36.8019 156.143 36.2656Z" fill="#3F3C36"/>
<path d="M142.871 45.0762C134.713 50.1894 127.781 57.8689 126.9 67.4635C126.746 69.2445 126.88 71.217 128.087 72.5384C129.772 74.3769 135 74.4918 137.471 74.0322C146.587 72.3086 152.543 70.0488 160.72 65.7016C163.669 64.1312 167.212 61.1629 169.204 58.4626C171.195 55.7623 172.038 51.9896 170.487 49.0212C166.925 53.4451 162.329 57.1412 156.986 59.0754C153.175 60.4543 139.807 63.3077 140.018 55.973C140.094 53.4642 141.895 51.0704 143.848 49.4809L142.871 45.0762Z" fill="#3F3C36"/>
<path d="M200.128 83.0211L204.346 85.3304C206.914 87.2392 206.561 87.8754 207.15 91.0331L208.634 100.412C208.682 100.718 209.153 100.718 209.2 100.412L210.661 91.1038C211.25 87.9697 211.179 87.2863 213.724 85.354L217.73 83.0447C217.872 82.9268 217.872 82.6912 217.73 82.5969L213.206 80.429C210.685 78.4967 210.826 77.2242 210.26 74.1136L209.2 65.2298C209.153 64.9234 208.682 64.9234 208.634 65.2298L207.409 74.3964C206.844 77.507 206.537 78.803 204.016 80.7118L200.104 82.5498C199.963 82.6912 199.963 82.9033 200.128 83.0211Z" fill="#FFBD1A"/>
<path d="M94.1567 43.0504L98.3748 45.3597C100.943 47.2685 100.59 47.9047 101.179 51.0624L102.687 60.4176C102.734 60.7239 103.206 60.7239 103.253 60.4176L104.714 51.1095C105.303 47.9754 105.232 47.292 107.777 45.3597L111.783 43.0504C111.925 42.9326 111.925 42.6969 111.783 42.6027L107.259 40.4347C104.737 38.5024 104.879 37.2299 104.313 34.1194L103.276 25.2591C103.229 24.9527 102.758 24.9527 102.711 25.2591L101.485 34.4257C100.92 37.5363 100.59 38.8323 98.092 40.7411L94.1803 42.5791C94.0153 42.7205 94.0153 42.9561 94.1567 43.0504Z" fill="#FFBD1A"/>
</svg>
