<svg width="259" height="280" viewBox="0 0 259 280" fill="none" xmlns="http://www.w3.org/2000/svg">
<path d="M73.3236 71.8633C71.3402 75.5214 67.0142 77.1966 62.9448 78C58.8753 78.8034 54.5664 79.094 50.9415 81.1453C48.0005 82.8205 45.7264 85.641 44.7176 88.8546C44.5295 89.47 44.3756 90.1367 44.5637 90.735C45.1622 92.6837 48.1031 92.3076 49.7617 93.47C51.5058 94.7007 51.369 97.5041 50.0866 99.2306C48.8042 100.94 46.7523 101.88 44.8544 102.855C42.9564 103.846 40.9901 105.094 40.1864 107.077C39.2289 109.453 40.289 112.325 42.2554 113.983C44.2217 115.624 46.9062 116.222 49.471 116.188C51.1809 116.171 52.9249 115.897 54.4638 115.128C57.5587 113.555 59.2514 110.239 61.2691 107.419C63.2696 104.598 66.3816 101.88 69.7842 102.513C70.1091 102.581 70.4511 102.684 70.6049 102.974C70.793 103.333 70.5878 103.778 70.5537 104.188C70.4853 105.162 71.5112 105.966 72.4858 105.966C73.4775 105.966 74.3496 105.367 75.0677 104.684C77.0682 102.752 78.1455 99.8973 77.9232 97.1281C77.718 94.6324 76.9485 91.299 79.2398 90.2905C79.8553 90.017 80.5735 90.0341 81.2403 89.9486C85.6518 89.4016 88.4046 83.5726 86.0279 79.8119C84.5062 77.4017 81.6678 76.2393 79.0175 75.2308L73.3236 71.8633Z" fill="#4F3422"/>
<path d="M76.3156 92.9061C75.8026 94.1711 75.5804 95.436 75.8197 96.8035C76.1788 98.889 77.1021 99.7095 75.5462 101.932C73.084 105.47 69.1513 105.573 65.287 105.658C60.0548 105.761 57.4729 109.573 57.5242 114.581C57.5584 118.154 59.5076 123.521 64.073 122.239C65.3725 121.88 66.7404 120.803 66.843 119.367C66.9797 117.265 64.0901 116.513 62.4486 116.393C61.4398 116.325 61.4569 117.88 62.4486 117.949C65.3383 118.171 65.5093 120.974 62.7393 120.838C61.4911 120.786 60.5677 119.863 60.0206 118.838C59.1144 117.162 58.9605 115.026 59.1486 113.162C59.405 110.769 60.4481 108.256 62.9274 107.47C65.0476 106.786 67.4414 107.436 69.6129 107.094C72.4513 106.65 75.1358 105.111 76.8628 102.803C77.6322 101.761 78.299 100.598 78.1623 99.248C77.94 96.9745 76.8286 95.6753 77.8203 93.2993C78.1965 92.3933 76.6918 91.9831 76.3156 92.9061Z" fill="#4F3422"/>
<path d="M69.7326 76.3771C60.79 76.5822 52.0526 79.4882 44.8883 84.8728C42.6142 86.5821 39.3654 88.9753 41.4515 92.0693C41.896 92.7189 42.5287 93.2317 43.1271 93.7274C43.5717 94.0864 44.2385 94.377 44.5121 94.8898C44.8541 95.5735 44.324 97.9838 43.6572 98.4282C42.8706 98.941 41.4002 99.0778 40.4939 99.3342C39.9981 99.471 39.3654 99.7786 38.8525 99.7957C38.2027 100.086 37.6214 99.847 37.1084 99.112C35.5524 98.6675 35.3472 98.2915 36.4928 97.9838C37.3991 97.5393 36.6125 96.1889 35.7063 96.6334C34.2358 97.3513 33.1586 98.0863 34.0306 99.8812C34.7659 101.385 36.4245 101.762 37.9804 101.573C40.2545 101.283 43.4178 100.531 45.4354 99.3855C46.8546 98.5821 47.4702 97.1462 46.8717 95.5906C46.564 94.7872 45.9655 94.1035 45.367 93.5223C45.008 93.1804 44.5463 92.8727 44.1701 92.5479C43.8111 92.2744 43.4691 91.9838 43.1442 91.659C43.1784 90.5308 43.2126 89.3856 43.2468 88.2574C43.9479 86.9411 46.1878 85.83 47.4189 84.9924C48.5816 84.2061 49.7956 83.4711 51.0438 82.8044C56.8231 79.7104 63.218 78.0865 69.7497 77.9497C70.7414 77.9155 70.7414 76.36 69.7326 76.3771Z" fill="#4F3422"/>
<path d="M179.301 33.2488C177.386 30.9753 174.12 30.189 171.299 30.9582C168.118 31.83 165.605 34.7701 165.896 38.1547C166.118 40.8214 170.29 40.753 170.068 38.0693C169.897 36.0009 171.914 34.5821 173.983 34.8385C176.274 35.1291 177.335 37.3171 177.027 39.2487C176.616 41.7616 174.291 42.8043 171.897 42.8556C170.324 42.8898 168.666 43.0949 167.537 44.3085C166.237 45.7102 165.896 48.0692 165.485 49.8641C164.887 52.4794 168.922 53.5051 169.52 50.8897C169.726 50.0008 169.948 49.129 170.187 48.2572C170.324 47.7615 170.375 47.2487 170.786 47.0949C171.282 46.9239 171.897 47.0265 172.41 47.0094C173.197 46.9923 174 46.9068 174.77 46.7017C177.642 45.9667 180.07 43.7444 180.908 40.8898C181.695 38.2915 181.062 35.3342 179.301 33.2488Z" fill="#C2B1FF"/>
<path d="M167.007 54.4101C164.391 53.7605 163.365 57.8118 165.981 58.4443C168.58 59.0938 169.606 55.0597 167.007 54.4101Z" fill="#C2B1FF"/>
<path d="M8.43368 159.315C5.47561 159.007 2.58594 160.717 1.08126 163.212C-0.61151 166.05 -0.372129 169.896 2.19267 172.153C4.19321 173.913 7.15128 170.973 5.13364 169.195C3.57766 167.828 4.03932 165.4 5.71499 164.153C7.57874 162.768 9.85286 163.606 10.9643 165.212C12.4006 167.298 11.4772 169.674 9.78447 171.366C8.67306 172.477 7.63004 173.776 7.66424 175.435C7.69843 177.349 9.10052 179.281 10.0409 180.853C11.4259 183.144 15.0509 181.093 13.6659 178.785C13.2042 178.016 12.7425 177.229 12.3151 176.426C12.0757 175.965 11.7337 175.571 11.9389 175.178C12.1783 174.717 12.6912 174.358 13.0503 173.982C13.5975 173.418 14.1275 172.802 14.5379 172.135C16.0939 169.623 16.2991 166.341 14.9141 163.691C13.6488 161.298 11.1353 159.589 8.43368 159.315Z" fill="#C2B1FF"/>
<path d="M14.2641 183.076C11.9387 184.426 14.0077 188.05 16.3331 186.7C18.6585 185.349 16.5896 181.743 14.2641 183.076Z" fill="#C2B1FF"/>
<path d="M255.253 84.9397C252.773 83.2987 249.422 83.4355 246.925 84.9739C244.104 86.7004 242.531 90.2218 243.728 93.3841C244.686 95.8798 248.67 94.6662 247.712 92.1363C246.977 90.2047 248.516 88.2731 250.585 87.9483C252.876 87.5893 254.5 89.4012 254.74 91.3329C255.047 93.8628 253.098 95.5038 250.824 96.2217C249.319 96.6832 247.798 97.3499 247.045 98.8371C246.173 100.546 246.515 102.905 246.618 104.752C246.772 107.435 250.944 107.299 250.79 104.615C250.738 103.709 250.704 102.803 250.704 101.897C250.704 101.384 250.602 100.871 250.961 100.615C251.388 100.324 252.004 100.239 252.5 100.085C253.252 99.8456 254.004 99.5379 254.688 99.1448C257.253 97.6405 258.946 94.8371 258.963 91.8628C258.929 89.1277 257.51 86.444 255.253 84.9397Z" fill="#C2B1FF"/>
<path d="M249.319 108.684C246.635 108.786 246.772 112.957 249.456 112.854C252.141 112.752 252.004 108.581 249.319 108.684Z" fill="#C2B1FF"/>
<path d="M75.4092 266.511C61.0292 281.195 35.1589 277.143 24.3868 258.391C15.3074 242.597 18.6245 220.511 24.1645 203.982C32.218 179.965 47.5726 158.734 63.6795 138.939C79.1196 119.931 92.7472 108.495 114.497 95.9823C136.486 83.3328 159.141 75.9653 184.567 80.8884C217.79 87.3157 231.486 115.897 245.353 144.17C259.305 172.648 263.272 207.076 253.868 237.708C249.046 253.417 238.872 263.759 223.979 272.084C210.967 279.349 194.296 279.212 180.634 273.468C166.955 267.708 149.036 262.921 143.376 232.836L75.4092 266.511Z" fill="#E1E1E0"/>
<path d="M154.713 263.092C160.031 267.075 166.323 269.502 172.171 272.562C176.804 274.989 181.9 276.579 186.995 277.639C197.955 279.912 210.608 280.152 220.491 274.169C221.346 273.639 220.56 272.289 219.705 272.818C209.805 278.818 196.912 278.34 186.004 275.827C181.13 274.699 176.394 273.075 172 270.682C166.477 267.673 160.578 265.536 155.517 261.742C154.696 261.126 153.909 262.494 154.713 263.092Z" fill="#4F3422"/>
<path d="M198.195 236.427C186.226 257.692 166.938 269.538 155.106 262.889C143.274 256.239 143.376 233.607 155.345 212.342C167.315 191.077 186.602 179.231 198.434 185.881C210.249 192.53 210.147 215.163 198.195 236.427Z" fill="#4F3422"/>
<path d="M91.6869 246.633C79.7178 267.897 60.4305 279.743 48.5983 273.094C36.766 266.444 36.8686 243.812 48.8376 222.547C60.8067 201.282 80.094 189.436 91.9262 196.086C103.741 202.735 103.639 225.368 91.6869 246.633Z" fill="#4F3422"/>
<path d="M183.934 215.605C182.583 215.981 181.814 214.101 183.028 213.434C184.003 212.887 184.977 212.323 185.918 211.742C185.148 209.52 184.259 207.332 183.267 205.195C182.361 205.486 181.318 205.725 180.224 205.913C177.454 206.374 176.086 202.682 178.497 201.263C179.164 200.87 179.882 200.443 180.617 200.016C179.027 197.178 177.249 194.46 175.299 191.845L172.273 194.118C173.367 193.298 174.359 192.528 175.248 191.776C173.453 189.4 171.521 187.11 169.469 184.973C165.69 187.161 161.364 188.665 157.141 189.178C154.61 189.486 153.584 186.084 155.858 184.922C158.782 183.434 162.236 182.323 165.382 181.058C163.125 179.058 160.731 177.212 158.235 175.537C131.339 184.17 119.626 196.665 78.7604 199.571C59.4218 200.939 43.0755 238.545 50.3253 254.767C52.8046 260.306 57.3529 263.195 62.9954 264.631C75.58 267.861 89.0025 266.613 101.519 263.143C114.052 259.673 125.85 254.049 137.597 248.443C148.061 243.451 158.543 238.46 169.007 233.468C175.932 230.169 183.113 226.631 188.534 221.383C188.089 219.075 187.508 216.785 186.824 214.545C185.747 215.007 184.755 215.366 183.934 215.605Z" fill="#ED7E1C"/>
<path d="M163.211 102.615L116.719 68.4102C111.949 72.2392 107.161 76.0511 102.288 79.7263C102.733 92.3245 105.793 107.606 116.565 116.581L124.294 104.154C124.294 104.154 131.304 115.675 138.212 127.008C144.676 137.606 159.774 138.41 167.331 128.547C167.434 128.41 167.537 128.29 167.622 128.153C173.863 119.982 171.862 108.222 163.211 102.615Z" fill="#ED7E1C"/>
<path d="M136.314 74.1034C136.536 78.2573 133.339 81.8128 129.167 82.0179C125.012 82.2401 121.455 79.0436 121.25 74.8727C121.028 70.7188 124.225 67.1633 128.397 66.9582C132.552 66.736 136.092 69.9325 136.314 74.1034Z" fill="#ED7E1C"/>
<path d="M128.415 78.0342C129.185 75.3847 129.954 72.718 130.775 70.0855C131.066 69.1283 129.561 68.7009 129.27 69.6753C128.45 72.3248 127.68 74.9744 126.911 77.624C126.62 78.5983 128.142 79.0086 128.415 78.0342Z" fill="#4F3422"/>
<path d="M124.277 104.171L138.606 127.418L129.339 94.6152L124.277 104.171Z" fill="#4F3422"/>
<path d="M102.698 82.957C102.083 87.7604 101.792 92.8031 102.117 97.6407C102.151 98.1535 102.784 98.7176 103.297 98.3074C104.819 97.1279 106.357 95.9484 107.879 94.7689C108.666 94.1706 107.879 92.8031 107.093 93.4185C105.571 94.598 104.032 95.7775 102.51 96.9569C102.903 97.1792 103.297 97.4014 103.69 97.6407C103.382 92.8031 103.673 87.7604 104.271 82.957C104.374 81.9485 102.818 81.9656 102.698 82.957Z" fill="#4F3422"/>
<path d="M111.641 86.018C113.864 85.8129 116.086 85.6249 118.309 85.4198C119.301 85.3343 119.318 83.7616 118.309 83.8471C116.086 84.0522 113.864 84.2403 111.641 84.4454C110.649 84.548 110.632 86.1035 111.641 86.018Z" fill="#4F3422"/>
<path d="M109.914 81.0603C112.205 79.2825 114.342 77.3338 116.326 75.2312C117.01 74.4962 115.915 73.3851 115.214 74.1201C113.231 76.2227 111.093 78.1714 108.802 79.9492C108.016 80.5645 109.127 81.6756 109.914 81.0603Z" fill="#4F3422"/>
<path d="M113.744 101.334C113.847 101.317 113.727 101.317 113.693 101.317C113.59 101.283 113.556 101.249 113.488 101.18C113.402 101.095 113.505 101.249 113.471 101.146C113.454 101.078 113.454 101.078 113.471 101.146C113.471 101.112 113.454 101.078 113.454 101.044C113.454 100.839 113.642 100.668 113.83 100.633C113.898 100.616 113.967 100.616 114.018 100.65C114.069 100.668 114.172 100.77 114.086 100.685C114.12 100.736 114.155 100.77 114.172 100.839C114.172 100.873 114.189 100.907 114.189 100.941C114.103 101.095 114.018 101.249 113.915 101.386C113.744 101.522 113.488 101.471 113.351 101.317C113.248 101.197 113.214 101.044 113.266 100.873C113.351 100.77 113.437 100.65 113.522 100.548C113.573 100.514 113.676 100.497 113.727 100.497C113.761 100.497 113.796 100.514 113.83 100.514C113.761 100.497 113.761 100.497 113.83 100.514C113.915 100.531 113.967 100.599 114.001 100.702C114.103 100.89 114.138 100.924 114.12 100.821C114.035 100.411 113.539 100.172 113.163 100.274C112.735 100.394 112.53 100.821 112.616 101.232C112.855 102.411 114.804 102.257 114.804 101.027C114.804 99.83 112.941 99.4539 112.633 100.685C112.359 101.779 113.813 102.719 114.633 101.881C115.352 101.18 114.77 99.6761 113.71 99.7958C113.3 99.8471 112.906 100.121 112.924 100.582C112.992 100.941 113.317 101.386 113.744 101.334Z" fill="#4F3422"/>
<path d="M171.896 247.212C153.515 242.512 106.477 202.033 89.6348 173.589C84.6591 165.196 80.5725 156.581 78.5206 147.042C77.4434 142.051 79.2046 136.649 82.4533 136.444C80.5725 132.717 82.6414 128.598 86.2663 126.529C87.6171 125.743 89.5664 127.487 90.4384 126.188C91.1565 125.111 91.1394 123.726 91.0881 122.427C90.7975 115.914 92.1825 105.777 95.8587 100.085C97.4146 97.675 101.211 98.7177 101.279 101.589C101.33 103.658 101.074 105.846 100.8 107.008C99.1587 114.085 100.441 120.085 101.005 127.35C101.399 132.376 102.903 136.393 105.537 139.914C107.674 142.769 112.273 141.145 112.068 137.572C111.914 134.803 110.854 131.897 109.384 129.777C107.965 127.76 106.443 124.94 105.605 122.119C104.562 118.564 106.802 114.957 109.794 117.128C127.594 130.068 128.449 138.683 138.588 148.29C154.969 163.794 171.503 179.418 190.671 191.298C194.364 193.589 198.314 195.897 200.52 199.64C204.982 207.196 201.46 220.29 197.39 228.067C190.038 242.187 179.916 249.247 171.896 247.212Z" fill="#ED7E1C"/>
<path d="M172.102 246.444C165.724 244.752 159.842 240.923 154.404 237.282C146.471 231.966 138.999 225.966 131.817 219.692C116.993 206.735 102.39 192.291 91.7721 175.59C87.9762 169.624 84.6419 163.282 82.1626 156.65C80.8973 153.282 79.6833 149.693 79.1362 146.12C78.7087 143.299 78.9139 137.727 82.6414 137.18C83.1885 137.094 83.2911 136.428 83.103 136.035C81.7523 132.941 83.2398 128.188 86.8477 127.368C88.301 127.043 89.8912 128 91.0197 126.633C92.2166 125.197 91.8234 122.838 91.7892 121.146C91.755 118.565 91.9431 115.966 92.3192 113.419C92.6441 111.146 93.1058 108.872 93.7726 106.667C94.354 104.753 95.4996 100.12 97.7737 99.5733C101.535 98.6673 100.356 104.872 100.014 106.787C99.4836 109.642 99.1245 112.394 99.1929 115.3C99.2955 120.633 99.6374 126.513 100.851 131.71C101.604 134.941 103.416 140.564 106.87 141.846C109.555 142.838 112.513 140.992 112.821 138.154C113.333 133.163 109.486 129.214 107.537 125.026C106.836 123.505 106.015 121.693 106.152 119.983C106.22 119.009 106.477 117.607 107.657 117.283C108.392 117.077 109.657 118.069 110.204 118.394C112.872 120 115.351 122.411 117.625 124.53C120.84 127.522 123.747 130.821 126.38 134.342C128.483 137.163 130.432 140.069 132.604 142.838C135.459 146.462 138.793 149.556 142.128 152.718C150.797 160.889 159.551 169.009 168.801 176.513C173.23 180.103 177.761 183.556 182.429 186.821C187.217 190.154 192.859 192.82 197.151 196.786C206.145 205.111 200.742 220.684 195.629 229.692C191.218 237.436 182.515 248.871 172.102 246.444C171.127 246.222 170.699 247.726 171.691 247.948C180.035 249.88 187.576 243.47 192.363 237.384C198.758 229.265 203.597 218.513 203.375 208C203.272 203.094 201.682 198.701 197.955 195.385C193.56 191.487 188.037 188.786 183.216 185.436C171.965 177.624 161.586 168.598 151.498 159.316C143.769 152.188 136.194 145.334 130.056 136.77C127.525 133.231 124.909 129.744 121.917 126.582C120.139 124.701 118.241 122.924 116.274 121.231C114.291 119.539 111.829 116.941 109.367 115.983C105.383 114.445 104.1 119.385 104.835 122.308C105.502 124.975 106.973 127.556 108.477 129.829C109.948 132.069 112.957 137.539 110.307 139.846C107.298 142.428 104.887 137.812 103.827 135.556C102.322 132.308 101.929 128.906 101.604 125.385C101.313 122.325 100.92 119.283 100.8 116.206C100.663 112.701 101.228 109.436 101.758 105.983C102.065 104.001 102.613 101.197 101.313 99.4536C100.304 98.1203 98.4234 97.6075 96.8846 98.2399C95.0892 98.975 94.2343 101.18 93.5332 102.838C92.3534 105.607 91.584 108.548 91.071 111.505C90.5923 114.257 90.3016 117.043 90.2503 119.83C90.2332 120.992 90.7119 122.975 90.2845 124C90.028 124.308 89.7715 124.599 89.515 124.906C89.2586 125.744 88.7969 126 88.1642 125.676C87.6513 125.761 87.1383 125.488 86.5912 125.607C84.4538 126.052 82.4362 128.616 81.6155 130.496C80.6921 132.65 80.846 134.753 81.7694 136.872C81.9232 136.496 82.0771 136.103 82.231 135.727C77.6144 136.411 77.0501 142.923 77.5973 146.496C78.6403 153.18 81.4616 159.778 84.4538 165.812C89.156 175.265 95.1918 183.829 101.98 191.897C115.881 208.393 132.108 223.419 149.668 235.948C156.319 240.701 163.672 245.897 171.691 248.017C172.666 248.222 173.076 246.7 172.102 246.444Z" fill="#4F3422"/>
<path d="M89.0022 126.702C89.6006 134.702 91.7892 142.206 95.8758 149.129C96.3888 150.001 97.7396 149.214 97.2266 148.343C93.2768 141.659 91.1566 134.428 90.5752 126.702C90.5069 125.693 88.9338 125.693 89.0022 126.702Z" fill="#4F3422"/>
<path d="M81.7356 136.667C82.1459 143.556 84.0097 150.137 87.2584 156.223C87.7372 157.112 89.088 156.325 88.6092 155.437C85.4973 149.59 83.7019 143.283 83.3086 136.667C83.2402 135.676 81.6672 135.676 81.7356 136.667Z" fill="#4F3422"/>
<path d="M95.5163 105.215C97.7049 104.36 99.1754 102.224 99.0044 99.8477C98.9361 98.8562 97.363 98.8391 97.4485 99.8477C97.5682 101.489 96.679 103.096 95.106 103.711C94.1655 104.07 94.5759 105.591 95.5163 105.215Z" fill="#4F3422"/>
<path d="M109.571 117.162C108.87 120.461 111.196 123.641 114.513 124.085C115.505 124.222 115.505 122.649 114.513 122.513C112.222 122.205 110.614 119.778 111.076 117.572C111.281 116.598 109.777 116.171 109.571 117.162Z" fill="#4F3422"/>
<path d="M103.433 150.034C104.681 148.957 105.912 147.863 107.161 146.786C107.913 146.12 106.802 145.026 106.049 145.675C104.801 146.752 103.57 147.846 102.322 148.923C101.569 149.59 102.681 150.684 103.433 150.034Z" fill="#E1E1E0"/>
<path d="M94.7986 158.854C95.8758 157.777 96.953 156.7 98.0302 155.623C98.7484 154.905 97.637 153.811 96.9188 154.512C95.8416 155.589 94.7644 156.666 93.6872 157.743C92.9861 158.461 94.0805 159.572 94.7986 158.854Z" fill="#E1E1E0"/>
<path d="M87.9416 166.239C88.5913 165.641 89.224 165.025 89.8737 164.427C90.609 163.743 89.4976 162.632 88.7623 163.316C88.1126 163.914 87.4799 164.53 86.8302 165.128C86.0949 165.829 87.2063 166.923 87.9416 166.239Z" fill="#E1E1E0"/>
<path d="M121.592 137.829C122.891 137.248 124.276 136.992 125.695 136.992C126.704 136.992 126.704 135.436 125.695 135.436C123.985 135.419 122.361 135.795 120.805 136.479C119.899 136.889 120.685 138.24 121.592 137.829Z" fill="#E1E1E0"/>
<path d="M172.101 177.161C174.478 174.084 177.915 170.649 181.642 171.794C184.737 172.768 186.003 176.375 186.823 179.503C187.849 177.606 189.114 175.486 191.474 175.435C192.671 175.401 193.817 175.965 194.672 176.819C196.262 178.392 196.809 180.58 197.339 182.683C197.647 179.862 201.921 179.161 204.042 181.042C206.162 182.922 206.606 186.033 206.812 188.854C207.376 196.529 207.188 204.529 203.7 211.435C203.272 212.272 202.503 212.905 201.562 213.041C199.186 213.366 198.365 210.306 198.331 208.05C198.211 202.101 196.159 187.366 196.159 187.366C196.159 187.366 194.757 198.836 193.646 203.264C193.321 204.563 193.287 205.999 192.62 207.571C190.79 211.982 184.806 210.905 184.891 206.136C184.942 203.178 185.25 200.204 185.301 197.725C185.421 193.11 185.541 188.495 185.661 183.862C181.249 191.948 176.188 200.614 167.468 203.794C167.074 203.93 166.63 203.982 166.219 203.879C164.663 203.486 164.766 201.657 165.125 200.306C166.955 193.315 172.751 186.495 176.957 180.614L172.101 177.161Z" fill="#ED7E1C"/>
<path d="M172.649 177.726C174.547 175.333 177.368 171.863 180.788 172.461C184.173 173.06 185.268 176.854 186.054 179.726C186.225 180.359 187.166 180.512 187.491 179.914C188.619 177.846 190.312 175.213 193.133 176.649C195.373 177.795 196.04 180.683 196.587 182.906C196.775 183.641 197.938 183.675 198.092 182.906C198.485 181.025 200.657 180.41 202.349 180.991C204.128 181.606 205.034 183.504 205.495 185.196C206.333 188.324 206.282 191.897 206.265 195.111C206.248 198.581 205.957 202.085 205.085 205.452C204.726 206.837 204.128 210.136 203.016 211.059C202.093 211.333 201.152 211.589 200.229 211.863C199.921 211.521 199.699 211.128 199.579 210.683C199.272 209.931 199.186 209.162 199.118 208.358C198.605 201.264 197.887 194.222 196.895 187.179C196.758 186.222 195.459 186.598 195.356 187.384C194.587 193.555 193.954 200 192.278 206.017C191.646 208.29 189.577 210.786 187.029 209.093C184.84 207.64 185.695 203.982 185.832 201.777C186.208 195.829 186.242 189.846 186.396 183.897C186.413 183.128 185.302 182.82 184.943 183.504C181.096 190.512 176.838 198.239 169.469 202.085C168.408 202.649 166.015 204.307 165.656 201.589C165.536 200.615 166.254 199.128 166.596 198.239C167.434 196.034 168.597 193.965 169.845 191.965C172.221 188.171 174.991 184.683 177.608 181.059C178.189 180.239 176.838 179.453 176.257 180.273C174.513 182.7 158.337 203.384 166.203 204.717C168.049 205.025 170.426 203.435 171.897 202.495C173.966 201.179 175.812 199.538 177.454 197.709C181.062 193.709 183.729 188.991 186.311 184.29C185.832 184.153 185.336 184.034 184.857 183.897C184.755 187.863 184.652 191.812 184.55 195.777C184.464 199.35 183.729 203.213 184.105 206.769C184.464 210.153 188.021 212.324 191.098 210.529C193.202 209.299 193.714 206.94 194.142 204.717C194.569 202.461 195.065 200.205 195.441 197.931C196.006 194.427 196.484 190.923 196.929 187.401C196.416 187.47 195.903 187.538 195.39 187.606C195.92 191.401 196.399 195.196 196.809 198.991C197.083 201.555 197.357 204.119 197.493 206.7C197.596 208.666 197.527 210.905 198.793 212.564C199.904 214.017 201.819 214.256 203.29 213.145C205.513 211.47 206.35 207.128 206.898 204.598C207.65 201.059 207.872 197.401 207.821 193.794C207.77 190.495 207.821 186.837 206.658 183.692C205.786 181.367 204.042 179.418 201.443 179.265C199.22 179.128 197.066 180.256 196.604 182.53C197.1 182.53 197.613 182.53 198.109 182.53C197.339 179.436 196.074 175.436 192.415 174.803C189.32 174.256 187.473 176.786 186.157 179.179C186.636 179.248 187.114 179.299 187.593 179.367C186.687 176.017 185.285 171.931 181.506 171.025C177.334 170.017 173.897 173.76 171.589 176.666C170.922 177.401 172.033 178.512 172.649 177.726Z" fill="#4F3422"/>
<path d="M103.741 79.9495C93.5846 76.8042 83.4451 73.6419 73.3056 70.4453C73.0833 72.6162 74.2118 74.6675 75.3061 76.5478C77.3751 80.1034 79.6321 83.8469 83.3083 85.6931C86.728 87.4025 90.8488 87.129 94.4395 85.8298C98.0302 84.5307 101.176 82.2914 104.288 80.0863L103.741 79.9495Z" fill="#ED7E1C"/>
<path d="M91.2942 192.581C86.763 188.581 81.206 186.188 75.153 185.777C67.6467 185.282 60.1404 187.47 52.7709 185.316C52.8906 185.743 52.9932 186.188 53.1129 186.615C56.7207 183.401 62.0726 183.88 66.5695 184.051C71.5965 184.239 76.538 184.854 81.2573 186.632C81.3941 186.136 81.5308 185.624 81.6676 185.128C76.35 183.743 71.1178 182.085 65.9711 180.154C63.355 179.162 60.5166 178.256 58.0715 176.872C57.6269 176.649 57.2166 176.376 56.8404 176.051C56.8575 175.128 56.8746 174.205 56.8917 173.282C57.114 172.974 58.0886 172.803 58.4648 172.735C59.884 172.461 61.5425 172.752 62.9275 172.991C73.1867 174.752 81.6163 181.709 89.3791 188.171C90.1486 188.803 91.26 187.709 90.4905 187.059C85.3609 182.786 80.1459 178.495 74.2126 175.35C71.4255 173.88 68.4846 172.649 65.4068 171.897C62.842 171.265 59.6959 170.564 57.1311 171.47C55.5409 172.034 54.2414 173.333 54.5663 175.145C54.9766 177.436 57.6782 178.444 59.5249 179.23C66.5695 182.239 73.8365 184.701 81.2573 186.632C82.249 186.889 82.6081 185.47 81.6676 185.128C76.2132 183.077 70.4338 182.581 64.6545 182.444C60.1746 182.342 55.5067 182.393 51.9844 185.521C51.5398 185.931 51.7963 186.666 52.3263 186.82C58.5845 188.649 64.9452 187.487 71.323 187.282C78.3505 187.077 84.848 188.974 90.1657 193.658C90.9351 194.341 92.0465 193.247 91.2942 192.581Z" fill="#4F3422"/>
<path d="M108.974 70.7524C109.948 65.6926 110.239 60.5645 109.658 55.4363C109.299 52.291 108.529 48.5475 105.947 46.4278C100.681 42.1202 94.2861 50.9577 96.2696 55.9833C99.0908 63.1115 108.29 49.009 109.436 46.5304C110.325 44.6159 111.881 40.5475 108.683 39.8296C107.11 39.4706 105.349 40.4962 103.947 41.1116C101.844 42.0518 99.809 43.1629 97.8768 44.4278C94.2177 46.8381 90.9177 49.7611 88.0964 53.1115C86.2326 55.3167 82.6077 59.0431 84.1808 62.2397C85.5487 65.026 89.1052 64.1029 91.3622 63.1798C95.2778 61.573 99.0224 59.4876 102.476 57.0431C109.572 52.0175 115.591 45.5218 120.139 38.1202C122.054 34.992 124.209 31.2826 121.935 27.7442C119.814 24.4451 115.813 24.069 112.308 24.9237C103.793 27.0091 95.1239 31.7613 88.2845 37.1629C81.0005 42.9236 75.4092 50.462 72.8102 59.4363C72.7418 59.6756 72.8102 60.0346 73.0154 60.2055C76.9652 63.4534 83.2917 59.1628 87.1047 57.3166C92.5933 54.6842 97.911 51.6586 102.818 48.0517C111.846 41.4193 121.216 31.5048 123.508 20.1374C126.346 6.37681 107.555 8.32551 99.5183 10.958C93.6022 12.9067 88.1648 16.0861 83.2575 19.8981C78.145 23.8468 72.9641 28.5818 69.2708 33.9151C66.706 37.6245 64.5857 43.7099 69.134 46.8894C73.4087 49.8808 79.6839 47.2483 84.0098 45.727C96.6628 41.2826 109.538 34.3253 118.857 24.5305C120.806 22.4793 122.601 20.2571 124.123 17.8639C125.594 15.5733 127.988 12.1545 127.389 9.24858C126.397 4.47938 119.729 5.62467 116.343 6.01783C103.468 7.53919 90.969 11.9836 79.8548 18.6844C74.161 22.1203 68.8091 26.1374 63.9189 30.6331C59.0971 35.0775 54.3095 40.0005 51.7105 46.1201C50.7358 48.4278 50.3426 50.5475 51.7276 52.7697C53.0955 54.9577 55.5064 56.6158 57.8489 57.5901C62.8417 59.6927 68.5697 59.026 73.6651 57.6414C80.2652 55.8637 86.6772 52.8722 92.7643 49.7953C98.9882 46.6671 105.366 43.2484 110.564 38.5475C115.129 34.4108 118.635 29.0091 119.695 22.8724C120.156 20.2058 120.413 16.787 119.233 14.2571C118.139 11.8981 115.403 11.1118 113.095 10.4622C93.3115 4.83836 57.5924 19.693 66.4153 45.0945C67.92 49.4193 70.9464 53.0261 75.4434 54.3423C81.2569 56.0517 88.5068 55.1115 94.4058 54.2056C106.375 52.3936 118.823 47.2312 126.739 37.7441C130.296 33.4877 132.98 27.5732 130.604 22.1032C128.62 17.5391 123.747 15.1802 119.062 14.428C106.135 12.3768 93.1918 18.4793 83.0352 25.9151C78.3844 29.3339 72.5366 33.2655 69.8179 38.5133C67.5951 42.7868 68.9288 47.7099 74.2636 47.9492C80.5217 48.2227 87.5663 45.6586 93.2431 43.2825C99.5696 40.633 105.537 37.1458 111.214 33.2997C116.754 29.539 122.054 25.4194 127.287 21.2314C127.953 20.7015 127.201 19.7955 126.517 19.9323C108.717 23.1972 92.3882 31.7954 79.1367 44.0347C78.7263 44.4107 78.9144 44.9748 79.2906 45.2654C83.702 48.5133 89.1736 46.1543 93.6535 44.2911C98.766 42.1543 103.776 39.7612 108.512 36.8723C113.266 33.9664 117.763 30.5818 121.678 26.5989C123.593 24.6502 125.389 22.5476 126.962 20.3254C128.022 18.8554 128.928 17.1289 127.765 15.4195C126.722 13.8981 124.653 13.6075 122.978 13.4537C119.661 13.1631 116.326 13.4708 113.06 14.0349C106.666 15.146 100.339 17.0605 94.2348 19.2314C82.0948 23.5733 70.5019 29.539 59.9691 36.9407C55.5064 40.0689 51.2317 43.556 47.7265 47.7611C46.1192 49.6928 44.6658 51.7611 43.4518 53.9833C42.5285 55.6756 40.6818 58.5987 41.3316 60.65C41.9129 62.4106 44.2726 63.2482 45.8456 63.7781C48.4446 64.6499 51.1975 64.7183 53.8991 64.3422C59.5929 63.573 64.979 61.0431 70.177 58.7183C91.3793 49.2483 111.436 36.257 125.594 17.5562C128.176 14.1545 131.27 9.88106 126.346 6.90672C121.952 4.24007 115.694 6.13749 110.991 6.83834C99.6893 8.51355 88.3871 10.4793 77.4439 13.8297C66.5179 17.1631 55.968 21.9323 46.8715 28.9066C39.7585 34.3595 29.2086 43.5048 36.4585 53.0261C43.7254 62.5816 59.4562 57.556 68.5013 53.7953C80.1626 48.9577 91.0887 41.6415 101.16 34.086C106.135 30.3596 110.889 26.2741 114.993 21.6075C118.412 17.7272 121.627 13.1631 121.251 7.74432C121.148 6.25715 120.669 3.28281 119.319 2.37683C118.566 1.88111 117.421 2.05205 116.566 2.01786C114.941 1.94949 113.334 1.93239 111.71 1.96658C105.469 2.12042 99.2447 3.0435 93.2089 4.59904C81.1372 7.71013 69.7837 13.2486 59.4391 20.0861C54.6514 23.2485 48.9747 26.6673 45.7772 31.5732C43.2808 35.4023 42.4943 40.9407 45.6062 44.6672C48.7524 48.4449 54.4121 48.9577 58.9603 49.3509C65.2526 49.8979 71.6304 49.3851 77.803 48.0688C88.9171 45.727 101.262 40.9065 109.487 32.8211C113.112 29.2655 115.659 24.9066 116.36 19.8468C116.412 19.4195 116.258 19.0263 115.813 18.8895C103.605 15.2144 90.3534 17.1289 79.3932 23.522C73.7506 26.804 68.621 31.2484 64.7567 36.5305C60.636 42.1373 66.0904 46.8723 71.4765 48.5988C78.0766 50.7184 85.7539 49.5902 92.2856 47.8295C99.7064 45.8295 106.7 42.3766 113.214 38.3253C118.566 34.992 126.329 30.8895 128.586 24.5476C130.638 18.7699 125.987 13.6246 120.208 13.5221C115.933 13.4537 111.504 15.3169 107.606 16.8896C103.742 18.4622 99.9971 20.3254 96.4918 22.5818C90.3705 26.4792 83.6336 31.9493 83.873 39.915C83.8901 40.3595 84.215 40.6672 84.6596 40.7014C100.92 41.727 116.155 33.0946 125.252 19.8639C125.594 19.3682 125.132 18.6844 124.568 18.6844C110.359 18.8554 97.1416 25.5904 87.857 36.2228C87.3783 36.7698 87.7373 37.4706 88.4042 37.5561C95.0726 38.3424 101.758 36.445 107.264 32.6159C109.948 30.7527 112.325 28.4621 114.326 25.8639C116.258 23.3511 118.771 19.7955 119.045 16.5306C119.626 9.79559 107.52 11.4879 103.81 12.1204C99.9458 12.7699 96.1841 14.052 92.6959 15.8468C90.8835 16.7699 89.1565 17.8468 87.4979 19.0434C86.5062 19.7784 85.1554 20.5477 84.728 21.7784C82.4709 28.3083 97.1758 23.71 98.8856 23.163C102.904 21.881 106.819 20.24 110.547 18.24C113.744 16.5306 117.609 14.6161 119.849 11.6588C121.627 9.29986 121.9 6.30843 120.259 3.79563C118.498 1.11188 115.403 0.205908 112.342 0.0691566C104.562 -0.289815 96.3037 0.770006 88.7803 2.7529C81.1543 4.76998 73.8703 8.17167 67.8174 13.2656C63.4059 16.975 58.4644 24.2912 63.4743 29.5903C67.8858 34.257 76.1786 32.4963 81.5647 31.0775C89.7037 28.9408 97.1929 24.8895 104.169 20.2741C107.862 17.8297 111.453 15.1973 114.975 12.4964C117.233 10.7699 121.028 8.68448 121.353 5.50502C122.054 -1.21289 108.974 2.65034 105.964 3.41956C91.5503 7.12894 75.1698 17.0947 69.7837 31.6929C68.5526 35.0262 68.2278 38.633 70.2796 41.7099C71.9724 44.2569 74.7424 45.8808 77.5807 46.8381C85.4119 49.4705 93.8073 47.1287 101.108 43.9834C109.299 40.445 117.13 35.898 124.551 30.9407C131.185 26.4963 138.777 21.6246 143.77 15.2656C145.839 12.6503 147.138 9.77849 147.531 6.46228C147.565 6.1204 147.258 5.79561 146.95 5.71014C131.476 1.48795 115.335 7.33406 100.784 12.411C87.9938 16.8896 75.6144 24.0177 71.1003 37.5903C70.7755 38.5475 72.2972 38.9578 72.605 38.0005C77.1533 24.2912 90.114 17.6588 102.938 13.3169C116.788 8.6332 131.869 3.21443 146.522 7.21441C146.334 6.958 146.146 6.71868 145.941 6.46228C145.137 13.2486 139.546 17.7443 134.536 21.7271C129.219 25.9322 123.662 29.8125 117.882 33.351C111.915 36.992 105.691 40.4621 99.2105 43.1116C92.9866 45.6586 85.9762 47.5047 79.2906 45.7441C76.1615 44.9065 72.8957 43.2825 71.2542 40.3424C69.2537 36.7698 70.8952 32.4963 72.6221 29.163C75.5631 23.4707 80.2652 18.8724 85.3606 15.0776C90.7125 11.0947 96.697 7.94945 103.058 5.91527C105.811 5.04348 108.615 4.34263 111.453 3.8811C113.06 3.62469 114.736 3.36828 116.378 3.2999C117.694 3.24862 120.191 3.09478 119.729 5.74433C119.558 6.78706 118.566 7.62466 117.831 8.30842C115.317 10.6845 112.188 12.6845 109.401 14.7186C106.683 16.7015 103.93 18.616 101.091 20.4109C95.6198 23.8639 89.8576 26.8895 83.6678 28.8553C78.5382 30.4792 70.861 32.6843 65.8682 29.539C58.4473 24.8724 66.364 16.2058 70.7926 12.8896C80.8979 5.31699 93.6022 2.44521 106.016 1.77855C109.145 1.60761 112.804 1.16317 115.779 2.27427C120.669 4.10332 120.686 9.21439 117.044 12.3084C112.017 16.599 105.11 19.522 98.9027 21.5391C97.1587 22.1032 95.3975 22.5989 93.6022 23.0092C92.012 23.3852 89.413 24.3596 87.7886 23.8297C84.4031 22.7186 88.3871 20.2912 89.7208 19.4024C91.1742 18.4451 92.6788 17.5733 94.2519 16.8212C97.5349 15.2314 101.04 14.1203 104.648 13.5733C107.828 13.0776 112.394 12.5306 115.471 13.7443C122.362 16.4451 109.076 29.5049 106.17 31.4878C100.92 35.0433 94.7307 36.7356 88.4042 36.0005C88.5923 36.445 88.7803 36.8894 88.9513 37.3339C97.9623 26.9921 110.735 20.428 124.551 20.2571C124.328 19.8639 124.106 19.4707 123.884 19.0776C115.078 31.8638 100.339 40.1202 84.6425 39.1287C84.8989 39.3851 85.1554 39.6586 85.429 39.915C85.2238 33.0262 90.8664 28.2057 96.1157 24.6844C101.365 21.1801 107.127 18.4964 113.112 16.5477C116.429 15.4708 120.344 14.24 123.696 15.8639C127.56 17.7272 128.449 22.1374 126.346 25.6758C123.268 30.8724 116.685 34.3937 111.658 37.4535C101.297 43.7783 88.8145 49.1287 76.4009 47.9663C73.4941 47.6928 70.5874 46.9406 68.1423 45.2825C66.2956 44.0347 64.449 42.1885 64.7567 39.7441C64.9619 38.1031 66.9454 36.2228 67.9713 35.0262C71.5278 30.9066 75.7854 27.3852 80.5217 24.6844C91.0887 18.6502 103.725 16.8725 115.42 20.3938C115.232 20.069 115.061 19.7442 114.873 19.4365C113.454 29.6245 104.545 35.7612 95.996 40.0176C85.942 45.0261 74.7936 48.0859 63.5256 48.0005C58.6183 47.9663 51.6934 47.9663 47.7265 44.5817C42.5114 40.1544 46.0166 32.7527 50.069 28.992C54.0188 25.3169 58.7722 22.2912 63.3375 19.4536C67.8516 16.6502 72.5195 14.1033 77.3755 11.8981C87.2244 7.41953 97.8084 4.37682 108.632 3.67597C111.128 3.52212 113.625 3.47084 116.121 3.55631C117.352 3.60759 118.173 3.47084 118.857 4.54776C119.695 5.8298 119.78 7.7956 119.695 9.26568C119.37 14.975 114.89 19.6246 111.094 23.4878C103.434 31.2484 94.2006 37.4022 85.0186 43.18C75.8196 48.9748 65.9536 54.2568 55.1302 56.1713C49.7954 57.1115 43.3663 57.5218 39.0746 53.5902C34.0647 48.9919 35.1077 42.6501 39.2284 37.898C45.5549 30.616 54.2582 25.0946 62.9101 21.0092C71.6817 16.8725 81.0347 14.1203 90.4902 12.052C99.8432 10.0007 109.589 8.0691 119.148 7.26569C121.695 7.06056 125.32 7.06056 126.91 9.4708C128.757 12.2571 124.688 16.24 123.063 18.3084C120.002 22.1887 116.651 25.8468 113.078 29.2655C105.879 36.1544 97.8084 42.0689 89.2591 47.1629C80.8124 52.2056 71.8698 56.6158 62.722 60.2397C57.7463 62.2055 52.0011 64.0345 46.6664 62.4277C45.1446 61.9662 42.8192 61.2311 42.8876 59.1457C42.9218 58.0175 43.9306 56.5303 44.4264 55.5389C45.7088 53.0432 47.2819 50.7355 49.0944 48.5988C55.6603 40.8723 64.7396 35.2313 73.5283 30.3596C83.0865 25.0433 93.2431 20.8382 103.776 17.8639C109.367 16.2913 115.181 14.8041 121.046 14.9409C122.208 14.975 123.901 14.8383 124.944 15.3682C127.577 16.6844 126.107 18.9066 124.893 20.4964C123.303 22.5818 121.541 24.5476 119.661 26.3767C112.513 33.351 103.656 38.2911 94.5426 42.2227C90.2166 44.086 84.4373 47.1458 80.0771 43.915C80.1284 44.3253 80.1797 44.7355 80.231 45.1458C93.3115 33.0775 109.384 24.6673 126.927 21.4536C126.671 21.0263 126.414 20.5818 126.158 20.1545C114.548 29.4536 102.254 38.821 87.9596 43.6244C84.6938 44.7184 81.3424 45.5731 77.9227 46.0859C76.3838 46.3253 74.6056 46.6329 73.0496 46.2569C69.5786 45.4022 69.8692 41.8296 71.1516 39.3168C72.7589 36.1544 75.6999 33.8467 78.3502 31.5903C81.4621 28.9408 84.7451 26.4621 88.199 24.257C94.1493 20.4622 100.698 17.4366 107.691 16.2058C113.864 15.1289 121.986 15.0092 126.893 19.5904C133.22 25.4878 128.381 34.1715 123.371 39.0262C118.173 44.0689 111.778 47.727 104.956 50.0517C98.6292 52.2056 91.9778 53.2483 85.3264 53.4705C78.4357 53.6927 71.7501 53.1115 68.5355 46.2227C66.1246 41.0603 66.2101 34.5305 68.4842 29.3168C71.2542 22.9921 76.9994 18.5306 83.1207 15.7101C89.7379 12.6503 97.3468 10.7528 104.648 10.8554C108.102 10.9067 113.642 11.2315 116.514 13.4708C119.797 16.0349 118.412 22.4964 117.335 25.7784C114.839 33.3852 108.734 38.7185 102.134 42.8039C95.4146 46.9748 88.2332 50.5133 80.8979 53.4705C74.9646 55.8637 68.3304 58.2055 61.8329 57.1286C58.5499 56.5816 54.9079 54.9064 53.0613 51.9833C50.8384 48.4962 54.7198 43.2484 56.8059 40.4621C65.3381 29.1117 78.2989 20.2571 91.14 14.5648C97.4323 11.7785 104.067 9.69302 110.838 8.41098C114.172 7.77851 117.66 7.16313 121.063 7.12894C122.584 7.11184 124.653 7.28278 125.56 8.71867C126.791 10.6674 124.636 13.8981 123.662 15.6075C116.326 28.257 101.895 36.7527 88.7461 42.2227C85.3777 43.6244 81.9238 44.8894 78.4015 45.8637C75.5802 46.65 71.6817 47.4193 69.3905 45.0432C63.8334 39.2655 74.674 29.6758 78.5041 26.0348C88.0793 16.9408 102.682 7.76141 116.566 11.0947C126.209 13.4024 121.063 24.1545 117.745 29.8296C114.428 35.4706 109.966 40.3595 104.904 44.4962C100.048 48.4791 94.6452 51.7611 89.0539 54.6158C86.5917 55.8808 84.0953 57.0431 81.5647 58.1542C80.0258 58.8209 77.9569 60.0517 76.2128 59.8807C73.8874 59.6414 74.6056 58.8722 75.0501 57.6072C75.4434 56.4619 75.9051 55.3337 76.418 54.2226C81.787 42.6159 92.6275 34.7185 104.049 29.6758C106.837 28.445 109.777 27.163 112.753 26.445C115.215 25.8639 117.831 25.7784 119.797 27.6074C122.328 29.9493 121.336 32.9407 119.883 35.5561C116.634 41.4535 112.205 46.821 107.196 51.3338C102.271 55.7611 96.4234 59.744 90.1653 62.0175C89.4472 62.2739 88.6607 62.5645 87.8912 62.5816C85.771 62.6157 85.1896 60.3935 85.9933 58.7354C86.7798 57.1115 88.0964 55.6073 89.242 54.2397C91.7042 51.3167 94.5426 48.6842 97.6716 46.4962C100.271 44.6842 103.092 43.0945 106.067 41.9492C106.99 41.5902 108.7 40.633 109.111 42.6672C109.265 43.4364 108.375 45.18 108.119 45.7612C107.315 47.5047 106.341 49.1799 105.178 50.7184C104.101 52.1714 102.853 53.5218 101.485 54.7013C100.647 55.4192 99.2447 56.9919 97.9452 55.8466C97.4494 55.4021 97.5007 54.1543 97.5349 53.556C97.7058 49.9834 102.049 44.3937 105.52 48.1714C107.897 50.7526 108.17 55.009 108.358 58.3081C108.581 62.3593 108.256 66.3935 107.486 70.3593C107.264 71.3165 108.769 71.7439 108.974 70.7524Z" fill="#4F3422"/>
<path d="M191.509 203.058C189.064 204.58 187.918 207.571 188.79 210.323C189.098 211.281 190.603 210.87 190.295 209.913C189.628 207.828 190.415 205.588 192.296 204.409C193.151 203.879 192.364 202.511 191.509 203.058Z" fill="#4F3422"/>
<path d="M204.316 204.94C201.478 206.051 199.597 208.649 199.477 211.709C199.443 212.717 201.016 212.717 201.05 211.709C201.136 209.401 202.572 207.299 204.726 206.461C205.667 206.085 205.256 204.581 204.316 204.94Z" fill="#4F3422"/>
<path d="M166.443 203.401C167.81 201.145 170.221 199.897 172.855 200.016C173.863 200.068 173.863 198.495 172.855 198.444C169.674 198.29 166.733 199.897 165.092 202.615C164.579 203.469 165.93 204.256 166.443 203.401Z" fill="#4F3422"/>
<path d="M208.437 190.375C213.43 187.674 218.884 185.965 224.527 185.247C227.433 184.871 230.357 184.751 233.281 184.888C234.734 184.956 236.171 185.076 237.607 185.264C238.633 185.4 241.437 185.469 242.292 186.118C244.002 187.435 240.121 187.554 239.18 187.657C237.795 187.811 236.427 187.913 235.042 188.016C232.118 188.221 229.195 188.375 226.271 188.597C220.816 189.041 215.379 189.794 210.249 191.811C209.446 192.135 209.531 193.298 210.454 193.349C217.379 193.708 224.253 191.64 231.144 192.785C237.316 193.811 243.079 196.853 247.063 201.691C247.063 201.315 247.063 200.956 247.063 200.58C245.096 202.785 241.112 201.64 238.616 201.212C235.538 200.682 232.477 200.084 229.434 199.417C223.364 198.084 217.379 196.46 211.446 194.614C210.489 194.306 210.078 195.828 211.036 196.118C218.217 198.375 225.501 200.255 232.871 201.742C235.948 202.358 239.095 203.076 242.207 203.349C244.361 203.537 246.635 203.4 248.157 201.708C248.465 201.366 248.431 200.939 248.157 200.597C244.19 195.776 238.479 192.648 232.375 191.435C225.04 189.982 217.79 192.187 210.437 191.794C210.506 192.306 210.574 192.819 210.642 193.332C217.824 190.494 225.552 190.204 233.161 189.708C234.615 189.606 247.422 189.845 244.429 185.589C243.25 183.913 239.488 183.947 237.675 183.708C234.153 183.247 230.58 183.144 227.04 183.418C220.252 183.93 213.635 185.777 207.633 189.024C206.761 189.503 207.548 190.853 208.437 190.375Z" fill="#4F3422"/>
</svg>
