<svg width="130" height="166" viewBox="0 0 130 166" fill="none" xmlns="http://www.w3.org/2000/svg">
<rect x="6.80005" width="116" height="116" rx="58" fill="white"/>
<g filter="url(#filter0_ddddd_22_2784)">
<rect x="16.8" y="10" width="96" height="96" rx="48" fill="#C0A091"/>
<path fill-rule="evenodd" clip-rule="evenodd" d="M88.8 38C91.0092 38 92.8 39.7909 92.8 42L92.8 54C92.8 56.2091 91.0092 58 88.8 58C86.5909 58 84.8 56.2091 84.8 54L84.8 42C84.8 39.7909 86.5909 38 88.8 38Z" fill="#4F3422"/>
<path fill-rule="evenodd" clip-rule="evenodd" d="M40.8 38C43.0092 38 44.8 39.7909 44.8 42L44.8 54C44.8 56.2091 43.0092 58 40.8 58C38.5909 58 36.8 56.2091 36.8 54L36.8 42C36.8 39.7909 38.5909 38 40.8 38Z" fill="#4F3422"/>
<path fill-rule="evenodd" clip-rule="evenodd" d="M36.8 74C36.8 71.7909 38.5909 70 40.8 70H88.8C91.0092 70 92.8 71.7909 92.8 74C92.8 76.2091 91.0092 78 88.8 78H40.8C38.5909 78 36.8 76.2091 36.8 74Z" fill="#4F3422"/>
</g>
<defs>
<filter id="filter0_ddddd_22_2784" x="4.76837e-05" y="6.8" width="129.6" height="158.4" filterUnits="userSpaceOnUse" color-interpolation-filters="sRGB">
<feFlood flood-opacity="0" result="BackgroundImageFix"/>
<feColorMatrix in="SourceAlpha" type="matrix" values="0 0 0 0 0 0 0 0 0 0 0 0 0 0 0 0 0 0 127 0" result="hardAlpha"/>
<feOffset/>
<feColorMatrix type="matrix" values="0 0 0 0 1 0 0 0 0 0.807843 0 0 0 0 0.360784 0 0 0 0.1 0"/>
<feBlend mode="normal" in2="BackgroundImageFix" result="effect1_dropShadow_22_2784"/>
<feColorMatrix in="SourceAlpha" type="matrix" values="0 0 0 0 0 0 0 0 0 0 0 0 0 0 0 0 0 0 127 0" result="hardAlpha"/>
<feOffset dy="2.4"/>
<feGaussianBlur stdDeviation="2.8"/>
<feColorMatrix type="matrix" values="0 0 0 0 1 0 0 0 0 0.807843 0 0 0 0 0.360784 0 0 0 0.1 0"/>
<feBlend mode="normal" in2="effect1_dropShadow_22_2784" result="effect2_dropShadow_22_2784"/>
<feColorMatrix in="SourceAlpha" type="matrix" values="0 0 0 0 0 0 0 0 0 0 0 0 0 0 0 0 0 0 127 0" result="hardAlpha"/>
<feOffset dy="10.4"/>
<feGaussianBlur stdDeviation="5.2"/>
<feColorMatrix type="matrix" values="0 0 0 0 1 0 0 0 0 0.807843 0 0 0 0 0.360784 0 0 0 0.09 0"/>
<feBlend mode="normal" in2="effect2_dropShadow_22_2784" result="effect3_dropShadow_22_2784"/>
<feColorMatrix in="SourceAlpha" type="matrix" values="0 0 0 0 0 0 0 0 0 0 0 0 0 0 0 0 0 0 127 0" result="hardAlpha"/>
<feOffset dy="24"/>
<feGaussianBlur stdDeviation="7.2"/>
<feColorMatrix type="matrix" values="0 0 0 0 1 0 0 0 0 0.807843 0 0 0 0 0.360784 0 0 0 0.05 0"/>
<feBlend mode="normal" in2="effect3_dropShadow_22_2784" result="effect4_dropShadow_22_2784"/>
<feColorMatrix in="SourceAlpha" type="matrix" values="0 0 0 0 0 0 0 0 0 0 0 0 0 0 0 0 0 0 127 0" result="hardAlpha"/>
<feOffset dy="42.4"/>
<feGaussianBlur stdDeviation="8.4"/>
<feColorMatrix type="matrix" values="0 0 0 0 1 0 0 0 0 0.807843 0 0 0 0 0.360784 0 0 0 0.01 0"/>
<feBlend mode="normal" in2="effect4_dropShadow_22_2784" result="effect5_dropShadow_22_2784"/>
<feBlend mode="normal" in="SourceGraphic" in2="effect5_dropShadow_22_2784" result="shape"/>
</filter>
</defs>
</svg>
