<svg width="362" height="410" viewBox="0 0 362 410" fill="none" xmlns="http://www.w3.org/2000/svg">
<path d="M114.196 194.932C107.541 193.43 101.865 192.27 100.612 192.179C86.9585 191.132 73.0775 192.588 60.0399 196.912C-11.5531 220.76 -4.64681 315.4 8.18569 374.133C8.66434 376.294 12.3796 395.659 14.0207 395.728C14.0207 395.728 44.1987 397.047 85.7733 398.868C86.571 329.918 90.1723 260.764 114.196 194.932Z" fill="#ED7E1C"/>
<path d="M228.253 227.382C221.62 233.754 214.349 239.534 206.44 244.244C191.009 253.438 169.72 258.103 152.283 256.146C126.527 253.278 128.1 220.214 139.246 201.851C139.77 201.009 125.57 197.459 114.173 194.91C90.1724 260.765 86.5711 329.919 85.7733 398.869C118.96 400.325 159.395 402.077 197.573 403.761C212.252 343.436 226.68 283.134 233.814 221.261C231.17 224.242 228.982 226.7 228.253 227.382Z" fill="white"/>
<path d="M361.524 278.195C361.569 262.517 358.88 245.746 353.045 231.159C336.018 188.606 279.036 170.971 246.122 207.061C245.575 207.676 238.897 215.435 233.814 221.238C226.68 283.133 212.252 343.436 197.573 403.738C265.314 406.696 325.875 409.336 325.898 409.336C326.263 409.336 334.24 387.126 335.243 384.828C339.642 374.702 343.563 364.371 346.982 353.858C353.364 334.22 358.606 313.444 360.749 292.873C361.227 288.117 361.501 283.201 361.524 278.195Z" fill="#ED7E1C"/>
<path d="M110.709 115.265C111.666 117.86 112.623 120.431 113.604 123.025C114.059 124.277 116.088 123.731 115.609 122.479C114.652 119.885 113.695 117.313 112.715 114.719C112.259 113.468 110.253 113.991 110.709 115.265Z" fill="#4F3422"/>
<path d="M131.382 238.214C133.707 253.551 148.637 257.693 162.267 257.261C179.498 256.692 196.206 251.117 210.543 241.673C217.403 237.145 223.74 231.843 229.575 226.085C231.489 224.197 244.914 206.811 246.1 207.062C227.364 203.216 207.83 202.42 189.254 202.169C171.111 201.942 154.654 201.441 139.246 201.873C132.681 212.751 129.399 225.061 131.382 238.214Z" fill="#F6A460"/>
<path d="M252.869 310.031C249.587 335.494 243.023 360.412 233.336 384.214C232.834 385.466 234.84 385.989 235.341 384.76C245.097 360.799 251.638 335.699 254.943 310.031C255.126 308.711 253.029 308.711 252.869 310.031Z" fill="#4F3422"/>
<path d="M124.476 218.097C119.849 231.136 119.803 245.29 124.362 258.374C124.795 259.626 126.824 259.102 126.368 257.828C121.923 245.062 121.969 231.409 126.482 218.666C126.915 217.369 124.909 216.845 124.476 218.097Z" fill="#4F3422"/>
<path d="M136.533 267.636C149.617 272.778 165.184 270.912 178.495 267.749C192.923 264.313 207.716 258.442 218.885 248.475C219.888 247.588 218.406 246.109 217.403 246.996C206.508 256.736 191.989 262.402 177.926 265.747C164.956 268.819 149.822 270.662 137.08 265.633C135.85 265.133 135.303 267.135 136.533 267.636Z" fill="#4F3422"/>
<path d="M96.9647 136.382C96.5544 132.149 93.4089 128.645 89.762 126.779C86.1152 124.89 81.9896 124.367 77.9552 123.866C68.7696 122.706 59.6068 121.545 50.4212 120.408C44.3583 119.634 37.999 118.746 33.1441 114.878C28.2892 111.009 25.8275 103.113 29.634 98.1298C34.6712 91.5534 46.2729 94.3979 50.9911 87.5712C54.5696 82.4057 51.6065 74.828 46.8883 70.7775C42.1701 66.727 36.1072 64.8611 30.9332 61.4705C23.3431 56.487 17.8727 48.0674 16.2544 38.8514C15.9581 37.213 15.7986 35.4836 16.3 33.8907C17.4625 30.2498 21.8615 28.7251 25.44 29.5216C29.0413 30.318 32.05 32.7529 35.0587 34.9602C40.0504 38.6011 46.2501 41.8324 52.0395 39.8526C57.6694 37.9412 60.8605 31.7744 62.5699 25.8807C64.2794 19.9642 65.1227 13.5926 68.4733 8.51814C72.0974 2.98853 78.5934 -0.356552 84.9983 0.0302939C91.4031 0.394384 97.5117 4.46764 100.566 10.3841C103.256 15.6407 103.529 21.8074 104.714 27.6556C105.877 33.4811 108.521 39.6706 113.763 41.9917C117.615 43.6983 122.014 42.9474 126.208 42.8791C130.402 42.8109 135.189 43.8576 137.263 47.6806C138.471 49.9334 138.448 52.6641 138.288 55.2354C137.514 67.1139 134.459 78.6965 133.32 90.5522C132.157 102.385 133.16 115.106 139.656 124.89L96.9647 136.382Z" fill="#4F3422"/>
<path d="M216.104 202.668L127.234 108.71C114.698 112.601 101.295 108.551 92.2238 99.4941C84.1095 122.568 75.8128 162.004 98.3323 192.337L120.396 170.674C120.396 170.674 129.057 197.821 137.605 224.491C145.605 249.454 176.239 258.601 196.662 242.149C196.935 241.922 197.209 241.717 197.459 241.489C214.372 227.79 231.056 218.483 216.104 202.668Z" fill="#F6A460"/>
<path d="M127.234 108.71L100.384 80.334C100.384 80.334 96.3265 87.8206 92.2238 99.4942C101.318 108.574 114.698 112.601 127.234 108.71Z" fill="#F6A460"/>
<path d="M160.079 114.968C158.438 123.615 150.118 129.304 141.457 127.666C132.795 126.027 127.097 117.722 128.738 109.075C130.379 100.427 138.699 94.7385 147.36 96.3769C156.022 97.9925 161.72 106.321 160.079 114.968Z" fill="#F6A460"/>
<path d="M141.343 118.836C144.238 113.762 147.155 108.71 150.141 103.681C150.825 102.52 149.024 101.474 148.34 102.634C145.354 107.64 142.437 112.715 139.542 117.789C138.881 118.973 140.682 120.02 141.343 118.836Z" fill="#4F3422"/>
<path d="M120.396 170.674L138.22 225.538L135.531 153.607L120.396 170.674Z" fill="#4F3422"/>
<path d="M87.1865 116.515C83.5168 126.027 80.3714 136.313 78.6619 146.348C78.5024 147.281 79.3457 147.895 80.189 147.531C83.9043 145.87 87.6424 144.209 91.3576 142.548C92.5885 142.002 91.5172 140.204 90.3092 140.75C86.5939 142.411 82.8558 144.073 79.1406 145.734C79.642 146.121 80.1662 146.507 80.6677 146.917C82.3772 136.859 85.5226 126.573 89.1923 117.084C89.6938 115.833 87.6652 115.287 87.1865 116.515Z" fill="#4F3422"/>
<path d="M108.954 114.15C110.116 117.449 111.302 120.749 112.464 124.048C112.92 125.3 114.926 124.754 114.47 123.502C113.307 120.203 112.122 116.903 110.96 113.603C110.527 112.352 108.498 112.898 108.954 114.15Z" fill="#4F3422"/>
<path d="M111.21 126.187C113.262 125.027 115.313 123.844 117.387 122.683C118.55 122.023 117.501 120.225 116.339 120.885C114.288 122.046 112.236 123.229 110.162 124.39C108.977 125.05 110.025 126.847 111.21 126.187Z" fill="#4F3422"/>
<path d="M101.729 104.909C106.242 109.756 112.35 112.35 118.983 112.236C120.328 112.214 120.328 110.12 118.983 110.166C112.874 110.279 107.381 107.936 103.21 103.453C102.276 102.452 100.794 103.931 101.729 104.909Z" fill="#4F3422"/>
<path d="M94.1611 166.805C94.1611 166.805 95.0273 155.245 98.3551 150.466C104.008 142.343 106.264 141.842 111.302 138.906C113.398 137.678 116.316 137.2 118.755 137.268C121.171 137.314 123.747 139.157 123.678 141.569C123.633 143.935 121.33 145.551 119.256 146.689C110.093 151.786 99.7226 156.451 94.8677 165.758L94.1611 166.805Z" fill="#4F3422"/>
<path d="M125.342 136.564C126.733 139.59 126.687 142.981 125.274 146.007C124.704 147.213 126.505 148.26 127.074 147.054C128.852 143.299 128.852 139.294 127.143 135.517C126.573 134.311 124.795 135.358 125.342 136.564Z" fill="#4F3422"/>
<path d="M38.3865 287.638C36.1984 316.856 37.9079 347.03 43.4922 375.816C43.7429 377.136 45.7487 376.567 45.498 375.27C39.9365 346.689 38.2954 316.674 40.4607 287.638C40.5747 286.295 38.4777 286.295 38.3865 287.638Z" fill="#4F3422"/>
<path d="M154.244 152.105C153.856 152.196 157.344 159.433 159.782 164.735C160.466 166.191 161.104 167.739 162.358 168.763C163.589 169.787 165.549 170.219 167.19 169.309C169.31 168.148 169.925 165.281 169.082 163.37C168.216 161.458 166.347 160.275 164.546 159.182C161.173 157.112 154.244 152.105 154.244 152.105Z" fill="#C2B1FF"/>
<path d="M215.534 160.367C215.147 160.458 218.634 167.694 221.073 172.997C221.757 174.453 222.395 176 223.648 177.024C224.879 178.048 226.839 178.481 228.481 177.57C230.6 176.41 231.216 173.543 230.372 171.631C229.506 169.72 227.637 168.536 225.837 167.444C222.486 165.373 215.534 160.367 215.534 160.367Z" fill="#C2B1FF"/>
<path d="M57.9658 154.063C57.7151 153.767 52.7006 160.025 48.9853 164.508C47.9596 165.759 46.8656 167.011 46.4553 168.558C46.0678 170.128 46.5465 172.063 48.0508 173.155C50.0338 174.566 52.8829 173.86 54.2277 172.267C55.5725 170.674 55.846 168.467 56.0512 166.374C56.4615 162.46 57.9658 154.063 57.9658 154.063Z" fill="#C2B1FF"/>
<path d="M119.826 120.34C119.439 120.317 120.669 128.259 121.467 134.016C121.695 135.609 121.878 137.27 122.766 138.613C123.655 139.955 125.41 140.911 127.234 140.524C129.604 140.024 131.018 137.452 130.767 135.381C130.493 133.311 129.057 131.627 127.644 130.057C125.023 127.144 119.826 120.34 119.826 120.34Z" fill="#C2B1FF"/>
<path d="M133.73 97.425C130.516 86.7299 134.482 77.0588 142.118 69.4811C147.907 63.724 155.68 58.7405 159.509 51.2994C162.837 44.8596 159.121 38.5335 152.899 35.7346C149.047 34.0051 144.739 33.8458 140.614 33.5045C137.309 33.2314 133.092 33.6866 134.117 28.9761C134.687 26.3592 136.032 23.401 139.086 23.1279C140.408 23.0142 140.431 20.9206 139.086 21.0572C135.895 21.3302 133.912 23.401 132.773 26.291C131.793 28.7486 130.676 32.9584 133.616 34.5058C135.257 35.3705 137.582 35.3477 139.383 35.507C142.642 35.8028 145.947 35.8711 149.115 36.6675C154.859 38.1011 160.671 42.8798 158.119 49.3652C156.25 54.0756 151.737 57.9213 148.067 61.2436C144.443 64.5204 140.636 67.6835 137.491 71.4609C131.2 78.993 128.898 88.5276 131.747 97.9939C132.089 99.2455 134.117 98.6994 133.73 97.425Z" fill="#4F3422"/>
<path d="M40.0504 99.8139C43.4921 99.5181 45.817 97.4928 47.9596 94.9214C50.3984 92.0315 53.0196 88.6864 53.4527 84.8179C54.2277 77.7182 47.1162 73.3263 40.8253 73.0533C33.919 72.7802 23.5938 75.2833 19.1947 81.1315C17.5536 83.3161 16.3228 86.7066 18.0323 89.2325C19.3771 91.235 22.0439 91.8039 23.9813 90.3476C25.0298 89.5511 24.0041 87.7307 22.9328 88.5499C19.3999 91.2123 19.491 84.5449 20.38 83.0885C21.1321 81.8825 22.2034 80.8357 23.3431 80.0165C24.893 78.9015 26.6936 78.1278 28.4943 77.4906C33.3036 75.7612 39.207 74.1683 44.2443 75.6702C49.4411 77.1948 52.8601 82.019 50.6036 87.3211C48.9397 91.2578 44.7002 97.3563 40.0504 97.7431C38.7284 97.8569 38.7284 99.9277 40.0504 99.8139Z" fill="#4F3422"/>
</svg>
