<svg width="375" height="429" viewBox="0 0 375 429" fill="none" xmlns="http://www.w3.org/2000/svg">
<path d="M217.01 28.969C219.438 37.5936 229.302 41.6803 237.112 37.2928C247.126 31.6517 259.218 39.9754 257.59 51.3579C256.314 60.2333 263.649 67.9804 272.561 67.128C284.002 66.0499 291.662 78.5857 285.554 88.3135C280.772 95.9102 284.352 105.964 292.839 108.822C303.704 112.508 305.656 127.074 296.093 133.467C288.658 138.457 287.832 149.087 294.416 155.179C302.852 162.977 298.697 177.067 287.381 179.022C278.569 180.552 273.487 189.929 277.017 198.177C281.573 208.732 272.035 219.914 260.92 217.106C252.233 214.9 243.797 221.419 243.671 230.369C243.546 241.877 230.303 248.22 221.266 241.1C214.231 235.559 203.867 238.066 200.137 246.214C195.355 256.669 180.66 257.07 175.303 246.891C171.122 238.969 160.633 237.013 153.923 242.955C145.312 250.552 131.743 244.936 130.967 233.453C130.366 224.502 121.579 218.46 113.042 221.143C102.077 224.578 91.9635 213.897 95.944 203.116C99.0482 194.692 93.4656 185.591 84.5534 184.563C73.1628 183.234 68.231 169.37 76.242 161.121C82.4755 154.703 81.0736 144.098 73.3881 139.535C63.5246 133.668 64.6511 119.001 75.3157 114.739C83.6271 111.404 86.6562 101.175 81.4742 93.8543C74.8401 84.4775 81.8246 71.5406 93.2903 71.9919C102.228 72.3429 109.162 64.2197 107.385 55.4195C105.132 44.1373 116.773 35.1868 127.062 40.2512C135.098 44.2125 144.711 39.5994 146.688 30.8494C149.217 19.6424 163.487 16.1825 170.822 25.0077C176.554 31.9024 187.219 31.6015 192.551 24.406C199.436 15.2298 213.881 17.9124 217.01 28.969Z" fill="#4F3422"/>
<path d="M358.203 299.542C348.815 266.648 319.901 243.181 285.829 240.774C207.847 235.233 74.6898 233.227 46.4261 263.464C37.1884 273.342 56.0393 255.391 46.4261 263.464C3.19187 299.742 -3.54236 387.744 -3.54236 387.744L97.446 387.041L378.706 387.844C380.258 379.821 368.617 336.096 358.203 299.542Z" fill="#9BB168"/>
<path d="M226.673 204.246L219.714 182.083C225.546 183.462 231.955 182.007 236.687 177.62C244.272 170.6 244.748 158.766 237.738 151.169C230.729 143.573 218.912 143.096 211.327 150.116C210.876 150.543 210.451 150.969 210.05 151.42L201.839 125.296C200.813 122.061 197.608 120.056 194.254 120.557C177.631 123.039 131.217 134.697 127.838 187.348C127.587 191.334 130.717 194.744 134.722 194.744L155.2 194.719L153.573 208.959C178.257 213.698 202.84 211.116 226.673 204.246Z" fill="#CFD9B5"/>
<path d="M226.673 204.246C202.865 211.141 178.257 213.698 153.598 208.96L148.741 251.506C146.288 272.942 158.755 293.651 179.158 300.596C180.109 300.922 181.086 301.223 182.062 301.524C217.41 311.803 249.78 277.781 238.715 242.606L226.673 204.246Z" fill="#9BB168"/>
<path d="M163.261 136.803C153.147 142.043 143.008 147.258 132.895 152.498C131.568 153.175 131.443 155.105 132.419 156.108C135.423 159.167 138.402 162.201 141.406 165.259C143.484 167.365 146.713 164.131 144.636 162.025C141.632 158.967 138.652 155.933 135.648 152.874C135.498 154.078 135.348 155.281 135.173 156.484C145.287 151.244 155.425 146.03 165.539 140.79C168.193 139.411 165.865 135.449 163.261 136.803Z" fill="#4F3422"/>
<path d="M160.382 172.305C160.658 174.662 157.904 176.818 155.751 175.489C153.222 173.96 150.919 177.921 153.448 179.451C158.329 182.434 165.639 178.172 164.988 172.305C164.838 171.077 164.037 170.024 162.685 170.024C161.559 169.999 160.257 171.052 160.382 172.305Z" fill="#4F3422"/>
<path d="M227.524 159.444C223.594 160.773 219.663 162.101 215.733 163.43C212.954 164.383 214.156 168.795 216.96 167.843C220.89 166.514 224.82 165.185 228.751 163.856C231.53 162.929 230.328 158.491 227.524 159.444Z" fill="#4F3422"/>
<path d="M172.198 150.518C176.579 160.421 190.248 162.953 198.284 156.084C200.537 154.153 197.283 150.919 195.055 152.849C189.046 157.989 179.283 155.231 176.179 148.211C174.977 145.503 171.022 147.835 172.198 150.518Z" fill="#4F3422"/>
<path d="M175.954 152.347C174.276 154.052 172.574 155.732 170.897 157.436C168.819 159.517 172.048 162.777 174.126 160.671C175.803 158.966 177.506 157.286 179.183 155.581C181.286 153.5 178.057 150.266 175.954 152.347Z" fill="#4F3422"/>
<path d="M183.188 158.967C183.213 160.672 183.238 162.352 183.264 164.057C183.289 167.015 187.895 167.015 187.845 164.057C187.82 162.352 187.795 160.672 187.77 158.967C187.72 156.034 183.138 156.009 183.188 158.967Z" fill="#4F3422"/>
<path d="M192.201 158.916C192.752 160.42 193.277 161.95 193.828 163.454C194.254 164.607 195.38 165.41 196.657 165.059C197.783 164.758 198.685 163.404 198.259 162.225C197.708 160.721 197.183 159.192 196.632 157.688C196.206 156.509 195.08 155.732 193.803 156.083C192.676 156.409 191.8 157.763 192.201 158.916Z" fill="#4F3422"/>
<path d="M207.972 327.346C207.972 331.733 204.417 335.319 200.011 335.319C195.63 335.319 192.051 331.758 192.051 327.346C192.051 322.958 195.605 319.373 200.011 319.373C204.417 319.373 207.972 322.933 207.972 327.346Z" fill="#4F3422"/>
<path d="M92.7646 302.175C67.2546 315.287 41.7447 328.399 16.2097 341.512C10.3517 344.52 4.49365 347.529 -1.36438 350.538C-10.9775 355.502 -18.7882 362.046 -23.019 372.325C-26.7742 381.426 -27.2248 393.987 -22.969 403.063C-18.5629 412.464 -11.278 421.089 -1.2392 424.75C8.29886 428.209 20.065 429.513 29.4528 424.699C45.4498 416.476 61.4717 408.252 77.4686 400.004C100.475 388.17 123.482 376.361 146.488 364.528C133.32 341.361 120.252 318.12 107.91 294.402C102.853 297.01 97.7965 299.592 92.7646 302.175Z" fill="#9BB168"/>
<path d="M171.573 351.641C181.186 346.702 188.996 340.158 193.227 329.879C196.982 320.778 197.433 308.217 193.177 299.141C188.771 289.739 181.486 281.114 171.447 277.454C161.909 273.994 170.246 260.23 160.858 265.069C149.893 270.71 118.85 288.786 107.885 294.402C120.227 318.145 133.27 341.387 146.463 364.528C148.967 363.249 151.495 361.945 153.998 360.667C159.856 357.658 165.714 354.649 171.573 351.641Z" fill="#CFD9B5"/>
<path d="M175.878 295.582C178.908 275.249 181.937 254.891 184.966 234.558C185.842 228.641 181.586 222.122 175.428 221.445C169.294 220.768 163.286 224.654 162.335 230.998C159.306 251.331 156.276 271.689 153.247 292.022C152.371 297.939 156.627 304.457 162.785 305.134C168.919 305.836 174.927 301.925 175.878 295.582Z" fill="#CFD9B5"/>
<path d="M176.98 295.881C179.258 280.512 181.561 265.118 183.839 249.749C185.191 240.623 190.048 226.232 178.757 221.193C174.777 219.413 169.87 220.14 166.34 222.597C161.959 225.631 161.284 230.194 160.558 235.158C158.279 250.552 155.976 265.921 153.698 281.315C153.473 282.769 155.701 283.37 155.901 281.916C157.754 269.506 159.581 257.095 161.434 244.685C161.884 241.701 162.31 238.718 162.761 235.76C163.161 233.077 163.261 230.143 164.638 227.712C167.467 222.747 174.577 220.867 179.333 224.126C185.016 228.037 183.864 234.28 182.988 240.172C182.112 246.114 181.211 252.081 180.335 258.023C178.482 270.434 176.655 282.819 174.802 295.229C174.552 296.734 176.755 297.335 176.98 295.881Z" fill="#4F3422"/>
<path d="M181.361 334.167C186.543 300.997 191.725 267.802 196.907 234.633C197.834 228.716 193.628 222.172 187.444 221.445C181.311 220.718 175.278 224.579 174.276 230.922C169.094 264.092 163.912 297.286 158.73 330.456C157.804 336.373 162.009 342.917 168.193 343.644C174.326 344.371 180.36 340.51 181.361 334.167Z" fill="#CFD9B5"/>
<path d="M188.27 301.398C190.173 288.561 192.101 275.724 194.003 262.913C194.955 256.495 195.906 250.076 196.857 243.658C197.533 239.045 199.16 233.855 197.783 229.217C195.631 221.946 187.995 218.336 181.036 221.119C177.531 222.523 174.752 225.431 173.675 229.066C171.948 234.908 171.698 241.577 170.797 247.619C168.619 262.186 166.466 276.727 164.288 291.294C164.062 292.748 166.29 293.35 166.491 291.896C168.543 278.081 170.596 264.267 172.649 250.452C173.6 244.059 174.226 237.54 175.503 231.197C176.73 225.105 182.963 220.768 189.172 222.874C196.607 225.406 196.106 233.078 195.155 239.321C194.154 245.99 193.177 252.659 192.176 259.303C190.123 273.117 188.07 286.932 186.017 300.771C185.842 302.225 188.045 302.852 188.27 301.398Z" fill="#4F3422"/>
<path d="M182.638 242.931C178.958 267.652 175.278 292.372 171.598 317.093C170.721 323.01 174.977 329.528 181.136 330.205C187.269 330.882 193.277 326.996 194.229 320.653C197.909 295.933 201.589 271.212 205.269 246.491C206.145 240.574 201.889 234.056 195.731 233.379C189.597 232.702 183.589 236.588 182.638 242.931Z" fill="#CFD9B5"/>
<path d="M193.402 333.965C197.483 306.612 201.539 279.259 205.619 251.906C206.395 246.766 207.322 241.952 204.142 237.389C201.238 233.228 196.356 231.397 191.4 232.475C179.834 234.983 180.56 249.148 179.183 258.424C177.13 272.289 175.052 286.154 173 300.043C172.774 301.497 175.002 302.099 175.203 300.645C176.73 290.316 178.282 279.986 179.809 269.657C180.635 264.015 181.486 258.374 182.312 252.758C182.988 248.195 182.863 241.852 185.992 238.217C190.699 232.776 199.436 233.403 202.915 239.821C205.644 244.886 203.291 251.881 202.49 257.246C200.662 269.531 198.835 281.841 197.007 294.126C195.055 307.189 193.127 320.276 191.174 333.338C190.974 334.793 193.177 335.419 193.402 333.965Z" fill="#4F3422"/>
<path d="M293.239 303.354C318.749 316.466 344.259 329.579 369.794 342.691C375.652 345.7 381.51 348.708 387.368 351.717C396.981 356.656 404.792 363.2 409.023 373.479C412.778 382.58 413.229 395.141 408.973 404.217C404.567 413.619 397.282 422.268 387.243 425.904C377.705 429.364 365.939 430.667 356.551 425.854C340.554 417.63 324.532 409.407 308.535 401.158C285.529 389.324 262.522 377.516 239.516 365.682C252.684 342.516 265.752 319.274 278.093 295.557C283.15 298.164 288.207 300.772 293.239 303.354Z" fill="#9BB168"/>
<path d="M214.431 352.795C204.818 347.856 197.007 341.312 192.777 331.033C189.021 321.932 188.571 309.371 192.827 300.295C197.233 290.893 204.518 282.244 214.556 278.608C224.095 275.148 215.758 261.384 225.146 266.223C236.111 271.864 267.154 289.941 278.119 295.582C265.777 319.325 252.734 342.566 239.541 365.707C237.037 364.428 234.509 363.125 232.005 361.846C226.147 358.837 220.289 355.829 214.431 352.795Z" fill="#CFD9B5"/>
<path d="M210.125 296.76C207.096 276.427 204.067 256.069 201.038 235.736C200.162 229.819 204.417 223.3 210.576 222.623C216.709 221.946 222.718 225.832 223.669 232.175C226.698 252.508 229.727 272.867 232.756 293.2C233.633 299.117 229.377 305.635 223.218 306.312C217.085 306.989 211.077 303.103 210.125 296.76Z" fill="#CFD9B5"/>
<path d="M211.227 296.46C209.374 284.049 207.547 271.664 205.694 259.254C204.818 253.312 203.917 247.345 203.041 241.403C202.164 235.511 200.988 229.268 206.696 225.357C211.452 222.072 218.537 223.978 221.391 228.942C222.768 231.324 222.868 234.307 223.268 236.99C223.719 239.974 224.145 242.957 224.595 245.915C226.448 258.326 228.275 270.736 230.128 283.147C230.353 284.601 232.556 283.974 232.331 282.545C230.053 267.151 227.749 251.782 225.471 236.388C224.72 231.424 224.069 226.861 219.688 223.827C216.159 221.37 211.252 220.643 207.271 222.423C195.956 227.463 200.838 241.829 202.189 250.98C204.468 266.349 206.771 281.743 209.049 297.112C209.224 298.516 211.452 297.889 211.227 296.46Z" fill="#4F3422"/>
<path d="M204.643 335.346C199.461 302.177 194.279 268.982 189.097 235.812C188.17 229.895 192.376 223.352 198.56 222.625C204.693 221.898 210.726 225.759 211.728 232.102C216.91 265.271 222.092 298.466 227.274 331.636C228.2 337.553 223.994 344.096 217.811 344.824C211.677 345.551 205.644 341.69 204.643 335.346Z" fill="#CFD9B5"/>
<path d="M199.936 301.95C197.884 288.136 195.831 274.321 193.778 260.482C192.827 254.063 191.875 247.645 190.924 241.227C189.973 234.808 189.046 226.685 196.807 224.053C202.64 222.072 209.074 225.958 210.376 231.85C211.778 238.318 212.378 245.063 213.33 251.606C215.383 265.421 217.435 279.235 219.488 293.05C219.713 294.504 221.916 293.877 221.691 292.448C219.789 279.611 217.861 266.775 215.958 253.963C215.007 247.545 214.056 241.126 213.104 234.708C212.479 230.571 211.677 226.986 208.298 224.228C202.39 219.389 193.427 220.693 189.497 227.337C187.144 231.323 187.695 235.235 188.345 239.597C189.297 246.015 190.248 252.434 191.199 258.852C193.377 273.419 195.53 287.96 197.708 302.527C197.934 304.031 200.162 303.404 199.936 301.95Z" fill="#4F3422"/>
<path d="M203.366 244.111C207.046 268.831 210.726 293.552 214.406 318.273C215.282 324.19 211.027 330.708 204.868 331.385C198.735 332.062 192.727 328.176 191.775 321.833C188.095 297.112 184.415 272.392 180.735 247.671C179.859 241.754 184.115 235.236 190.273 234.559C196.407 233.882 202.415 237.768 203.366 244.111Z" fill="#CFD9B5"/>
<path d="M194.804 334.519C191.249 310.676 187.695 286.808 184.165 262.965C183.364 257.524 181.787 251.657 181.787 246.167C181.762 238.821 188.871 233.756 195.756 236.389C201.814 238.721 202.29 244.437 203.116 250.028C203.917 255.443 204.718 260.859 205.544 266.274C207.296 278.108 209.074 289.942 210.826 301.801C211.052 303.255 213.255 302.628 213.029 301.199C211.202 288.989 209.399 276.779 207.572 264.544C206.696 258.602 205.794 252.66 204.918 246.718C204.142 241.579 202.64 237.141 197.683 234.709C187.544 229.745 178.357 238.695 179.784 248.95C181.661 262.338 183.764 275.676 185.742 289.039C188.02 304.408 190.323 319.752 192.601 335.121C192.802 336.6 195.03 335.973 194.804 334.519Z" fill="#4F3422"/>
<path d="M5.64528 348.257C35.0355 332.563 64.4508 316.868 93.8411 301.173C97.9968 298.942 102.152 296.735 106.308 294.504C107.61 293.802 106.458 291.821 105.157 292.523C75.7663 308.218 46.351 323.913 16.9608 339.608C12.8051 341.839 8.64939 344.045 4.4937 346.277C3.16688 346.979 4.3435 348.959 5.64528 348.257Z" fill="#4F3422"/>
<path d="M365.288 339.105C339.978 325.942 314.694 312.755 289.384 299.592C285.854 297.762 282.324 295.907 278.769 294.076C277.468 293.4 276.291 295.38 277.618 296.057C302.928 309.22 328.212 322.407 353.522 335.57C357.052 337.4 360.581 339.255 364.136 341.086C365.438 341.763 366.59 339.782 365.288 339.105Z" fill="#4F3422"/>
<path d="M22.8187 325.743C28.2261 327.222 33.6335 328.676 39.066 330.156C40.4929 330.532 41.0938 328.325 39.6668 327.949C34.2594 326.47 28.852 325.016 23.4196 323.537C21.9926 323.136 21.3918 325.342 22.8187 325.743Z" fill="#4F3422"/>
<path d="M342.281 328.148C346.612 326.794 350.843 325.165 354.974 323.259C356.301 322.657 355.149 320.677 353.822 321.278C349.867 323.084 345.811 324.638 341.68 325.942C340.279 326.368 340.879 328.599 342.281 328.148Z" fill="#4F3422"/>
<path d="M292.964 114.89C297.17 124.041 308.735 123.54 315.77 118.225C323.305 112.508 330.891 100.248 327.586 90.4953C325.133 83.2496 314.068 78.8621 309.887 87.236C308.085 90.8213 309.512 95.1085 312.29 97.7912C315.845 101.201 321.278 101.778 325.959 101.928C337.049 102.304 350.017 97.3148 351.719 84.9044C352.12 82.0211 347.714 80.7676 347.313 83.6759C346.062 92.6766 337.55 96.9387 329.214 97.3148C325.258 97.4903 320.351 97.5154 316.822 95.4344C314.894 94.3062 313.292 92.2253 313.843 89.9438C314.393 87.587 317.122 86.8098 319.225 87.4867C323.531 88.8908 324.157 94.3062 323.431 98.067C322.554 102.58 320.026 107.043 317.122 110.553C312.391 116.244 301.25 121.96 296.944 112.533C295.668 109.901 291.737 112.232 292.964 114.89Z" fill="#4F3422"/>
<path d="M46.0506 53.7664C45.2244 64.5974 54.2368 73.9741 65.1517 72.8961C75.8163 71.818 83.0763 61.313 80.3475 50.9083C79.3462 47.1225 76.1668 42.6597 71.8109 45.1167C67.4549 47.5737 66.5286 54.1174 67.1294 58.5551C68.8067 70.8402 80.2224 77.1331 91.0372 80.3423C93.8661 81.1947 95.0677 76.7571 92.2639 75.9297C85.5046 73.924 78.2697 70.9655 74.2642 64.823C72.2615 61.7392 71.0598 57.803 71.6606 54.0924C71.7858 53.3653 71.9611 52.6131 72.2364 51.9362C72.5368 51.1088 73.8136 49.1282 75.0152 49.7048C76.1167 50.2313 76.3421 54.4935 76.3421 55.2958C76.3921 62.717 70.3839 68.6088 62.9737 68.4082C55.2381 68.2077 50.0811 61.1876 50.6318 53.7664C50.8571 50.8331 46.2759 50.8331 46.0506 53.7664Z" fill="#4F3422"/>
<path d="M50.031 228.314C55.864 233.83 65.1267 234.858 71.961 230.495C75.6911 228.114 77.9442 224.353 79.4964 220.316C81.0485 216.179 82.9511 210.614 80.4727 206.427C78.7453 203.493 74.6898 201.588 71.5355 203.393C68.3311 205.223 67.8804 209.36 68.8818 212.569C71.3352 220.517 80.5478 224.478 88.2834 224.077C99.2735 223.5 107.585 215.177 113.518 206.652C115.195 204.22 111.24 201.939 109.563 204.346C105.232 210.563 99.6239 216.681 92.1136 218.837C86.0053 220.592 77.9943 219.063 74.3393 213.422C73.6634 212.369 72.5869 210.463 72.9624 209.134C74.0639 205.198 76.3671 208.508 76.7927 209.886C77.1932 211.19 76.9929 212.394 76.7176 213.697C75.9665 217.458 74.4645 221.795 71.8108 224.654C66.9792 229.843 58.2923 229.818 53.2604 225.03C51.1325 223.024 47.878 226.283 50.031 228.314Z" fill="#4F3422"/>
<path d="M241.168 48.6007C237.012 41.9818 237.588 32.7805 243.571 27.3901C248.728 22.7519 261.07 20.5957 265.226 27.8414C266.628 30.2984 265.601 33.633 262.247 32.9059C259.643 32.3292 258.466 29.6466 258.266 27.2146C257.941 23.4037 259.393 19.4424 261.32 16.2333C265.226 9.7648 272.11 5.32712 279.62 4.60005C282.524 4.32426 282.549 -0.263842 279.62 0.011946C270.433 0.86438 262.147 5.95391 257.365 13.9016C253.359 20.5456 250.631 33.6079 260.169 37.0427C263.523 38.2461 267.554 37.4689 269.507 34.2848C271.96 30.3235 270.107 25.4847 266.803 22.6767C259.768 16.7598 248.578 17.7125 241.593 23.1029C233.157 29.6215 231.655 42.057 237.212 50.9073C238.79 53.4144 242.745 51.1079 241.168 48.6007Z" fill="#4F3422"/>
</svg>
