<svg width="343" height="194" viewBox="0 0 343 194" fill="none" xmlns="http://www.w3.org/2000/svg">
<circle cx="172" cy="97" r="97" fill="white"/>
<path d="M85.3798 63.3561C84.4264 62.7753 83.4949 62.1507 82.6183 61.4494C81.9827 60.9453 80.6019 60.0796 80.2841 59.3234C79.6266 57.7673 82.1471 58.5234 83.0456 58.6659C84.1305 58.8412 85.2154 59.0385 86.3003 59.2467C86.64 59.3125 86.8702 58.9947 86.7277 58.6988C85.4236 55.8825 84.5689 52.9456 84.1086 49.8772C83.9223 50.0197 83.736 50.1621 83.5607 50.3046C85.7634 51.9264 87.9441 53.5812 90.092 55.2688C90.3769 55.4879 90.8262 55.3017 90.7166 54.9071C90.1358 52.6716 90.092 50.4799 90.607 48.2334C90.3988 48.2882 90.1906 48.343 89.9824 48.3978C91.6261 50.1512 93.2699 51.8936 94.9137 53.6469C95.2425 53.9976 95.7794 53.4716 95.4507 53.11C93.8069 51.3566 92.1631 49.6142 90.5193 47.8608C90.333 47.6636 89.9495 47.7513 89.8947 48.0252C89.3468 50.4032 89.3797 52.7483 90.0043 55.1044C90.2125 54.9839 90.4207 54.8633 90.6289 54.7428C88.4263 53.0113 86.2017 51.3237 83.9442 49.658C83.6484 49.4389 83.3525 49.8005 83.3963 50.0854C83.8566 53.2195 84.7552 56.2112 86.0812 59.0823C86.2236 58.896 86.3661 58.7097 86.5085 58.5344C84.7004 58.1837 82.8922 57.855 81.0731 57.6249C80.317 57.5262 79.2978 57.3399 79.0458 58.2714C78.7718 59.3015 80.1745 60.2987 80.7882 60.8686C82.0813 62.063 83.5059 63.0931 85.0072 64.0137C85.4127 64.2547 85.7962 63.6082 85.3798 63.3561Z" fill="#FFBD1A"/>
<path d="M217.77 48.4648C218.548 45.8896 219.808 43.5773 221.539 41.5281C221.32 41.4404 221.112 41.3527 220.893 41.2651C221.09 43.7198 221.287 46.1745 221.485 48.6292C221.507 48.9689 221.868 49.1113 222.131 48.8922C225.189 46.3827 228.487 44.2019 231.994 42.3609C231.807 42.2185 231.621 42.076 231.446 41.9335C231.073 44.6732 230.35 47.3032 229.243 49.8456C229.101 50.1634 229.408 50.5798 229.758 50.3606C232.038 48.9251 234.481 47.9607 237.111 47.4347C236.958 47.2813 236.805 47.1279 236.651 46.9744C235.764 49.462 234.58 51.7743 233.112 53.966C232.838 54.3714 233.495 54.744 233.758 54.3495C235.27 52.103 236.465 49.725 237.374 47.1717C237.484 46.8758 237.166 46.6566 236.914 46.7114C234.207 47.2484 231.709 48.2456 229.375 49.7141C229.55 49.8894 229.714 50.0538 229.89 50.2291C231.018 47.632 231.786 44.9471 232.169 42.1417C232.213 41.8239 231.928 41.55 231.621 41.7144C228.06 43.5883 224.717 45.8019 221.616 48.3552C221.835 48.4429 222.043 48.5305 222.263 48.6182C222.065 46.1635 221.868 43.7088 221.671 41.2541C221.649 40.9582 221.254 40.7171 221.024 40.9911C219.205 43.139 217.879 45.5608 217.057 48.2566C216.904 48.7278 217.627 48.9251 217.77 48.4648Z" fill="#FFBD1A"/>
<path d="M153.159 20.3775C152.819 18.0871 152.797 15.8297 153.06 13.5284C152.841 13.6161 152.633 13.7037 152.413 13.7914C154.156 15.6982 155.887 17.6159 157.63 19.5227C157.838 19.7528 158.156 19.5994 158.254 19.3583C159.306 16.8379 160.797 14.6133 162.714 12.6736C162.506 12.6189 162.298 12.5641 162.09 12.5093C162.408 14.5037 162.725 16.5091 163.043 18.5036C163.098 18.8652 163.558 18.8214 163.734 18.5912C165.29 16.4762 167.185 14.7229 169.421 13.3312C169.235 13.2216 169.048 13.112 168.851 13.0024C168.72 15.1503 168.391 17.2433 167.876 19.3254C167.755 19.7967 168.479 19.9939 168.599 19.5227C169.136 17.3748 169.465 15.2051 169.607 12.9914C169.629 12.7065 169.279 12.5202 169.037 12.6627C166.692 14.1202 164.72 15.9721 163.087 18.1858C163.317 18.2186 163.547 18.2406 163.777 18.2734C163.46 16.279 163.142 14.2736 162.824 12.2791C162.78 11.9942 162.375 11.9285 162.199 12.1148C160.183 14.153 158.649 16.4872 157.542 19.1282C157.75 19.0734 157.958 19.0186 158.167 18.9638C156.424 17.057 154.693 15.1393 152.95 13.2325C152.709 12.9695 152.337 13.1997 152.304 13.4955C152.041 15.8626 152.085 18.1858 152.435 20.5418C152.501 21.0459 153.224 20.8487 153.159 20.3775Z" fill="#FFBD1A"/>
<path d="M148.622 173.522C149.334 176.305 150.046 179.1 150.759 181.883C150.836 182.179 151.307 182.267 151.449 181.971C152.578 179.659 153.718 177.347 154.846 175.034C154.649 175.056 154.452 175.089 154.255 175.111C156.37 177.215 158.813 178.826 161.575 179.955C161.838 180.064 162.123 179.746 162.035 179.494C161.235 177.237 160.917 174.936 161.071 172.547C160.917 172.667 160.753 172.788 160.6 172.908C162.649 173.434 164.687 173.96 166.736 174.497C167.065 174.585 167.317 174.234 167.164 173.949C165.805 171.374 164.435 168.799 163.076 166.224C162.846 165.796 162.199 166.18 162.43 166.607C163.788 169.182 165.158 171.758 166.517 174.333C166.66 174.147 166.802 173.96 166.944 173.785C164.895 173.259 162.857 172.733 160.808 172.196C160.556 172.13 160.347 172.317 160.337 172.558C160.183 175.023 160.512 177.379 161.323 179.714C161.476 179.56 161.63 179.407 161.783 179.253C159.142 178.168 156.819 176.612 154.792 174.607C154.627 174.443 154.309 174.464 154.2 174.684C153.071 176.996 151.931 179.308 150.803 181.62C151.033 181.653 151.263 181.675 151.493 181.708C150.781 178.925 150.068 176.13 149.356 173.347C149.225 172.854 148.501 173.051 148.622 173.522Z" fill="#FFBD1A"/>
<path d="M263.992 128.187C266.677 128.702 269.121 129.798 271.268 131.497C271.323 131.288 271.378 131.08 271.433 130.872C268.419 132.088 265.417 133.305 262.403 134.521C262.151 134.62 262.019 134.938 262.239 135.146C264.715 137.557 266.644 140.351 268.014 143.518C268.156 143.332 268.299 143.146 268.441 142.97C266.052 142.181 263.641 141.535 261.176 141.031C260.847 140.965 260.595 141.283 260.748 141.578C262.129 144.318 263.51 147.058 264.891 149.797C265 149.611 265.11 149.425 265.219 149.227C262.885 149.041 260.639 148.581 258.425 147.847C257.965 147.693 257.768 148.417 258.228 148.57C260.507 149.326 262.83 149.786 265.23 149.973C265.537 149.995 265.669 149.644 265.559 149.403C264.178 146.663 262.797 143.924 261.417 141.184C261.274 141.37 261.132 141.557 260.989 141.732C263.455 142.236 265.866 142.883 268.255 143.672C268.605 143.781 268.803 143.398 268.682 143.124C267.29 139.902 265.307 137.042 262.787 134.598C262.732 134.806 262.677 135.014 262.622 135.223C265.636 134.006 268.638 132.79 271.652 131.573C271.882 131.486 272.068 131.146 271.816 130.949C269.57 129.162 267.038 127.99 264.211 127.453C263.718 127.376 263.521 128.099 263.992 128.187Z" fill="#FFBD1A"/>
<path d="M250.185 145.853C246.711 149.907 235.775 146.258 225.759 137.688C215.743 129.119 210.428 118.884 213.902 114.829C217.375 110.774 228.312 114.424 238.328 122.993C248.344 131.563 253.659 141.798 250.185 145.853Z" fill="#4F3422"/>
<path d="M179.075 149.468C175.601 153.522 164.664 149.873 154.648 141.304C144.632 132.734 139.317 122.499 142.791 118.444C146.265 114.39 157.202 118.039 167.218 126.608C177.234 135.167 182.549 145.402 179.075 149.468Z" fill="#4F3422"/>
<path d="M211.172 73.9965C215.709 68.32 224.947 61.8216 231.906 59.7505C238.875 57.6793 246.985 58.7204 252.464 63.4873C258.622 68.857 260.442 77.6457 260.694 85.8098C261.263 103.431 256.135 126.214 251.247 143.156C248.946 136.022 241.615 125.458 235.423 121.228C229.232 116.987 220.903 115.573 214.043 118.619C209.167 120.789 205.397 124.986 202.975 129.742C200.553 134.487 201.101 108.417 200.367 113.688C197.945 113.053 195.304 120.274 192.882 119.639C192.882 119.639 182.658 140.547 179.754 147.879C176.445 140.208 167.798 131.978 159.996 128.953C152.205 125.929 143.777 125.03 135.46 124.154C139.526 116.855 143.613 109.546 146.912 101.875C148.709 97.7107 150.276 93.4369 152.413 89.437C160.248 74.7636 176.532 64.5174 193.145 65.4708C200.981 65.9201 209.222 69.2405 213.035 76.1005L211.172 73.9965Z" fill="#FFBD1A"/>
<path d="M173.947 142.904C170.221 155.944 158.945 166.53 145.696 169.412C138.726 170.935 131.274 169.916 126.672 163.977C116.053 150.301 122.858 128.46 127.055 113.71C132.184 95.6834 139.154 73.613 150.057 58.3697C150.057 58.3697 147.34 54.8192 144.6 48.1783C143.318 45.0552 143.153 41.5046 144.359 38.3595C145.564 35.2144 149.378 32.9351 152.435 34.3377C151.318 32.7049 152.687 30.3269 154.539 29.6694C156.402 29.0119 158.452 29.5379 160.347 30.0749C159.109 28.99 159.734 26.7654 161.147 25.9216C162.561 25.0778 164.347 25.2532 165.947 25.6257C170.331 26.6558 174.374 29.0448 177.464 32.3104C179.207 34.1515 177.454 37.1431 175.01 36.4856C171.788 35.6199 168.873 34.5569 166.55 33.4392C167.558 34.1076 170.55 36.2555 173.235 38.502C175.371 40.2773 173.487 43.6853 170.835 42.8306C168.742 42.1621 166.835 41.3512 166.013 40.8033C169.947 44.8908 173.947 49.0988 176.248 54.2822C180.785 64.4736 178.001 76.2649 175.262 87.07C171.437 102.193 168.205 120.702 164.829 135.934C164.84 135.934 170.988 138.915 173.947 142.904Z" fill="#F6A460"/>
<path d="M173.453 64.9451C175.141 59.1042 176.741 52.551 173.552 47.2909C171.218 43.4445 166.593 41.0994 161.892 40.6282C157.191 40.157 152.435 41.3514 148.183 43.2801C144.808 44.8143 141.652 46.8088 139.011 49.3073C131.691 56.2221 128.951 66.2162 123.472 74.4899C120.918 78.3473 116.568 82.2376 111.889 81.0541C109.817 80.528 108.174 79.0815 106.267 78.1501C102.092 76.1008 96.8535 76.6816 92.6564 78.7089C88.4593 80.7363 85.1389 84.0238 82.1144 87.4319C76.4927 93.7769 71.4956 101.053 70.4545 109.239C69.4135 117.425 73.2818 126.608 81.3254 129.973C83.9773 131.091 86.9032 131.518 89.7744 131.934C95.955 132.844 102.914 134.268 106.146 139.298C107.659 141.644 108.163 144.569 110.212 146.531C111.483 147.736 113.215 148.438 114.979 148.832C121.149 150.191 127.636 148.054 133.049 144.975C136.523 143.002 139.822 140.548 141.816 137.227C144.49 132.789 144.501 127.441 145.235 122.389C145.783 118.686 146.748 115.025 148.128 111.508C148.753 109.919 149.487 108.319 150.758 107.135C152.03 105.941 153.969 105.228 155.679 105.765C156.698 106.083 157.531 106.796 158.528 107.19C160.742 108.067 163.361 107.179 165.202 105.744C170.451 101.656 170.834 94.3577 170.56 87.9689C170.286 81.5801 170.034 74.4461 174.582 69.6901L173.453 64.9451Z" fill="#4F3422"/>
<path d="M151.251 43.8938C140.577 41.0885 130.474 49.5375 125.444 58.1837C122.846 62.6657 120.852 67.7614 116.929 71.312C112.348 75.4543 105.938 76.0022 100.097 74.9392C97.1927 74.4132 94.4969 73.2845 91.6477 72.5832C89.0286 71.9366 86.5848 72.2873 84.1521 73.416C79.1988 75.7173 74.4209 78.972 71.5388 83.6951C68.5581 88.5826 65.8952 94.6097 65.1829 100.308C64.5254 105.59 65.6541 111.08 68.3499 115.672C71.1882 120.494 75.7469 124.241 80.9851 126.159C87.5273 128.559 94.5955 127.671 101.335 126.773C101.806 126.707 101.817 125.962 101.335 126.017C95.4174 126.806 89.2587 127.628 83.385 126.115C78.2783 124.8 73.6429 121.699 70.4649 117.491C67.1006 113.031 65.4459 107.365 65.7856 101.798C66.1473 95.9686 68.7773 90.051 71.6265 85.021C74.4538 80.0021 79.1112 76.6268 84.2616 74.1831C87.5602 72.616 90.4422 72.89 93.8175 74.0187C96.3269 74.8516 98.8584 75.5529 101.488 75.9036C105.981 76.4953 110.759 76.1337 114.748 73.8215C118.649 71.5531 121.104 67.6957 123.208 63.8383C126.003 58.7097 128.665 53.7784 133.191 49.921C138.057 45.7677 144.61 42.9185 151.043 44.6061C151.514 44.7486 151.722 44.0253 151.251 43.8938Z" fill="#4F3422"/>
<path d="M85.9066 127.211C89.8955 128.088 93.457 130.268 96.087 133.391C99.0787 136.953 99.7691 140.898 100.646 145.314C101.358 148.931 102.991 151.911 106.267 153.763C109.336 155.506 113.062 156.251 116.547 156.492C123.045 156.93 129.839 155.067 134.869 150.837C141.236 145.468 142.584 137.402 142.683 129.479C142.748 124.197 142.485 118.937 143 113.666C143.515 108.384 145.488 102.258 151.263 100.768C151.734 100.647 151.537 99.9242 151.066 100.045C142.639 102.215 142.047 112.603 141.915 119.704C141.74 128.46 143.176 138.487 138.047 146.191C133.927 152.383 126.486 155.582 119.209 155.802C115.429 155.911 111.407 155.319 107.944 153.785C106.114 152.974 104.404 151.813 103.254 150.158C101.873 148.185 101.479 145.775 101.073 143.451C100.361 139.331 99.1225 135.693 96.3062 132.515C93.6213 129.49 90.0489 127.375 86.1038 126.499C85.6326 126.378 85.4353 127.112 85.9066 127.211Z" fill="#4F3422"/>
<path d="M143.121 105.152C146.573 103.87 148.907 107.388 150.375 109.93C151.548 111.946 152.786 113.941 154.989 114.927C159.285 116.856 163.35 114.368 165.597 110.686C170.539 102.588 170.67 91.0047 164.808 83.3776C164.512 82.9941 163.865 83.3776 164.161 83.7612C169.936 91.2677 169.827 102.873 164.687 110.73C163.197 113.009 160.95 114.872 158.101 114.861C155.066 114.85 153.049 112.933 151.57 110.478C149.773 107.497 147.197 102.851 142.935 104.44C142.474 104.593 142.672 105.317 143.121 105.152Z" fill="#4F3422"/>
<path d="M149.476 45.1867C142.825 39.2801 133.258 40.8033 126.157 44.9894C121.992 47.4441 118.245 50.6769 114.815 54.0631C111.122 57.7232 107.56 63.6627 101.949 64.3202C98.9797 64.6709 95.451 62.8627 95.6154 59.4766C95.6921 58.052 96.5907 56.4959 98.0701 56.1781C99.7577 55.8164 101.621 57.0328 101.73 58.7752C101.763 59.2574 102.508 59.2574 102.486 58.7752C102.256 55.126 97.2482 54.2274 95.4949 57.3177C93.2484 61.2628 97.0838 65.0544 100.974 65.1531C106.957 65.3065 110.815 59.2245 114.508 55.4658C118.858 51.0166 123.801 46.7099 129.51 44.1018C135.734 41.2636 143.57 40.9458 148.961 45.7346C149.312 46.0415 149.849 45.5154 149.476 45.1867Z" fill="#4F3422"/>
<path d="M164.589 42.3705C168.095 41.8774 171.416 43.9595 174.835 44.4417C177.432 44.8033 180.084 44.6828 182.648 44.1239C187.897 42.9952 192.599 40.0144 196.127 35.9927C199.009 32.7051 202.965 27.6752 200.511 23.226C198.472 19.544 193.541 15.2154 189.004 15.7085C187.119 15.9058 185.585 17.44 186.045 19.4344C186.517 21.4727 188.763 22.1302 190.484 21.2206C190.911 20.9905 190.527 20.344 190.1 20.5741C187.218 22.0864 185.3 17.7468 188.27 16.629C189.453 16.1797 190.834 16.5194 191.985 16.9359C194.538 17.8673 196.839 19.5988 198.549 21.6918C199.601 22.985 200.719 24.6397 200.664 26.3821C200.62 27.8396 199.798 29.2422 199.108 30.4806C197.87 32.7161 196.335 34.7872 194.549 36.6064C190.681 40.5514 185.563 43.2472 180.029 43.7951C177.202 44.08 174.396 43.7951 171.69 42.9623C169.246 42.2171 166.999 41.2966 164.402 41.6582C163.909 41.713 164.117 42.4363 164.589 42.3705Z" fill="#4F3422"/>
<path d="M160.05 72.5845C160.894 74.294 162.001 75.9268 163.458 77.4062L168.313 71.0722L175.096 85.0333C177.496 89.9756 183.874 91.455 188.159 88.0141C188.225 87.9593 188.301 87.9045 188.367 87.8387C192.433 84.5402 192.564 78.3706 188.696 74.8419L159.952 48.6621C159.952 48.6621 155.141 61.5931 159.754 71.9379L160.05 72.5845Z" fill="#F6A460"/>
<path d="M159.756 71.9378C160.928 68.1242 162.989 62.8313 166.397 65.1216C166.802 65.2969 166.32 67.4996 165.564 68.1352C163.537 69.4393 161.476 70.8419 160.052 72.5843L159.756 71.9378Z" fill="#F6A460"/>
<path d="M159.733 72.7695C160.654 74.5777 161.793 76.1995 163.196 77.668C163.382 77.8652 163.645 77.7775 163.788 77.5912C165.41 75.4763 167.021 73.3722 168.642 71.2572C168.423 71.2572 168.204 71.2572 167.996 71.2572C170.067 75.5201 172.138 79.7829 174.209 84.0348C175.316 86.3032 176.642 88.2758 179.02 89.3935C182.253 90.9058 185.902 90.3141 188.653 88.1004C189.025 87.7936 188.499 87.2676 188.116 87.5635C184.872 90.1826 180.16 90.1168 177.124 87.1799C175.722 85.8211 174.987 83.9143 174.144 82.1829C172.313 78.4131 170.472 74.6434 168.642 70.8737C168.5 70.5888 168.149 70.6764 167.996 70.8737C166.374 72.9887 164.763 75.0927 163.141 77.2077C163.338 77.1858 163.536 77.1529 163.733 77.131C162.374 75.7064 161.278 74.1393 160.391 72.386C160.161 71.9586 159.514 72.3421 159.733 72.7695Z" fill="#4F3422"/>
<path d="M159.591 48.5627C156.884 55.8939 156.314 64.8799 159.437 72.1235C159.624 72.5618 160.281 72.1892 160.084 71.7399C157.048 64.6826 157.695 55.883 160.314 48.7599C160.478 48.3106 159.755 48.1134 159.591 48.5627Z" fill="#4F3422"/>
<path d="M159.756 71.9373C159.854 72.1565 159.953 72.3647 160.052 72.5839C160.402 72.1565 160.786 71.7401 161.213 71.3565C162.101 68.6498 163.8 66.3266 166.539 65.5157C166.528 65.3184 166.484 65.176 166.397 65.1321C162.989 62.8308 160.928 68.1238 159.756 71.9373Z" fill="#4F3422"/>
<path d="M161.212 71.3557C162.494 70.1613 164.039 69.1202 165.562 68.1339C166.154 67.6408 166.571 66.2052 166.538 65.5039C163.798 66.3258 162.1 68.638 161.212 71.3557Z" fill="#ED7E1C"/>
<path d="M176.445 55.3895C176.336 57.6579 174.418 59.4113 172.15 59.3127C169.881 59.2031 168.128 57.2854 168.227 55.0169C168.336 52.7485 170.254 50.9952 172.522 51.0938C174.802 51.1924 176.555 53.1102 176.445 55.3895Z" fill="#F6A460"/>
<path d="M171.919 57.0441C172.478 55.6414 173.037 54.2387 173.618 52.847C173.804 52.3977 173.081 52.2114 172.895 52.6497C172.314 54.0415 171.755 55.4442 171.196 56.8468C171.01 57.2961 171.744 57.4934 171.919 57.0441Z" fill="#4F3422"/>
<path d="M168.313 71.0707L174.845 84.462L171.568 66.1504L168.313 71.0707Z" fill="#4F3422"/>
<path d="M162.616 59.1057C162.122 60.2563 161.64 61.407 161.147 62.5576C161.016 62.8644 161.311 63.3137 161.662 63.0726C162.254 62.6562 162.89 62.3713 163.591 62.2069C164.062 62.0973 163.865 61.3741 163.394 61.4837C162.626 61.659 161.925 61.9768 161.279 62.4261C161.454 62.6014 161.618 62.7658 161.794 62.9411C162.287 61.7905 162.769 60.6399 163.262 59.4892C163.448 59.0509 162.802 58.6673 162.616 59.1057Z" fill="#4F3422"/>
<path d="M158.659 60.6605C158.363 63.1042 158.067 65.537 157.771 67.9807C157.749 68.178 157.957 68.3752 158.144 68.3533C158.801 68.2985 159.514 67.8821 160.116 67.641C160.555 67.4657 160.368 66.7315 159.919 66.9178C159.393 67.126 158.703 67.5643 158.144 67.6081C158.264 67.7287 158.396 67.8602 158.516 67.9807C158.812 65.537 159.108 63.1042 159.404 60.6605C159.47 60.1783 158.714 60.1783 158.659 60.6605Z" fill="#4F3422"/>
<path d="M160.479 55.5533C161.29 56.3094 162.364 56.682 163.47 56.5395C163.942 56.4738 163.953 55.7286 163.47 55.7834C162.55 55.9039 161.695 55.6519 161.016 55.0163C160.654 54.6985 160.128 55.2245 160.479 55.5533Z" fill="#4F3422"/>
<path d="M245.89 139.901C241.09 150.345 232.06 158.783 221.299 162.848C212.652 166.114 201.749 166.125 195.382 159.451C191.163 155.035 189.804 148.657 189.092 142.586C188.533 137.786 188.259 132.965 188.292 128.132C188.314 124.264 188.522 120.384 188.412 116.516C188.138 106.851 187.349 96.8126 185.081 87.4102C182.297 75.86 177.673 64.244 169.246 55.8607C169.092 55.7073 168.939 55.5758 168.797 55.4443C167.471 54.2936 168.523 52.1239 170.254 52.4088C171.284 52.5841 172.336 52.9129 173.081 53.5485C176.643 56.5621 176.741 55.4552 181.837 60.1016C178.166 57.2086 174.868 53.8553 172.04 50.1404C171.262 49.1103 172.15 47.6309 173.421 47.8939C176.873 48.6171 183.623 53.5156 187.525 56.0032C187.525 56.0032 177.355 47.4117 177.355 46.283C177.355 44.4091 180.325 45.1433 182.517 46.1953C186.845 48.2884 193.037 52.1458 198.089 55.6306C199.152 56.3648 200.335 54.8744 199.371 54.0087C196.795 51.6965 193.464 49.8226 191.261 49.8116C190.845 49.8116 190.44 49.7568 190.067 49.5815C188.051 48.6172 189.135 46.7432 190.472 46.4364C191.426 46.2172 195.437 46.535 196.346 46.8967C204.543 50.1513 207.151 53.5485 213.704 63.1591C217.595 68.8684 220.17 75.3559 222.274 81.931C227.03 96.7907 231.72 111.004 232.191 126.598C238.372 128.888 243.851 134.773 245.89 139.901Z" fill="#F6A460"/>
<path d="M188.893 136.318C188.433 128.691 188.98 121.053 188.663 113.426C188.367 106.095 187.742 98.7633 186.35 91.5526C183.918 78.9394 179.304 65.833 170.274 56.3868C169.551 55.6307 168.05 54.6115 168.773 53.439C169.529 52.2116 171.567 53.0006 172.488 53.5924C173.474 54.228 174.329 55.0718 175.326 55.7074C177.551 57.143 179.6 58.5895 181.572 60.3757C181.748 60.2004 181.923 60.025 182.109 59.8387C179.819 58.0196 177.671 56.0471 175.688 53.8992C175.162 53.3294 174.647 52.7486 174.143 52.1459C173.814 51.7623 172.367 50.3597 172.378 49.9432C172.795 49.4063 173.2 48.8583 173.617 48.3214C173.814 48.3762 174.022 48.431 174.219 48.4967C174.767 48.6173 175.315 48.9241 175.819 49.1652C179.907 51.1048 183.567 53.8883 187.359 56.3211C187.709 56.5512 188.148 56.0142 187.819 55.7293C185.057 53.3952 182.318 51.0281 179.742 48.4967C179.238 48.0036 178.285 47.2913 177.989 46.6228C177.222 44.8475 180.323 45.7023 181.156 45.9982C184.663 47.2584 187.972 49.5049 191.106 51.4665C192.772 52.5075 194.416 53.5705 196.038 54.6663C196.903 55.2471 198.164 56.617 199.314 56.0471C202.021 54.7102 197.506 51.9815 196.52 51.3678C195.282 50.6007 193.934 49.8884 192.498 49.5816C191.873 49.4501 191.172 49.5268 190.569 49.3515C188.323 48.7049 189.704 46.8858 191.139 46.7324C193.89 46.4475 196.52 47.2474 198.953 48.42C205.506 51.6089 209.396 57.4717 213.385 63.3235C213.659 63.7181 214.305 63.3455 214.032 62.94C210.328 57.5046 206.635 51.7514 200.728 48.4858C198.153 47.0611 195.786 46.1735 192.849 45.9982C191.326 45.9105 187.917 46.031 188.652 48.5734C188.926 49.5378 189.967 50.009 190.865 50.1405C193.21 50.4692 195.084 51.2254 197.046 52.5952C197.55 52.9459 198.032 53.3184 198.503 53.702C198.821 53.965 200.366 55.0937 198.295 55.2691C197.725 55.3239 195.961 53.6801 195.446 53.3404C193.495 52.0473 191.512 50.787 189.506 49.5706C186.537 47.7844 183.052 45.242 179.534 44.7708C177.956 44.5626 176.28 45.505 177.441 47.105C178.921 49.1323 181.101 50.8199 182.964 52.4746C184.389 53.7458 185.835 54.9951 187.293 56.2334C187.446 56.0362 187.6 55.8389 187.753 55.6416C185.134 53.954 182.581 52.1678 179.918 50.5459C178.658 49.7789 177.375 49.0227 176.038 48.3981C175.184 48.0036 174.033 47.368 173.058 47.4557C172.269 47.5214 171.6 48.1241 171.447 48.9022C171.228 50.0309 172.258 50.9514 172.893 51.7404C175.469 54.9184 178.405 57.7786 181.605 60.3209C181.978 60.6168 182.504 60.1237 182.142 59.784C180.323 58.1402 178.471 56.6717 176.378 55.3896C174.417 54.1842 172.707 52.1568 170.285 51.9706C168.565 51.85 167.272 53.5486 168.148 55.1376C168.828 56.3649 170.329 57.406 171.261 58.4689C172.554 59.9593 173.737 61.5373 174.833 63.1701C183.512 76.1779 186.624 92.4074 187.665 107.738C188.312 117.25 187.611 126.751 188.191 136.252C188.17 136.8 188.926 136.8 188.893 136.318Z" fill="#4F3422"/>
<path d="M245.56 139.715C240.87 149.764 232.432 157.939 222.131 162.114C212.531 166.004 199.326 166.114 193.354 156.164C189.836 150.312 189.332 142.959 188.894 136.307C188.861 135.825 188.105 135.825 188.138 136.307C188.543 142.477 189.047 149.052 191.732 154.717C194.044 159.616 198.198 163.1 203.425 164.525C214.219 167.473 225.945 162.574 234.185 155.703C239.281 151.452 243.401 146.104 246.207 140.088C246.415 139.66 245.768 139.277 245.56 139.715Z" fill="#4F3422"/>
<path d="M168.489 54.8853C169.694 55.0278 170.834 54.2388 171.195 53.0881C171.338 52.6279 170.615 52.4306 170.472 52.8909C170.209 53.7456 169.365 54.2388 168.489 54.1401C168.006 54.0744 168.006 54.8305 168.489 54.8853Z" fill="#4F3422"/>
<path d="M171.94 50.1088C173.321 50.7444 174.888 50.3389 175.797 49.1225C176.093 48.7389 175.436 48.3554 175.151 48.7389C174.504 49.6047 173.299 49.9005 172.313 49.4513C171.885 49.265 171.502 49.9115 171.94 50.1088Z" fill="#4F3422"/>
<path d="M178.121 47.1822C179.283 47.3904 180.39 46.9411 181.091 45.9877C181.376 45.6042 180.729 45.2206 180.444 45.6042C179.962 46.2617 179.118 46.5904 178.319 46.448C177.847 46.3713 177.639 47.0945 178.121 47.1822Z" fill="#4F3422"/>
<path d="M189.408 47.8826C190.636 48.299 191.929 48.0251 192.904 47.1922C193.277 46.8744 192.74 46.3484 192.367 46.6553C191.589 47.3128 190.559 47.4772 189.606 47.1484C189.145 47.0059 188.948 47.7292 189.408 47.8826Z" fill="#4F3422"/>
<path d="M151.328 35.0287C157.904 35.467 163.931 39.0285 167.492 44.5625C167.755 44.968 168.402 44.5954 168.139 44.179C164.424 38.4039 158.177 34.7328 151.328 34.2725C150.846 34.2397 150.846 34.9958 151.328 35.0287Z" fill="#4F3422"/>
<path d="M159.7 30.7554C162.188 31.4787 164.544 32.4978 166.779 33.8128C167.196 34.0649 167.579 33.4074 167.163 33.1663C164.873 31.8184 162.462 30.7664 159.898 30.0322C159.437 29.8897 159.229 30.613 159.7 30.7554Z" fill="#4F3422"/>
<path d="M171.591 37.8128C171.218 39.4347 172.457 41.0675 174.111 41.1552C174.594 41.1771 174.594 40.4319 174.111 40.399C172.95 40.3333 172.051 39.1388 172.314 38.0101C172.424 37.5388 171.701 37.3416 171.591 37.8128Z" fill="#4F3422"/>
<path d="M175.886 31.1497C175.295 32.673 176.281 34.4811 177.87 34.8208C178.341 34.9195 178.538 34.1962 178.067 34.0976C176.851 33.8346 176.16 32.4976 176.61 31.347C176.785 30.8977 176.062 30.7114 175.886 31.1497Z" fill="#4F3422"/>
<path d="M165.497 133.754C164.577 137.327 164.018 140.943 163.821 144.625C163.799 145.107 164.544 145.107 164.577 144.625C164.763 141.009 165.322 137.458 166.221 133.951C166.341 133.491 165.618 133.294 165.497 133.754Z" fill="#4F3422"/>
<path d="M232.454 121.842C232.333 127.902 232.212 133.962 232.092 140.011C232.081 140.493 232.837 140.493 232.848 140.011C232.969 133.951 233.089 127.891 233.21 121.842C233.21 121.36 232.465 121.36 232.454 121.842Z" fill="#4F3422"/>
<path d="M182.78 67.9367C183.624 67.4107 184.467 66.8847 185.322 66.3696C185.739 66.1176 185.355 65.4601 184.939 65.7231C184.095 66.2491 183.251 66.7641 182.396 67.2902C181.991 67.5422 182.374 68.1888 182.78 67.9367Z" fill="#FFBD1A"/>
<path d="M188.499 64.0462C189.167 63.5201 189.836 62.9832 190.504 62.4572C190.888 62.1613 190.351 61.6243 189.967 61.9202C189.299 62.4462 188.63 62.9832 187.962 63.5092C187.589 63.816 188.126 64.342 188.499 64.0462Z" fill="#FFBD1A"/>
<path d="M193.508 60.9777C194.275 60.5504 195.042 60.123 195.809 59.6956C196.236 59.4545 195.853 58.808 195.425 59.049C194.658 59.4764 193.891 59.9038 193.124 60.3312C192.708 60.5613 193.08 61.2079 193.508 60.9777Z" fill="#FFBD1A"/>
<path d="M203.042 55.9163C203.645 55.9163 204.237 55.9163 204.839 55.9163C205.322 55.9163 205.322 55.1602 204.839 55.1602C204.237 55.1602 203.645 55.1602 203.042 55.1602C202.56 55.1602 202.56 55.9163 203.042 55.9163Z" fill="#FFBD1A"/>
<path d="M146.484 38.6558C146.977 38.2065 147.481 37.7682 147.974 37.3189C148.336 36.9901 147.799 36.4641 147.438 36.7819C146.944 37.2312 146.44 37.6696 145.947 38.1189C145.586 38.4476 146.122 38.9736 146.484 38.6558Z" fill="#FFBD1A"/>
<path d="M154.155 32.5085C154.703 31.8729 155.361 31.3798 156.128 31.0291C156.566 30.8209 156.182 30.1744 155.744 30.3826C154.933 30.7661 154.21 31.3031 153.618 31.9825C153.311 32.3332 153.837 32.8701 154.155 32.5085Z" fill="#FFBD1A"/>
<path d="M163.328 27.7523C164.237 27.1934 165.147 26.6346 166.056 26.0866C166.473 25.8346 166.089 25.188 165.673 25.4401C164.763 25.999 163.854 26.5579 162.944 27.1058C162.539 27.3578 162.922 28.0044 163.328 27.7523Z" fill="#FFBD1A"/>
<path d="M164.939 62.0744C165.641 63.7949 166.846 65.3181 168.359 66.403C169.465 67.192 171.361 67.5427 171.876 66.2934C172.391 65.0442 170.846 63.9702 169.586 63.4881C168.096 62.9182 166.594 62.3484 165.104 61.7676L164.939 62.0744Z" fill="white"/>
<path d="M156.785 94.8633C155.273 96.4303 154.002 98.2275 153.004 100.167C152.752 100.671 152.5 101.241 152.665 101.778C152.939 102.721 154.319 102.907 155.109 102.326C155.898 101.745 156.193 100.715 156.358 99.7508C156.599 98.2056 157.015 96.4084 156.785 94.8633Z" fill="white"/>
<path d="M152.03 79.5527C150.441 81.1417 149.082 82.9608 148.019 84.9443C147.745 85.4594 147.482 86.0402 147.635 86.599C147.898 87.5743 149.312 87.8045 150.145 87.2237C150.967 86.6429 151.306 85.5909 151.482 84.5936C151.767 83.0047 152.238 81.1527 152.03 79.5527Z" fill="white"/>
<path d="M133.905 111.234C132.316 112.823 130.957 114.642 129.894 116.626C129.62 117.141 129.357 117.722 129.51 118.281C129.773 119.256 131.187 119.486 132.02 118.905C132.842 118.325 133.181 117.273 133.357 116.275C133.642 114.686 134.113 112.834 133.905 111.234Z" fill="white"/>
</svg>
